<svg width="183" height="105" viewBox="0 0 183 105" fill="none" xmlns="http://www.w3.org/2000/svg">
<path d="M57.3638 0.0334364C63.5513 0.0358602 69.0546 0.122003 74.5535 0.00257947C77.0388 -0.0513779 78.9608 0.739562 80.6494 2.52728C83.0139 5.03067 85.4708 7.44792 87.9337 9.85518C89.0443 10.9406 90.2646 11.9129 91.5871 13.0694C95.0436 11.0098 97.2822 8.05521 99.881 5.53699C106.254 -0.638565 104.173 0.0623961 113.001 0.0452395C132.485 0.00744796 151.97 0.0318345 171.454 0.0360288C173.288 0.0364294 175.134 -0.0555093 176.952 0.120232C180.922 0.503983 182.631 2.33997 182.895 6.29964C182.956 7.21607 182.92 8.13935 182.92 9.0595C182.921 30.2237 182.831 51.3887 182.999 72.5516C183.031 76.5619 181.929 79.5469 178.958 82.1994C175.903 84.9271 173.193 88.0446 170.134 91.1959C171.34 92.7193 172.221 94.0163 173.285 95.1397C175.495 97.4735 177.721 99.8039 180.093 101.968C182.101 103.799 182.977 105.849 182.966 108.623C182.882 130.707 182.918 152.791 182.912 174.876C182.912 175.795 182.923 176.723 182.805 177.631C182.426 180.564 180.89 182.303 178.071 182.737C176.497 182.98 174.871 182.921 173.269 182.922C152.409 182.932 131.549 182.848 110.69 182.999C106.724 183.028 103.633 182.063 101.034 178.993C98.9628 176.547 96.5598 174.378 94.2368 172.157C93.4433 171.399 92.4445 170.857 91.173 169.956C87.9472 173.168 84.7056 176.069 81.8647 179.323C79.3515 182.201 76.4632 183.018 72.7605 182.994C51.9016 182.858 31.041 182.861 10.1819 182.967C3.4426 183.001 -0.0192356 182.516 0.0326818 172.96C0.146429 152.027 0.13681 131.092 0.000338446 110.158C-0.0227641 106.609 1.13626 104.064 3.6656 101.713C7.00095 98.6124 10.0653 95.2181 13.2827 91.9124C11.4874 88.3813 8.66226 86.3319 6.31552 83.8943C-0.950178 76.3471 0.117657 79.0732 0.082961 68.969C0.0181485 50.1055 0.0596066 31.2415 0.0710318 12.3778C0.0722499 10.3099 -0.00608825 8.22002 0.253709 6.17891C0.762507 2.18115 2.55177 0.478121 6.48048 0.117471C8.30044 -0.0496076 10.1449 0.0366401 11.9783 0.0360499C26.8782 0.0313918 41.7779 0.0333732 57.3638 0.0334364ZM49.8035 158.345C55.0761 158.345 60.3487 158.345 65.6214 158.345C93.8187 158.345 122.016 158.365 150.213 158.31C152.647 158.305 155.235 158.966 157.942 157.262C157.985 154.885 158.068 152.389 158.068 149.892C158.076 111.242 158.074 72.5907 158.073 33.9399C158.073 32.3295 158.172 30.7091 158.025 29.1119C157.908 27.8354 157.486 26.5872 157.127 25.0127C154.312 25.0127 151.804 25.0128 149.297 25.0128C112.389 25.0128 75.4798 25.0123 38.5712 25.0135C35.591 25.0136 32.6086 24.9586 29.6318 25.061C28.328 25.106 27.0356 25.4829 25.8991 25.6809C24.572 31.9677 24.0261 114.146 24.9965 152.898C25.0351 154.442 25.3831 155.979 25.553 157.262C26.3334 157.688 26.7256 158.087 27.1238 158.093C34.2248 158.205 41.3265 158.27 49.8035 158.345Z" fill="#F4F7FB"/>
</svg>
