<svg width="24" height="25" viewBox="0 0 24 25" fill="none" xmlns="http://www.w3.org/2000/svg">
<path d="M2 3H2.69273C3.85883 3 4.83785 3.87803 4.96431 5.03725L5.89086 13.5306C6.01732 14.6898 6.99635 15.5678 8.16244 15.5678H18.048C19.0925 15.5678 20.0041 14.8595 20.2622 13.8474L21.8388 7.66507C22.2072 6.22026 21.1156 4.81535 19.6246 4.81535H6.1131M6.14139 19.7094H6.99828M6.14139 20.5663H6.99828M18.7092 19.7094H19.5661M18.7092 20.5663H19.5661M7.71264 20.1379C7.71264 20.7689 7.20112 21.2805 6.57011 21.2805C5.93911 21.2805 5.42759 20.7689 5.42759 20.1379C5.42759 19.5069 5.93911 18.9954 6.57011 18.9954C7.20112 18.9954 7.71264 19.5069 7.71264 20.1379ZM20.2805 20.1379C20.2805 20.7689 19.7689 21.2805 19.1379 21.2805C18.5069 21.2805 17.9954 20.7689 17.9954 20.1379C17.9954 19.5069 18.5069 18.9954 19.1379 18.9954C19.7689 18.9954 20.2805 19.5069 20.2805 20.1379Z" stroke="#BECEE6" stroke-width="1.5" stroke-linecap="round"/>
<path d="M6.14154 19.7101H6.99843M6.14154 20.567H6.99843M18.7094 19.7101H19.5662M18.7094 20.567H19.5662M7.71279 20.1386C7.71279 20.7696 7.20126 21.2812 6.57026 21.2812C5.93926 21.2812 5.42773 20.7696 5.42773 20.1386C5.42773 19.5076 5.93926 18.9961 6.57026 18.9961C7.20126 18.9961 7.71279 19.5076 7.71279 20.1386ZM20.2806 20.1386C20.2806 20.7696 19.7691 21.2812 19.1381 21.2812C18.5071 21.2812 17.9955 20.7696 17.9955 20.1386C17.9955 19.5076 18.5071 18.9961 19.1381 18.9961C19.7691 18.9961 20.2806 19.5076 20.2806 20.1386Z" stroke="#1B46C5" stroke-width="1.5" stroke-linecap="round"/>
</svg>
