<svg width="17" height="16" viewBox="0 0 17 16" fill="none" xmlns="http://www.w3.org/2000/svg">
<path d="M16.0576 3.15034C16.0044 3.08664 15.9378 3.0354 15.8626 3.00024C15.7874 2.96509 15.7054 2.94688 15.6224 2.94689H4.18654L3.83989 1.04281C3.79241 0.781467 3.65472 0.545077 3.45081 0.374852C3.2469 0.204628 2.98972 0.111367 2.7241 0.111328H1.44455C1.29415 0.111328 1.1499 0.171077 1.04354 0.277431C0.937191 0.383786 0.877441 0.528033 0.877441 0.67844C0.877441 0.828848 0.937191 0.973095 1.04354 1.07945C1.1499 1.1858 1.29415 1.24555 1.44455 1.24555H2.72056L4.53248 11.1906C4.58585 11.4855 4.7162 11.7611 4.91032 11.9895C4.64239 12.2397 4.44901 12.5593 4.35161 12.9128C4.25422 13.2662 4.25661 13.6397 4.35854 13.9919C4.46046 14.3441 4.65793 14.6611 4.92905 14.9079C5.20017 15.1547 5.53434 15.3216 5.89451 15.39C6.25468 15.4585 6.62678 15.4259 6.96954 15.2958C7.3123 15.1657 7.61233 14.9432 7.83636 14.653C8.0604 14.3628 8.19968 14.0162 8.23876 13.6517C8.27785 13.2871 8.21521 12.9189 8.05779 12.5878H11.2776C11.1507 12.8534 11.085 13.1441 11.0855 13.4385C11.0855 13.831 11.2019 14.2148 11.42 14.5412C11.6381 14.8676 11.9481 15.122 12.3108 15.2723C12.6735 15.4225 13.0726 15.4618 13.4576 15.3852C13.8426 15.3086 14.1963 15.1196 14.4739 14.842C14.7515 14.5644 14.9405 14.2107 15.0171 13.8257C15.0937 13.4407 15.0544 13.0416 14.9042 12.6789C14.7539 12.3162 14.4995 12.0062 14.1731 11.7881C13.8467 11.57 13.4629 11.4536 13.0704 11.4536H6.20617C6.07336 11.4536 5.94477 11.4069 5.84281 11.3218C5.74086 11.2367 5.67201 11.1185 5.64827 10.9878L5.42355 9.75224H13.6467C14.0451 9.75218 14.4309 9.61229 14.7367 9.35695C15.0426 9.10161 15.2492 8.74703 15.3204 8.35501L16.1824 3.61537C16.197 3.53345 16.1934 3.44933 16.1718 3.36896C16.1502 3.28859 16.1113 3.21395 16.0576 3.15034ZM13.0704 12.5878C13.2386 12.5878 13.4031 12.6377 13.543 12.7312C13.6829 12.8246 13.7919 12.9575 13.8563 13.1129C13.9207 13.2684 13.9375 13.4394 13.9047 13.6044C13.8719 13.7694 13.7908 13.921 13.6719 14.04C13.5529 14.1589 13.4013 14.24 13.2363 14.2728C13.0713 14.3056 12.9003 14.2888 12.7448 14.2244C12.5894 14.16 12.4565 14.051 12.363 13.9111C12.2696 13.7712 12.2197 13.6067 12.2197 13.4385C12.2197 13.2129 12.3093 12.9965 12.4688 12.837C12.6284 12.6774 12.8447 12.5878 13.0704 12.5878ZM6.26501 12.5878C6.43325 12.5878 6.59772 12.6377 6.73761 12.7312C6.8775 12.8246 6.98654 12.9575 7.05092 13.1129C7.11531 13.2684 7.13215 13.4394 7.09933 13.6044C7.06651 13.7694 6.98549 13.921 6.86652 14.04C6.74755 14.1589 6.59598 14.24 6.43096 14.2728C6.26595 14.3056 6.09491 14.2888 5.93947 14.2244C5.78403 14.16 5.65118 14.051 5.5577 13.9111C5.46423 13.7712 5.41434 13.6067 5.41434 13.4385C5.41434 13.2129 5.50396 12.9965 5.66349 12.837C5.82303 12.6774 6.0394 12.5878 6.26501 12.5878Z" fill="#233567"/>
</svg>
