<?xml version="1.0" encoding="UTF-8"?>
<svg version="1.1" xmlns="http://www.w3.org/2000/svg" width="59" height="60">
<path d="M0 0 C0.5625 1.9375 0.5625 1.9375 1 4 C0 5 0 5 -2.06640625 5.09765625 C-2.89011719 5.08605469 -3.71382812 5.07445312 -4.5625 5.0625 C-5.38878906 5.05347656 -6.21507812 5.04445313 -7.06640625 5.03515625 C-7.70449219 5.02355469 -8.34257812 5.01195312 -9 5 C-7.91582426 13.22031757 -6.38797218 23.91980142 -0.05078125 29.8125 C3.13814949 31.65904275 5.39354153 31.50616961 9 31 C13.25606518 27.49998928 15.01760634 24.24280701 16.75 19.0625 C17.15734375 17.87785156 17.5646875 16.69320313 17.984375 15.47265625 C18.90933397 12.31000807 19.54221535 9.25922766 20 6 C19.278125 5.855625 18.55625 5.71125 17.8125 5.5625 C15.20833333 5.04166667 12.60416667 4.52083333 10 4 C10.33 2.35 10.66 0.7 11 -1 C15.38889325 -0.33501617 18.9811485 1.18757677 23 3 C23.19162864 9.00208261 22.5641107 14.33774604 21.25 20.1875 C21.01410156 21.35829102 21.01410156 21.35829102 20.7734375 22.55273438 C19.73329236 27.26939251 18.59180673 30.56517783 15 34 C11.75 35.8125 11.75 35.8125 9 37 C8.97314905 39.47923801 8.95323453 41.9581884 8.9375 44.4375 C8.92912109 45.14455078 8.92074219 45.85160156 8.91210938 46.58007812 C8.90346412 48.38693559 8.94779989 50.19387603 9 52 C10.0595877 53.28322547 10.0595877 53.28322547 12.5 53.125 C14.9404123 53.28322547 14.9404123 53.28322547 16 52 C16.15769349 50.58659906 16.27634556 49.16874478 16.375 47.75 C16.78233997 43.80820245 17.42974727 41.14142001 20 38 C23.41936792 35.43547406 26.85555785 35.84059838 31 36 C31.309375 35.360625 31.61875 34.72125 31.9375 34.0625 C33 32 33 32 34 31 C38.33554844 30.49974441 40.35634512 30.55748727 44 33.0625 C46 36 46 36 46 39.625 C44.52068474 44.61768902 44.52068474 44.61768902 42 46 C38.30006493 46.54842461 35.14845176 46.78956059 32 44.625 C31 43 31 43 31 41 C28.36 41.66 25.72 42.32 23 43 C22.91363281 43.81984375 22.82726563 44.6396875 22.73828125 45.484375 C21.59516024 54.25179856 21.59516024 54.25179856 18.8125 57.75 C15.20221437 59.35457139 12.91435244 59.55919321 9 59 C6.24670979 57.20437595 4.47372539 55.94745078 3 53 C2.80113357 46.23117588 2.80113357 46.23117588 2.83398438 42.85351562 C2.82230296 40.4373349 2.82230296 40.4373349 2 37 C-0.78919387 35.21723605 -0.78919387 35.21723605 -4 34 C-7.51432173 30.46152485 -8.66894693 27.47437762 -9.625 22.625 C-10.36207479 19.03277288 -11.08328263 15.53931778 -12.25 12.0625 C-13.09332736 8.61891329 -12.94892327 6.40030838 -12 3 C-8.61613364 -0.38386636 -4.56431325 -1.75550509 0 0 Z " fill="#5EB7FF" transform="translate(13,1)"/>
<path d="M0 0 C0.5625 1.9375 0.5625 1.9375 1 4 C0 5 0 5 -2.06640625 5.09765625 C-2.89011719 5.08605469 -3.71382812 5.07445312 -4.5625 5.0625 C-5.38878906 5.05347656 -6.21507812 5.04445313 -7.06640625 5.03515625 C-7.70449219 5.02355469 -8.34257812 5.01195312 -9 5 C-7.91582426 13.22031757 -6.38797218 23.91980142 -0.05078125 29.8125 C3.13814949 31.65904275 5.39354153 31.50616961 9 31 C13.25606518 27.49998928 15.01760634 24.24280701 16.75 19.0625 C17.15734375 17.87785156 17.5646875 16.69320313 17.984375 15.47265625 C18.90933397 12.31000807 19.54221535 9.25922766 20 6 C19.278125 5.855625 18.55625 5.71125 17.8125 5.5625 C15.20833333 5.04166667 12.60416667 4.52083333 10 4 C10.33 2.35 10.66 0.7 11 -1 C15.38889325 -0.33501617 18.9811485 1.18757677 23 3 C23.19162864 9.00208261 22.5641107 14.33774604 21.25 20.1875 C21.01410156 21.35829102 21.01410156 21.35829102 20.7734375 22.55273438 C19.73007427 27.28398533 18.51346092 30.47320527 15 34 C10.23319848 36.80400089 6.50946647 37.47704599 1.1484375 36.64453125 C-2.95200937 35.41439719 -5.78745345 32.95255658 -8.0625 29.2890625 C-9.3476287 26.1512066 -9.92365809 23.01549846 -10.5625 19.6875 C-10.81128906 18.41261719 -11.06007813 17.13773438 -11.31640625 15.82421875 C-13.180898 5.39371918 -13.180898 5.39371918 -11.9375 2.6875 C-8.3543842 -0.43327828 -4.53180722 -1.74300278 0 0 Z " fill="#5EB5FE" transform="translate(13,1)"/>
<path d="M0 0 C3 2.0625 3 2.0625 5 5 C5 8.51955419 4.63108355 10.84920059 2.9375 13.9375 C-0.1664285 15.63965434 -3.55484204 15.70848006 -7 15 C-9.20656639 13.41247034 -9.90173068 12.53181041 -10.3984375 9.84375 C-10.39070313 9.0703125 -10.38296875 8.296875 -10.375 7.5 C-10.38273437 6.7265625 -10.39046875 5.953125 -10.3984375 5.15625 C-9.3392856 -0.5756309 -5.08502977 -0.70138342 0 0 Z " fill="#AB9FAA" transform="translate(54,32)"/>
<path d="M0 0 C0.5625 1.9375 0.5625 1.9375 1 4 C0 5 0 5 -2.06640625 5.09765625 C-2.89011719 5.08605469 -3.71382812 5.07445312 -4.5625 5.0625 C-5.38878906 5.05347656 -6.21507812 5.04445313 -7.06640625 5.03515625 C-7.70449219 5.02355469 -8.34257812 5.01195312 -9 5 C-8.68806536 6.72926874 -8.37542638 8.45841044 -8.0625 10.1875 C-7.80146484 11.63189453 -7.80146484 11.63189453 -7.53515625 13.10546875 C-7.0476265 15.74239972 -6.53328895 18.3719905 -6 21 C-6.99 21.33 -7.98 21.66 -9 22 C-9.70386802 19.96391826 -10.38742855 17.92080976 -11.0625 15.875 C-11.44535156 14.73804688 -11.82820312 13.60109375 -12.22265625 12.4296875 C-13.04402467 8.80576051 -12.98559624 6.56053093 -12 3 C-8.61613364 -0.38386636 -4.56431325 -1.75550509 0 0 Z " fill="#908290" transform="translate(13,1)"/>
<path d="M0 0 C4.38889325 0.66498383 7.9811485 2.18757677 12 4 C12.38614349 10.8218683 11.00865708 16.49577707 9 23 C8.01 23 7.02 23 6 23 C6.19916016 22.02160156 6.19916016 22.02160156 6.40234375 21.0234375 C7.34482822 16.3591713 8.25768703 11.70131546 9 7 C8.278125 6.855625 7.55625 6.71125 6.8125 6.5625 C4.20833333 6.04166667 1.60416667 5.52083333 -1 5 C-0.67 3.35 -0.34 1.7 0 0 Z " fill="#908493" transform="translate(24,0)"/>
<path d="M0 0 C2.0625 1.5625 2.0625 1.5625 4 4 C3.93957505 7.44422213 3.60093625 9.90417507 1.9375 12.9375 C-1.23173028 14.67546499 -4.47743054 14.57241754 -8 14 C-10 12.5 -10 12.5 -11 11 C-10.67 10.34 -10.34 9.68 -10 9 C-8.700625 9.020625 -7.40125 9.04125 -6.0625 9.0625 C-4.70834367 9.08399454 -3.35243917 9.07148199 -2 9 C-0.50256881 7.50256881 -0.66797307 6.01175761 -0.4375 3.9375 C-0.293125 2.638125 -0.14875 1.33875 0 0 Z " fill="#958595" transform="translate(55,33)"/>
<path d="M0 0 C0 0.66 0 1.32 0 2 C-2.31 2.66 -4.62 3.32 -7 4 C-7.08636719 4.81984375 -7.17273437 5.6396875 -7.26171875 6.484375 C-8.40483976 15.25179856 -8.40483976 15.25179856 -11.1875 18.75 C-14.69958536 20.31092683 -17.19650051 20.43058485 -21 20 C-21.66 19.34 -22.32 18.68 -23 18 C-22.38511719 17.90203125 -21.77023438 17.8040625 -21.13671875 17.703125 C-16.2401742 16.84718978 -16.2401742 16.84718978 -12 14.4375 C-10.7268694 11.33424417 -10.54128358 8.45754842 -10.40625 5.12109375 C-9.28669271 -0.72428708 -5.11911702 -0.28976134 0 0 Z " fill="#27A8FF" transform="translate(43,40)"/>
<path d="M0 0 C0.66 0 1.32 0 2 0 C1.58726322 5.26239391 0.88050973 8.32372763 -3 12 C-7.78625431 14.81544371 -11.52598126 15.46087971 -16.91015625 14.66015625 C-20.16029332 13.63347744 -21.92312039 11.61284855 -24 9 C-23.43023437 9.31324219 -22.86046875 9.62648438 -22.2734375 9.94921875 C-18.62300739 11.63644504 -15.00489369 12.06257646 -11 12 C-7.36865125 10.65505602 -4.32910276 9.14428873 -2 6 C-0.79950593 2.89992799 -0.79950593 2.89992799 0 0 Z " fill="#2BA8FF" transform="translate(31,23)"/>
<path d="M0 0 C1.67542976 0.28604898 3.34385343 0.61781233 5 1 C5 2.65 5 4.3 5 6 C2.625 6.625 2.625 6.625 0 7 C-0.66 6.34 -1.32 5.68 -2 5 C-1.46428571 1.46428571 -1.46428571 1.46428571 0 0 Z " fill="#D5CED4" transform="translate(49,36)"/>
<path d="M0 0 C1.65 0.33 3.3 0.66 5 1 C4.67 2.65 4.34 4.3 4 6 C2.35 5.67 0.7 5.34 -1 5 C-0.67 3.35 -0.34 1.7 0 0 Z " fill="#B6ABB5" transform="translate(24,0)"/>
<path d="M0 0 C2.0625 0.4375 2.0625 0.4375 4 1 C4.5625 2.9375 4.5625 2.9375 5 5 C4 6 4 6 1.4375 6.0625 C0.2309375 6.0315625 0.2309375 6.0315625 -1 6 C-1.042721 4.33388095 -1.04063832 2.66617115 -1 1 C-0.67 0.67 -0.34 0.34 0 0 Z " fill="#B5ABB4" transform="translate(9,0)"/>
<path d="M0 0 C2.31 0 4.62 0 7 0 C7 1.65 7 3.3 7 5 C6.67 4.34 6.34 3.68 6 3 C3.36 3.33 0.72 3.66 -2 4 C-1.34 2.68 -0.68 1.36 0 0 Z " fill="#61B4F8" transform="translate(37,37)"/>
<path d="M0 0 C0.66 0.33 1.32 0.66 2 1 C2 2.65 2 4.3 2 6 C0.35 6.33 -1.3 6.66 -3 7 C-3.33 6.34 -3.66 5.68 -4 5 C-3.01 4.67 -2.02 4.34 -1 4 C-0.26676204 1.98491642 -0.26676204 1.98491642 0 0 Z " fill="#CAC0C9" transform="translate(52,36)"/>
</svg>
