<?xml version="1.0" encoding="UTF-8"?>
<svg version="1.1" xmlns="http://www.w3.org/2000/svg" width="65" height="64">
<path d="M0 0 C3.3 0 6.6 0 10 0 C10.495 2.475 10.495 2.475 11 5 C11.309375 4.360625 11.61875 3.72125 11.9375 3.0625 C13 1 13 1 14 0 C15.51928038 -0.07179964 17.04167482 -0.08392007 18.5625 -0.0625 C19.38878906 -0.05347656 20.21507812 -0.04445313 21.06640625 -0.03515625 C21.70449219 -0.02355469 22.34257813 -0.01195313 23 0 C23 1.65 23 3.3 23 5 C23.66 5 24.32 5 25 5 C25 5.99 25 6.98 25 8 C24.34 8 23.68 8 23 8 C23 11.63 23 15.26 23 19 C24.4540625 18.9690625 24.4540625 18.9690625 25.9375 18.9375 C29 19 29 19 30 20 C30 28.25 30 36.5 30 45 C8.55 45 -12.9 45 -35 45 C-35 40.71 -35 36.42 -35 32 C-25.76 32 -16.52 32 -7 32 C-7 28.37 -7 24.74 -7 21 C-6.67 20.34 -6.34 19.68 -6 19 C-4.02 19 -2.04 19 0 19 C0 15.37 0 11.74 0 8 C-0.66 8 -1.32 8 -2 8 C-1.34 5.36 -0.68 2.72 0 0 Z M10 8 C10 11.63 10 15.26 10 19 C10.99 19 11.98 19 13 19 C13 15.37 13 11.74 13 8 C12.01 8 11.02 8 10 8 Z M-4 22 C-4 25.3 -4 28.6 -4 32 C-2.68 32 -1.36 32 0 32 C0 28.7 0 25.4 0 22 C-1.32 22 -2.64 22 -4 22 Z M10 22 C9.67 27.28 9.34 32.56 9 38 C10.65 38 12.3 38 14 38 C13.67 32.72 13.34 27.44 13 22 C12.01 22 11.02 22 10 22 Z M23 22 C22.67 27.28 22.34 32.56 22 38 C23.65 38 25.3 38 27 38 C27 32.72 27 27.44 27 22 C25.68 22 24.36 22 23 22 Z " fill="#9E9696" transform="translate(35,18)"/>
<path d="M0 0 C5.82071622 -0.02464638 11.64140234 -0.0428343 17.4621582 -0.05493164 C19.44393441 -0.05997267 21.42570689 -0.06680538 23.4074707 -0.07543945 C26.24952109 -0.08751515 29.09152247 -0.09323045 31.93359375 -0.09765625 C32.82525742 -0.10281754 33.71692108 -0.10797882 34.63560486 -0.11329651 C36.75740601 -0.11349177 38.8791078 -0.0621003 41 0 C42 1 42 1 42 8 C49.59 8 57.18 8 65 8 C65 9.65 65 11.3 65 13 C43.55 13 22.1 13 0 13 C0 8.71 0 4.42 0 0 Z " fill="#C4E1FD" transform="translate(0,50)"/>
<path d="M0 0 C3.3 0 6.6 0 10 0 C10.33 1.65 10.66 3.3 11 5 C11.309375 4.360625 11.61875 3.72125 11.9375 3.0625 C13 1 13 1 14 0 C15.51928038 -0.07179964 17.04167482 -0.08392007 18.5625 -0.0625 C19.38878906 -0.05347656 20.21507813 -0.04445313 21.06640625 -0.03515625 C21.70449219 -0.02355469 22.34257813 -0.01195313 23 0 C23 1.65 23 3.3 23 5 C23.66 5 24.32 5 25 5 C25 5.99 25 6.98 25 8 C24.34 8 23.68 8 23 8 C23 10.31 23 12.62 23 15 C19.7 15 16.4 15 13 15 C13 12.69 13 10.38 13 8 C12.01 8 11.02 8 10 8 C10 10.31 10 12.62 10 15 C6.7 15 3.4 15 0 15 C0 12.69 0 10.38 0 8 C-0.66 8 -1.32 8 -2 8 C-1.34 5.36 -0.68 2.72 0 0 Z " fill="#BBDDFE" transform="translate(35,18)"/>
<path d="M0 0 C2.375 0.25 2.375 0.25 3.375 1.25 C3.75 3.4375 3.75 3.4375 3.375 6.25 C1.77381603 8.30279996 0.10723664 10.30651499 -1.625 12.25 C-1.955 13.24 -2.285 14.23 -2.625 15.25 C-3.34558594 15.518125 -4.06617187 15.78625 -4.80859375 16.0625 C-8.64772193 17.68121702 -10.87085526 20.24557894 -13.6875 23.25 C-20.09766682 30.03629396 -20.09766682 30.03629396 -23.625 31.25 C-24.615 31.25 -25.605 31.25 -26.625 31.25 C-26.955 30.26 -27.285 29.27 -27.625 28.25 C-24.40769743 21.92633633 -20.07463842 17.48453827 -14.9296875 12.64453125 C-12.68626874 10.31365718 -11.24271533 8.03074735 -9.625 5.25 C-7.625 4.125 -7.625 4.125 -5.625 3.25 C-5.150625 2.71375 -4.67625 2.1775 -4.1875 1.625 C-2.625 0.25 -2.625 0.25 0 0 Z " fill="#B068DB" transform="translate(39.625,0.75)"/>
<path d="M0 0 C1.32 0 2.64 0 4 0 C4 2.97 4 5.94 4 9 C-8.21 9 -20.42 9 -33 9 C-33 7.35 -33 5.7 -33 4 C-22.11 4 -11.22 4 0 4 C0 2.68 0 1.36 0 0 Z " fill="#FA838B" transform="translate(36,52)"/>
<path d="M0 0 C1.23556641 0.01740234 1.23556641 0.01740234 2.49609375 0.03515625 C3.32238281 0.04417969 4.14867187 0.05320313 5 0.0625 C5.63808594 0.07410156 6.27617188 0.08570313 6.93359375 0.09765625 C6.96044054 2.74355639 6.98035732 5.38918721 6.99609375 8.03515625 C7.00447266 8.78990234 7.01285156 9.54464844 7.02148438 10.32226562 C7.03011816 12.24759938 6.98583708 14.17301206 6.93359375 16.09765625 C5.93359375 17.09765625 5.93359375 17.09765625 4.0859375 17.1953125 C2.03515625 17.16276042 -0.015625 17.13020833 -2.06640625 17.09765625 C-3.55982328 14.11082218 -3.19815803 11.35365851 -3.19140625 8.03515625 C-3.19398437 6.76542969 -3.1965625 5.49570312 -3.19921875 4.1875 C-3.02537069 0.14297593 -3.02537069 0.14297593 0 0 Z " fill="#F94956" transform="translate(51.06640625,38.90234375)"/>
<path d="M0 0 C3.3 0 6.6 0 10 0 C10 5.28 10 10.56 10 16 C9.01 16.33 8.02 16.66 7 17 C6.67 15.35 6.34 13.7 6 12 C3.03 11.505 3.03 11.505 0 11 C0 7.37 0 3.74 0 0 Z " fill="#F74B58" transform="translate(35,39)"/>
<path d="M0 0 C0.33 0 0.66 0 1 0 C1 2.31 1 4.62 1 7 C8.59 7 16.18 7 24 7 C24 8.65 24 10.3 24 12 C16.08 12 8.16 12 0 12 C0 8.04 0 4.08 0 0 Z " fill="#DDD1CF" transform="translate(41,51)"/>
<path d="M0 0 C2.375 0.25 2.375 0.25 3.375 1.25 C3.75 3.4375 3.75 3.4375 3.375 6.25 C1.77381603 8.30279996 0.10723664 10.30651499 -1.625 12.25 C-1.955 13.24 -2.285 14.23 -2.625 15.25 C-6.87322374 14.77797514 -8.82489709 12.28344482 -11.625 9.25 C-10.2243784 5.748446 -9.00235911 4.78516323 -5.625 3.25 C-5.150625 2.71375 -4.67625 2.1775 -4.1875 1.625 C-2.625 0.25 -2.625 0.25 0 0 Z " fill="#7C6E7A" transform="translate(39.625,0.75)"/>
<path d="M0 0 C3.3 0 6.6 0 10 0 C10 1.32 10 2.64 10 4 C11.32 4 12.64 4 14 4 C14 4.99 14 5.98 14 7 C8.06 7 2.12 7 -4 7 C-4 10.3 -4 13.6 -4 17 C-4.99 17 -5.98 17 -7 17 C-7.02696365 15.20841511 -7.04637917 13.41671527 -7.0625 11.625 C-7.07410156 10.62726562 -7.08570312 9.62953125 -7.09765625 8.6015625 C-7 6 -7 6 -6 4 C-4.02 4 -2.04 4 0 4 C0 2.68 0 1.36 0 0 Z " fill="#9E9797" transform="translate(35,33)"/>
<path d="M0 0 C9.57 0 19.14 0 29 0 C29 1.32 29 2.64 29 4 C19.76 4 10.52 4 1 4 C1 5.65 1 7.3 1 9 C0.67 9 0.34 9 0 9 C0 6.03 0 3.06 0 0 Z " fill="#D9D9E9" transform="translate(2,52)"/>
<path d="M0 0 C4 2 4 2 6 6 C3.69 8.31 1.38 10.62 -1 13 C-5 11 -5 11 -8 8 C-5.36 5.36 -2.72 2.72 0 0 Z " fill="#DEECFD" transform="translate(28,10)"/>
<path d="M0 0 C3.875 1.75 3.875 1.75 5 4 C5.125 7.0625 5.125 7.0625 5 10 C4 11 4 11 1.5625 11.1875 C-1 11 -1 11 -3 9 C-3.4199362 5.80848491 -3.26924708 4.41508925 -1.5 1.6875 C-1.005 1.130625 -0.51 0.57375 0 0 Z " fill="#B368DC" transform="translate(12,35)"/>
<path d="M0 0 C1.32 0 2.64 0 4 0 C4 4.95 4 9.9 4 15 C2.35 15.33 0.7 15.66 -1 16 C-0.67 10.72 -0.34 5.44 0 0 Z " fill="#FB2D3C" transform="translate(54,40)"/>
<path d="M0 0 C3.3 0 6.6 0 10 0 C10 1.98 10 3.96 10 6 C6.7 6 3.4 6 0 6 C0 4.02 0 2.04 0 0 Z " fill="#2DA7FD" transform="translate(35,18)"/>
<path d="M0 0 C1.32 0 2.64 0 4 0 C4 4.95 4 9.9 4 15 C3.01 15.33 2.02 15.66 1 16 C0.14701624 12.32612505 -0.10789471 8.9552607 -0.0625 5.1875 C-0.05347656 4.21167969 -0.04445312 3.23585937 -0.03515625 2.23046875 C-0.02355469 1.49441406 -0.01195312 0.75835937 0 0 Z " fill="#FB2C3B" transform="translate(41,40)"/>
<path d="M0 0 C1.23556641 0.01740234 1.23556641 0.01740234 2.49609375 0.03515625 C3.32238281 0.04417969 4.14867187 0.05320312 5 0.0625 C5.63808594 0.07410156 6.27617188 0.08570312 6.93359375 0.09765625 C6.93359375 2.07765625 6.93359375 4.05765625 6.93359375 6.09765625 C3.96359375 6.09765625 0.99359375 6.09765625 -2.06640625 6.09765625 C-2.44859392 4.44150968 -2.78035727 2.77308601 -3.06640625 1.09765625 C-2.06640625 0.09765625 -2.06640625 0.09765625 0 0 Z " fill="#30A8FD" transform="translate(51.06640625,17.90234375)"/>
<path d="M0 0 C3.3 0 6.6 0 10 0 C10 1.65 10 3.3 10 5 C6.7 5 3.4 5 0 5 C0 3.35 0 1.7 0 0 Z " fill="#F04D5B" transform="translate(35,33)"/>
<path d="M0 0 C3.3 0 6.6 0 10 0 C10 1.65 10 3.3 10 5 C7.03 5 4.06 5 1 5 C0.67 3.35 0.34 1.7 0 0 Z " fill="#F14E5B" transform="translate(48,33)"/>
<path d="M0 0 C2 1.375 2 1.375 4 3 C4 3.66 4 4.32 4 5 C5.32 5.66 6.64 6.32 8 7 C7.67 7.99 7.34 8.98 7 10 C2.75177626 9.52797514 0.80010291 7.03344482 -2 4 C-1.34 2.68 -0.68 1.36 0 0 Z " fill="#AFA6A7" transform="translate(30,6)"/>
<path d="M0 0 C1.875 0.8125 1.875 0.8125 2.875 2.8125 C-3.26785714 8.38392857 -3.26785714 8.38392857 -8.125 8.8125 C-3.85381356 -0.34004237 -3.85381356 -0.34004237 0 0 Z " fill="#C083E5" transform="translate(21.125,19.1875)"/>
<path d="M0 0 C1.98 0 3.96 0 6 0 C6 2.31 6 4.62 6 7 C4.02 7 2.04 7 0 7 C0 4.69 0 2.38 0 0 Z " fill="#D7ECFE" transform="translate(48,26)"/>
<path d="M0 0 C1.98 0 3.96 0 6 0 C6 2.31 6 4.62 6 7 C4.02 7 2.04 7 0 7 C0 4.69 0 2.38 0 0 Z " fill="#D8ECFD" transform="translate(35,26)"/>
<path d="M0 0 C0.99 1.32 1.98 2.64 3 4 C0.69 6.31 -1.62 8.62 -4 11 C-5.32 10.34 -6.64 9.68 -8 9 C-6.8553125 7.88625 -6.8553125 7.88625 -5.6875 6.75 C-3.5606298 4.5736677 -1.7440044 2.47832204 0 0 Z " fill="#C6E0FD" transform="translate(31,12)"/>
<path d="M0 0 C0.99 0.33 1.98 0.66 3 1 C2.52797514 5.24822374 0.03344482 7.19989709 -3 10 C-3.66 8.35 -4.32 6.7 -5 5 C-3.35 3.35 -1.7 1.7 0 0 Z " fill="#908390" transform="translate(37,1)"/>
<path d="M0 0 C1.5625 1.1875 1.5625 1.1875 3 3 C2.6875 5.6875 2.6875 5.6875 2 8 C1.01 8 0.02 8 -1 8 C-2 7 -2 7 -2.1875 4.5625 C-2 2 -2 2 0 0 Z " fill="#BE7FE1" transform="translate(11,37)"/>
<path d="M0 0 C1.98 0 3.96 0 6 0 C6 1.65 6 3.3 6 5 C4.02 5 2.04 5 0 5 C0 3.35 0 1.7 0 0 Z " fill="#CDBFBA" transform="translate(59,58)"/>
<path d="M0 0 C1.32 0 2.64 0 4 0 C4 2.64 4 5.28 4 8 C2.68 8 1.36 8 0 8 C0 5.36 0 2.72 0 0 Z " fill="#FB5C69" transform="translate(36,52)"/>
<path d="M0 0 C1.32 0 2.64 0 4 0 C4 2.31 4 4.62 4 7 C2.68 7 1.36 7 0 7 C0 4.69 0 2.38 0 0 Z " fill="#C4E2FF" transform="translate(41,26)"/>
<path d="M0 0 C1.65 0 3.3 0 5 0 C5 1.65 5 3.3 5 5 C3.35 5 1.7 5 0 5 C0 3.35 0 1.7 0 0 Z " fill="#0E98FC" transform="translate(51,18)"/>
<path d="M0 0 C1.65 0 3.3 0 5 0 C5 1.32 5 2.64 5 4 C3.35 4 1.7 4 0 4 C0 2.68 0 1.36 0 0 Z " fill="#DDD8E9" transform="translate(31,52)"/>
<path d="M0 0 C1.32 0 2.64 0 4 0 C4 1.65 4 3.3 4 5 C2.68 5 1.36 5 0 5 C0 3.35 0 1.7 0 0 Z " fill="#0E98FC" transform="translate(38,18)"/>
</svg>
