<svg width="162" height="56" viewBox="0 0 162 56" fill="none" xmlns="http://www.w3.org/2000/svg">
<path d="M161.951 23.8845C161.951 23.8845 161.993 23.8148 161.993 23.773V1.60299C161.993 0.717859 161.269 0 160.386 0H138.186L134.04 4.14686L129.894 0H107.701C106.817 0 106.094 0.717859 106.094 1.60299V23.773C106.094 23.8078 106.115 23.8566 106.135 23.8845L110.136 27.885C110.198 27.9408 110.198 28.0453 110.136 28.1011L106.135 32.1085C106.135 32.1085 106.094 32.1782 106.094 32.22V54.39C106.094 55.2752 106.817 56 107.701 56H129.901L134.047 51.8462L138.193 56H160.393C161.276 56 162 55.2752 162 54.39V32.22C162 32.1852 161.979 32.1364 161.958 32.1085L157.965 28.108C157.902 28.0523 157.902 27.9477 157.965 27.892L161.958 23.8915L161.951 23.8845ZM154.41 48.4032H113.67V7.5898H154.41V48.4032Z" fill="#23C5B3"/>
<path d="M85.6658 14.8244V27.0977C85.6658 27.8434 85.0605 28.4498 84.3161 28.4498H82.8412V31.2794H84.6987C86.7998 31.2794 88.4972 29.5788 88.4972 27.4741V14.8244H85.6658Z" fill="#233567"/>
<path d="M30.2953 29.5998C29.3839 29.5998 28.6465 30.3385 28.6465 31.2515C28.6465 32.1645 29.3839 32.9033 30.2953 32.9033C31.2066 32.9033 31.9441 32.1645 31.9441 31.2515C31.9441 30.3385 31.2066 29.5998 30.2953 29.5998Z" fill="#233567"/>
<path d="M7.74074 15.0195C8.6521 15.0195 9.38954 14.2808 9.38954 13.3678C9.38954 12.4548 8.6521 11.716 7.74074 11.716C6.82937 11.716 6.09193 12.4548 6.09193 13.3678C6.09193 14.2808 6.82937 15.0195 7.74074 15.0195Z" fill="#233567"/>
<path d="M34.2816 29.5998C33.3702 29.5998 32.6328 30.3385 32.6328 31.2515C32.6328 32.1645 33.3702 32.9033 34.2816 32.9033C35.193 32.9033 35.9304 32.1645 35.9304 31.2515C35.9304 30.3385 35.193 29.5998 34.2816 29.5998Z" fill="#233567"/>
<path d="M72.6423 29.5998C71.731 29.5998 70.9935 30.3385 70.9935 31.2515C70.9935 32.1645 71.731 32.9033 72.6423 32.9033C73.5537 32.9033 74.2911 32.1645 74.2911 31.2515C74.2911 30.3385 73.5537 29.5998 72.6423 29.5998Z" fill="#233567"/>
<path d="M76.6356 29.5998C75.7243 29.5998 74.9868 30.3385 74.9868 31.2515C74.9868 32.1645 75.7243 32.9033 76.6356 32.9033C77.547 32.9033 78.2844 32.1645 78.2844 31.2515C78.2844 30.3385 77.547 29.5998 76.6356 29.5998Z" fill="#233567"/>
<path d="M66.715 4.87891H50.2896V7.70853H66.715V4.87891Z" fill="#233567"/>
<path d="M78.0548 22.8672C78.0548 23.6129 77.4496 24.2193 76.7052 24.2193H65.2053V18.7064C65.2053 17.4798 64.7601 16.281 64.0018 15.3123C63.8974 15.1798 63.7861 15.0544 63.6748 14.9289C62.9373 14.1065 61.7686 13.6326 60.6972 13.4444C60.5163 13.4166 60.3424 13.3956 60.1615 13.3817C60.0641 13.3817 51.7784 13.3817 51.7784 13.3817V24.2263H37.127C36.3826 24.2263 35.7843 23.6269 35.7773 22.8811V14.7965H32.9458V22.8672C32.9458 23.6199 32.3406 24.2263 31.5892 24.2263H16.5135C15.7691 24.2263 15.1569 23.6199 15.1569 22.8742V15.9325H12.3323V22.679C12.3323 26.0801 10.7601 27.5159 9.4452 28.1222C8.13033 28.7286 6.41196 28.7286 5.13187 28.0246C3.69178 27.2371 3.14218 25.4877 2.94043 23.9545C2.68302 21.9263 2.96826 19.9052 3.12827 17.884C3.12827 17.884 0.359392 17.654 0.310694 17.654C0.234167 17.654 0.0741567 20.7067 0.0602428 20.9367C-0.0580257 22.7766 -0.0510688 24.5956 0.540274 26.3729C1.08987 28.0177 2.11951 29.5579 3.62917 30.4222C4.58923 30.9727 5.7093 31.2236 6.81546 31.2585C9.98088 31.3491 12.9585 30.004 14.1412 26.9304C14.3429 26.4077 14.482 25.8502 14.5725 25.2926C15.2473 26.3589 16.43 27.0629 17.7796 27.0629H31.9649C33.3215 27.0629 34.5042 26.345 35.179 25.2787C35.8539 26.345 37.0365 27.0559 39.2489 27.0559H52.0497C53.2115 26.9235 54.2133 26.2544 54.8116 25.3065C55.4099 26.2614 56.4187 26.9235 58.1927 27.0559H77.9157C79.154 27.0559 80.8585 25.3553 80.8585 23.2505V14.7965H78.034V22.8742L78.0548 22.8672ZM54.9438 24.0729V16.4831H60.4328C60.8224 16.4831 61.1216 16.5598 61.3929 16.7062C61.866 16.971 62.1582 17.4867 62.1582 18.0304V24.0729H54.9438Z" fill="#233567"/>
<path d="M40.5209 40.8723C40.6468 40.8723 40.7526 40.9192 40.8382 41.0077C40.9238 41.0962 40.9641 41.2056 40.9742 41.3306C40.9742 41.4556 40.9289 41.5649 40.8432 41.6534C40.7576 41.742 40.6518 41.7888 40.5309 41.794H40.0827C39.8358 41.794 39.6042 41.7316 39.3926 41.6014C39.181 41.4712 39.0148 41.2993 38.8939 41.0806C38.7327 41.2993 38.5262 41.4764 38.2744 41.6014C38.0225 41.7316 37.7556 41.794 37.4735 41.794C37.1209 41.794 36.7935 41.7055 36.4913 41.5285C36.1841 41.3514 35.9423 41.1066 35.766 40.8046C35.5897 40.5026 35.499 40.1693 35.499 39.8047V39.5287C35.499 39.1434 35.5847 38.7945 35.7559 38.4924C35.9272 38.1904 36.1639 37.9508 36.4661 37.7842C36.7633 37.6123 37.1008 37.529 37.4785 37.529H39.4732L39.4833 40.2526C39.4833 40.4349 39.5387 40.5859 39.6444 40.7057C39.7502 40.8202 39.9013 40.8775 40.0877 40.8775H40.5259L40.5209 40.8723ZM37.4735 40.8723C37.675 40.8723 37.8614 40.8202 38.0326 40.7161C38.2039 40.6119 38.3348 40.4713 38.4356 40.2943C38.5313 40.1172 38.5816 39.9245 38.5816 39.7162V38.456L37.4785 38.4456C37.2871 38.4403 37.1109 38.482 36.9396 38.5705C36.7683 38.6591 36.6323 38.7841 36.5316 38.9507C36.4258 39.1121 36.3754 39.3048 36.3754 39.5183V39.7579C36.3754 39.961 36.4258 40.1484 36.5266 40.3151C36.6273 40.4869 36.7633 40.6171 36.9346 40.7161C37.1058 40.815 37.2871 40.8619 37.4836 40.8619L37.4735 40.8723ZM37.136 35.6595C37.2871 35.6595 37.4131 35.7116 37.5188 35.8209C37.6246 35.9303 37.68 36.0605 37.68 36.2115C37.68 36.3625 37.6246 36.4979 37.5188 36.6073C37.4131 36.7166 37.2821 36.7739 37.136 36.7739C36.99 36.7739 36.859 36.7166 36.7532 36.6073C36.6474 36.4979 36.5921 36.3625 36.5921 36.2115C36.5921 36.0605 36.6474 35.9355 36.7532 35.8209C36.859 35.7116 36.99 35.6543 37.136 35.6543V35.6595ZM38.5867 35.6595C38.7378 35.6595 38.8637 35.7168 38.9745 35.8261C39.0853 35.9355 39.1407 36.0657 39.1407 36.2167C39.1407 36.3677 39.0853 36.5031 38.9745 36.6125C38.8637 36.7218 38.7378 36.7791 38.5867 36.7791C38.4356 36.7791 38.3096 36.7218 38.2089 36.6125C38.1031 36.5031 38.0528 36.3677 38.0528 36.2167C38.0528 36.0657 38.1082 35.9303 38.214 35.8261C38.3197 35.7168 38.4457 35.6647 38.5917 35.6647L38.5867 35.6595ZM43.9158 40.8723C44.0417 40.8723 44.1475 40.914 44.2331 41.0025C44.3187 41.091 44.3641 41.1952 44.3641 41.3306C44.3641 41.466 44.3187 41.5701 44.2281 41.6586C44.1374 41.7472 44.0316 41.794 43.9108 41.794H43.2912C43.0796 41.794 42.8782 41.7472 42.6868 41.6534C42.4954 41.5597 42.3342 41.4347 42.2032 41.2733C42.0773 41.4347 41.9262 41.5597 41.7448 41.6534C41.5686 41.7472 41.3721 41.794 41.1656 41.794H40.4655C40.3345 41.794 40.2237 41.7472 40.133 41.6586C40.0424 41.5701 39.997 41.4608 39.997 41.3306C39.997 41.2004 40.0424 41.091 40.133 41.0025C40.2237 40.914 40.3345 40.8723 40.4655 40.8723H41.0699C41.2412 40.8723 41.3923 40.8046 41.5132 40.6744C41.6391 40.5442 41.6995 40.388 41.6995 40.2005V38.2997H42.5961V40.2109C42.6112 40.3932 42.6868 40.5494 42.8228 40.6796C42.9537 40.8098 43.1099 40.8723 43.2912 40.8723H43.9108H43.9158ZM41.357 42.6064C41.5081 42.6064 41.634 42.6637 41.7398 42.7731C41.8456 42.8824 41.901 43.0126 41.901 43.1636C41.901 43.3147 41.8456 43.4501 41.7398 43.5594C41.634 43.6688 41.5031 43.7261 41.357 43.7261C41.2109 43.7261 41.08 43.6688 40.9742 43.5594C40.8684 43.4501 40.813 43.3147 40.813 43.1636C40.813 43.0126 40.8684 42.8876 40.9792 42.7731C41.09 42.6637 41.216 42.6064 41.357 42.6064ZM42.8328 42.6064C42.9839 42.6064 43.1099 42.6637 43.2207 42.7731C43.3315 42.8824 43.3869 43.0126 43.3869 43.1636C43.3869 43.3147 43.3315 43.4501 43.2207 43.5594C43.1099 43.6688 42.9839 43.7261 42.8328 43.7261C42.6817 43.7261 42.5558 43.6688 42.4551 43.5594C42.3493 43.4501 42.2989 43.3147 42.2989 43.1636C42.2989 43.0126 42.3543 42.8876 42.4601 42.7731C42.5659 42.6637 42.6918 42.6064 42.8379 42.6064H42.8328ZM43.8805 41.794C43.7546 41.794 43.6488 41.7472 43.5632 41.6586C43.4776 41.5701 43.4322 41.4608 43.4322 41.3358C43.4322 41.2108 43.4776 41.0962 43.5632 41.0077C43.6488 40.9192 43.7546 40.8723 43.8805 40.8723H44.3641C44.485 40.8723 44.5907 40.8254 44.6814 40.7369C44.7721 40.6484 44.8174 40.539 44.8174 40.4088V35.571H45.7089V40.4088C45.7089 40.6588 45.6485 40.8879 45.5327 41.1014C45.4168 41.3149 45.2556 41.4816 45.0491 41.6066C44.8426 41.7316 44.621 41.794 44.3792 41.794H43.8856H43.8805ZM49.673 40.8723C49.799 40.8723 49.9047 40.9192 49.9904 41.0077C50.076 41.0962 50.1213 41.2056 50.1213 41.3358C50.1213 41.466 50.076 41.5753 49.9904 41.6639C49.9047 41.7524 49.799 41.794 49.673 41.794H49.4161C49.255 41.794 49.1039 41.7628 48.9628 41.7055C48.8218 41.6482 48.7059 41.5649 48.6153 41.4556L48.6052 41.8461C48.5699 42.4294 48.3785 42.8928 48.036 43.2366C47.6885 43.5803 47.2402 43.8042 46.6911 43.9083L46.3738 43.0335C46.6911 42.9658 46.943 42.8876 47.1394 42.7887C47.3308 42.6898 47.4769 42.5491 47.5777 42.3669C47.6784 42.1846 47.7288 41.9451 47.7288 41.6378V37.5498H48.6203V40.0391C48.6203 40.263 48.7009 40.4609 48.857 40.6223C49.0132 40.7838 49.2046 40.8671 49.4212 40.8671H49.6781L49.673 40.8723ZM48.1619 35.6335C48.308 35.6335 48.4339 35.6907 48.5397 35.8001C48.6505 35.9095 48.7059 36.0396 48.7059 36.1907C48.7059 36.3417 48.6505 36.4771 48.5447 36.5864C48.439 36.6958 48.308 36.7531 48.1619 36.7531C48.0159 36.7531 47.8849 36.6958 47.7791 36.5864C47.6734 36.4771 47.6179 36.3417 47.6179 36.1907C47.6179 36.0396 47.6734 35.9147 47.7791 35.8001C47.8849 35.6907 48.0159 35.6335 48.1619 35.6335ZM52.5391 40.8723C52.66 40.8723 52.7657 40.914 52.8514 41.0025C52.937 41.091 52.9823 41.1952 52.9823 41.3306C52.9823 41.466 52.937 41.5701 52.8463 41.6586C52.7556 41.7472 52.6499 41.794 52.529 41.794H52.2016C51.99 41.794 51.7885 41.7472 51.5971 41.6534C51.4057 41.5597 51.2446 41.4347 51.1136 41.2733C50.9877 41.4347 50.8366 41.5597 50.6552 41.6534C50.4789 41.7472 50.2825 41.794 50.076 41.794H49.6781C49.5471 41.794 49.4363 41.7524 49.3456 41.6639C49.255 41.5753 49.2096 41.4712 49.2096 41.3358C49.2096 41.2004 49.255 41.0962 49.3456 41.0077C49.4363 40.9192 49.5471 40.8723 49.6781 40.8723H49.9702C50.1465 40.8723 50.2976 40.8046 50.4235 40.6744C50.5495 40.5442 50.6099 40.388 50.6099 40.2005V38.4039H51.5065V40.2057C51.5216 40.388 51.5971 40.5442 51.7331 40.6744C51.8641 40.8046 52.0202 40.8671 52.2016 40.8671H52.5391V40.8723ZM51.0733 36.3104C51.2244 36.3104 51.3503 36.3625 51.4561 36.4719C51.5619 36.5812 51.6173 36.7114 51.6173 36.8624C51.6173 37.0135 51.5619 37.1489 51.4561 37.2582C51.3503 37.3676 51.2194 37.4249 51.0733 37.4249C50.9272 37.4249 50.7963 37.3676 50.6905 37.2582C50.5847 37.1489 50.5293 37.0135 50.5293 36.8624C50.5293 36.7114 50.5847 36.5864 50.6905 36.4719C50.7963 36.3625 50.9272 36.3052 51.0733 36.3052V36.3104ZM58.1502 40.8723C58.2761 40.8723 58.3819 40.9192 58.4676 41.0077C58.5532 41.0962 58.5985 41.2056 58.5985 41.3358C58.5985 41.466 58.5532 41.5701 58.4676 41.6586C58.3819 41.7472 58.2761 41.794 58.1502 41.794H57.848C57.6113 41.794 57.3947 41.7316 57.1982 41.6014C57.0018 41.4712 56.8557 41.3097 56.76 41.1066C56.5988 41.3202 56.3974 41.4868 56.1556 41.6118C55.9138 41.7316 55.6569 41.794 55.3799 41.794C55.0726 41.794 54.8007 41.7316 54.5488 41.6118C54.302 41.492 54.0904 41.3149 53.9192 41.091C53.7983 41.3045 53.6321 41.4764 53.4205 41.6066C53.209 41.7368 52.9823 41.7993 52.7355 41.7993H52.4081C52.2872 41.794 52.1814 41.7472 52.0958 41.6586C52.0102 41.5701 51.9648 41.4608 51.9648 41.3358C51.9648 41.2108 52.0102 41.1014 52.0958 41.0129C52.1814 40.9244 52.2872 40.8775 52.4081 40.8775H52.7355C52.9118 40.8775 53.0579 40.8202 53.1737 40.7057C53.2845 40.5911 53.3399 40.4401 53.3399 40.2526V37.529H55.3799C55.7274 37.529 56.0498 37.6175 56.347 37.7946C56.6442 37.9717 56.886 38.2112 57.0673 38.5133C57.2486 38.8153 57.3443 39.1486 57.3494 39.5027V40.3515C57.3494 40.5026 57.3997 40.6275 57.4954 40.7265C57.5911 40.8254 57.712 40.8775 57.848 40.8775H58.1502V40.8723ZM56.4477 39.5183C56.4377 39.2111 56.3268 38.9559 56.1153 38.7528C55.9037 38.5549 55.6368 38.456 55.3094 38.456H54.2365V39.7943C54.2365 39.9922 54.2869 40.1693 54.3826 40.3359C54.4783 40.4974 54.6093 40.6327 54.7755 40.7265C54.9417 40.8254 55.118 40.8723 55.3043 40.8723C55.6368 40.8671 55.9138 40.7577 56.1254 40.5442C56.3369 40.3307 56.4427 40.0703 56.4427 39.7527V39.5131L56.4477 39.5183ZM58.0545 41.794C57.9286 41.794 57.8228 41.7472 57.7372 41.6586C57.6516 41.5701 57.6062 41.4608 57.6062 41.3358C57.6062 41.2108 57.6516 41.0962 57.7372 41.0077C57.8228 40.9192 57.9286 40.8723 58.0545 40.8723H58.5381C58.659 40.8723 58.7647 40.8254 58.8554 40.7369C58.9461 40.6484 58.9914 40.539 58.9914 40.4088V35.571H59.8829V40.4088C59.8829 40.6588 59.8225 40.8879 59.7066 41.1014C59.5908 41.3149 59.4296 41.4816 59.2231 41.6066C59.0166 41.7316 58.795 41.794 58.5532 41.794H58.0596H58.0545ZM61.3991 35.5449H62.2906V41.794H61.3991V35.5449ZM70.3699 40.8723C70.4958 40.8723 70.6016 40.9192 70.6872 41.0077C70.7729 41.0962 70.8131 41.2056 70.8232 41.3306C70.8232 41.4556 70.7779 41.5649 70.6922 41.6534C70.6066 41.742 70.5008 41.7888 70.38 41.794H69.9317C69.6849 41.794 69.4532 41.7316 69.2416 41.6014C69.0301 41.4712 68.8638 41.2993 68.743 41.0806C68.5818 41.2993 68.3753 41.4764 68.1234 41.6014C67.8716 41.7316 67.6046 41.794 67.3225 41.794C66.9699 41.794 66.6425 41.7055 66.3403 41.5285C66.0331 41.3514 65.7913 41.1066 65.615 40.8046C65.4387 40.5026 65.348 40.1693 65.348 39.8047V39.5287C65.348 39.1434 65.4337 38.7945 65.6049 38.4924C65.7762 38.1904 66.0129 37.9508 66.3151 37.7842C66.6123 37.6123 66.9498 37.529 67.3276 37.529H69.3222L69.3323 40.2526C69.3323 40.4349 69.3877 40.5859 69.4935 40.7057C69.5992 40.8202 69.7503 40.8775 69.9367 40.8775H70.3749L70.3699 40.8723ZM67.3225 40.8723C67.524 40.8723 67.7104 40.8202 67.8816 40.7161C68.0529 40.6119 68.1838 40.4713 68.2846 40.2943C68.3803 40.1172 68.4307 39.9245 68.4307 39.7162V38.456L67.3276 38.4456C67.1362 38.4403 66.9599 38.482 66.7886 38.5705C66.6173 38.6591 66.4814 38.7841 66.3806 38.9507C66.2748 39.1121 66.2245 39.3048 66.2245 39.5183V39.7579C66.2245 39.961 66.2748 40.1484 66.3756 40.3151C66.4763 40.4869 66.6123 40.6171 66.7836 40.7161C66.9548 40.815 67.1362 40.8619 67.3326 40.8619L67.3225 40.8723ZM66.9851 35.6595C67.1362 35.6595 67.2621 35.7116 67.3679 35.8209C67.4736 35.9303 67.529 36.0605 67.529 36.2115C67.529 36.3625 67.4736 36.4979 67.3679 36.6073C67.2621 36.7166 67.1311 36.7739 66.9851 36.7739C66.839 36.7739 66.708 36.7166 66.6022 36.6073C66.4965 36.4979 66.4411 36.3625 66.4411 36.2115C66.4411 36.0605 66.4965 35.9355 66.6022 35.8209C66.708 35.7116 66.839 35.6543 66.9851 35.6543V35.6595ZM68.4357 35.6595C68.5868 35.6595 68.7127 35.7168 68.8235 35.8261C68.9344 35.9355 68.9898 36.0657 68.9898 36.2167C68.9898 36.3677 68.9344 36.5031 68.8235 36.6125C68.7127 36.7218 68.5868 36.7791 68.4357 36.7791C68.2846 36.7791 68.1587 36.7218 68.0579 36.6125C67.9522 36.5031 67.9018 36.3677 67.9018 36.2167C67.9018 36.0657 67.9572 35.9303 68.063 35.8261C68.1687 35.7168 68.2947 35.6647 68.4407 35.6647L68.4357 35.6595ZM70.3095 41.794C70.1835 41.794 70.0727 41.7472 69.9871 41.6534C69.8964 41.5597 69.8511 41.4503 69.8511 41.3254C69.8511 41.2004 69.8964 41.0858 69.9871 40.9973C70.0777 40.9088 70.1835 40.8671 70.3095 40.8671H71.6996C71.8306 40.8671 71.9465 40.8202 72.0371 40.7265C72.1278 40.6327 72.1731 40.513 72.1731 40.3776V37.5498H73.0647V40.3776C73.0647 40.6328 73.0042 40.8671 72.8783 41.0806C72.7524 41.2941 72.5861 41.466 72.3796 41.5962C72.1681 41.7263 71.9414 41.7888 71.6946 41.7888H70.3145L70.3095 41.794ZM71.0348 42.6064C71.1859 42.6064 71.3118 42.6637 71.4176 42.7731C71.5233 42.8824 71.5788 43.0126 71.5788 43.1636C71.5788 43.3147 71.5233 43.4501 71.4176 43.5594C71.3118 43.6688 71.1808 43.7261 71.0348 43.7261C70.8887 43.7261 70.7577 43.6688 70.652 43.5594C70.5462 43.4501 70.4908 43.3147 70.4908 43.1636C70.4908 43.0126 70.5462 42.8876 70.657 42.7731C70.7678 42.6637 70.8937 42.6064 71.0348 42.6064ZM72.5106 42.6064C72.6617 42.6064 72.7876 42.6637 72.8934 42.7731C72.9992 42.8824 73.0546 43.0126 73.0546 43.1636C73.0546 43.3147 72.9992 43.4501 72.8934 43.5594C72.7876 43.6688 72.6567 43.7261 72.5106 43.7261C72.3645 43.7261 72.2336 43.6688 72.1278 43.5594C72.022 43.4501 71.9666 43.3147 71.9666 43.1636C71.9666 43.0126 72.022 42.8876 72.1328 42.7731C72.2436 42.6637 72.3696 42.6064 72.5106 42.6064ZM75.6234 41.794C75.3817 41.794 75.16 41.7316 74.9535 41.6066C74.747 41.4816 74.5858 41.3149 74.47 41.1014C74.3541 40.8879 74.2937 40.6588 74.2937 40.4088V35.5553H75.1852V40.4088C75.1852 40.539 75.2306 40.6484 75.3162 40.7369C75.4018 40.8254 75.5076 40.8723 75.6335 40.8723H76.0214V41.794H75.6234ZM75.8501 41.794V40.8723H76.8525C76.7064 40.7734 76.5956 40.6328 76.5099 40.4557C76.4243 40.2786 76.384 40.086 76.384 39.8724L76.3941 39.4819C76.4042 39.1225 76.4999 38.7997 76.6812 38.4976C76.8625 38.2008 77.0993 37.9612 77.3964 37.7894C77.6936 37.6123 78.011 37.5238 78.3484 37.5238C78.6053 37.5238 78.8622 37.5811 79.109 37.6905C79.3558 37.7998 79.5674 37.9508 79.7437 38.1435C79.92 38.3362 80.0409 38.5549 80.1013 38.7997L79.4465 39.3777C79.3911 39.1225 79.2601 38.9038 79.0687 38.7216C78.8723 38.5393 78.6355 38.4508 78.3535 38.4508C78.0714 38.4508 77.8246 38.5497 77.6181 38.7476C77.4116 38.9455 77.3007 39.1954 77.2806 39.4923V39.8568C77.2806 40.1537 77.3813 40.3984 77.5878 40.5859C77.7944 40.7734 78.0462 40.8671 78.3535 40.8671H80.3985V41.7888H75.8501V41.794ZM84.1712 40.8723C84.292 40.8723 84.3978 40.9192 84.4834 41.0077C84.5691 41.0962 84.6144 41.2056 84.6144 41.3358C84.6144 41.466 84.5691 41.5753 84.4834 41.6639C84.3978 41.7524 84.292 41.794 84.1712 41.794H83.8941C83.738 41.794 83.5869 41.7628 83.4458 41.7003C83.2998 41.6378 83.1839 41.5545 83.0932 41.4556L83.0832 41.8461C83.0479 42.4294 82.8565 42.8928 82.514 43.2366C82.1664 43.5803 81.7182 43.8042 81.1691 43.9083L80.8518 43.0335C81.285 42.9449 81.6174 42.7991 81.8542 42.596C82.0909 42.3929 82.2067 42.0753 82.2067 41.643V37.5551H83.0983V40.0443C83.0983 40.2682 83.1789 40.4661 83.335 40.6275C83.4912 40.789 83.6826 40.8723 83.8992 40.8723H84.1762H84.1712ZM84.1409 41.794C84.015 41.794 83.9092 41.7472 83.8236 41.6586C83.738 41.5701 83.6926 41.4608 83.6926 41.3358C83.6926 41.2108 83.738 41.0962 83.8236 41.0077C83.9092 40.9192 84.015 40.8723 84.1409 40.8723H84.6245C84.7454 40.8723 84.8511 40.8254 84.9418 40.7369C85.0325 40.6484 85.0778 40.539 85.0778 40.4088V35.571H85.9694V40.4088C85.9694 40.6588 85.9089 40.8879 85.7931 41.1014C85.6772 41.3149 85.516 41.4816 85.3095 41.6066C85.103 41.7316 84.8814 41.794 84.6396 41.794H84.146H84.1409ZM87.4804 35.5449H88.372V41.794H87.4804V35.5449Z" fill="#23C5B3"/>
</svg>
