<svg width="71" height="118" viewBox="0 0 71 118" fill="none" xmlns="http://www.w3.org/2000/svg">
<path d="M37.1844 0.0215601C41.1953 0.023123 44.7626 0.0786684 48.3271 0.00166327C49.9381 -0.0331289 51.184 0.476876 52.2786 1.62961C53.8113 3.24382 55.4039 4.80248 57.0004 6.35471C57.7203 7.05459 58.5113 7.68151 59.3686 8.42729C61.6092 7.09919 63.0603 5.19407 64.7449 3.5703C68.8762 -0.411752 67.5267 0.0402336 73.2497 0.0291709C85.8798 0.00480251 98.51 0.0205272 111.14 0.0232317C112.329 0.02349 113.525 -0.0357929 114.704 0.0775266C117.277 0.324973 118.385 1.50883 118.556 4.06206C118.596 4.65299 118.573 5.24833 118.573 5.84164C118.573 19.4885 118.515 33.1359 118.624 46.7819C118.645 49.3678 117.93 51.2925 116.004 53.0029C114.024 54.7618 112.267 56.772 110.284 58.8039C111.066 59.7862 111.637 60.6226 112.327 61.3469C113.76 62.8518 115.203 64.3545 116.74 65.7496C118.042 66.9305 118.609 68.2526 118.602 70.041C118.548 84.281 118.571 98.5213 118.567 112.762C118.567 113.354 118.574 113.953 118.498 114.538C118.252 116.429 117.256 117.551 115.429 117.831C114.409 117.987 113.355 117.949 112.316 117.95C98.7947 117.956 85.2726 117.902 71.7516 118C69.1805 118.018 67.1769 117.396 65.492 115.416C64.1497 113.839 62.5921 112.44 61.0862 111.009C60.5718 110.519 59.9244 110.17 59.1002 109.589C57.0091 111.66 54.9079 113.531 53.0664 115.629C51.4372 117.485 49.565 118.012 47.1648 117.996C33.6437 117.908 20.1214 117.91 6.60009 117.979C2.23156 118.001 -0.0124689 117.688 0.021185 111.526C0.0949185 98.0281 0.0886833 84.529 0.000219388 71.031C-0.0147561 68.7422 0.736548 67.1016 2.37611 65.5855C4.53816 63.5861 6.5245 61.3974 8.61012 59.2659C7.44636 56.9891 5.61506 55.6676 4.09385 54.0958C-0.615925 49.2293 0.0762674 50.9871 0.053777 44.4718C0.0117642 32.3085 0.0386382 20.1448 0.0460442 7.9813C0.0468338 6.64791 -0.00394653 5.30034 0.164459 3.98422C0.494273 1.40643 1.65411 0.308297 4.20078 0.0757462C5.38051 -0.0319874 6.57615 0.0236259 7.7646 0.0232453C17.423 0.0202417 27.0813 0.0215193 37.1844 0.0215601ZM32.2836 102.103C35.7015 102.103 39.1193 102.103 42.5371 102.103C60.8152 102.103 79.0933 102.115 97.3712 102.08C98.949 102.077 100.627 102.503 102.382 101.404C102.409 99.8713 102.463 98.2616 102.463 96.6519C102.468 71.7295 102.467 46.8071 102.466 21.8848C102.466 20.8464 102.531 19.8015 102.435 18.7716C102.359 17.9485 102.085 17.1436 101.853 16.1284C100.028 16.1284 98.4027 16.1284 96.7775 16.1284C72.8525 16.1284 48.9276 16.1282 25.0026 16.1289C23.0708 16.129 21.1376 16.0935 19.2079 16.1596C18.3628 16.1885 17.525 16.4316 16.7883 16.5593C15.9281 20.613 15.5742 73.6021 16.2032 98.5897C16.2283 99.5856 16.4539 100.577 16.564 101.404C17.0699 101.679 17.3241 101.936 17.5822 101.94C22.1852 102.012 26.7887 102.054 32.2836 102.103Z" fill="#4D79B6"/>
</svg>
