<svg width="36" height="73" viewBox="0 0 36 73" fill="none" xmlns="http://www.w3.org/2000/svg">
<path d="M-14.1172 0.0132678C-11.6489 0.0142296 -9.45363 0.0484116 -7.26009 0.00102356C-6.26868 -0.0203871 -5.50199 0.293464 -4.8284 1.00284C-3.88517 1.99621 -2.90508 2.95539 -1.9226 3.91061C-1.47961 4.34131 -0.992825 4.72711 -0.465248 5.18605C0.913555 4.36876 1.80654 3.19637 2.84324 2.19712C5.38562 -0.253388 4.55515 0.0247592 8.07697 0.0179514C15.8494 0.00295541 23.6219 0.0126322 31.3944 0.0142965C32.1257 0.0144555 32.862 -0.0220265 33.5874 0.0477089C35.1711 0.199984 35.853 0.928517 35.9582 2.49974C35.9826 2.86339 35.9682 3.22976 35.9682 3.59488C35.9685 11.993 35.9326 20.3914 35.9997 28.789C36.0124 30.3803 35.5728 31.5648 34.3876 32.6174C33.1689 33.6997 32.088 34.9368 30.8676 36.1872C31.3485 36.7917 31.7002 37.3064 32.1246 37.7521C33.0063 38.6782 33.8943 39.603 34.8405 40.4615C35.6414 41.1883 35.9906 42.0018 35.9864 43.1024C35.9528 51.8655 35.9675 60.6288 35.9648 69.3921C35.9647 69.7567 35.9691 70.125 35.9223 70.4853C35.7709 71.6493 35.1581 72.3392 34.0336 72.5115C33.406 72.6077 32.7573 72.5844 32.1182 72.5848C23.7971 72.5888 15.4757 72.5553 7.15507 72.6155C5.57283 72.627 4.33987 72.2441 3.30299 71.0258C2.47696 70.0552 1.51841 69.1945 0.591709 68.3133C0.275192 68.0123 -0.12323 67.7972 -0.630428 67.4397C-1.91726 68.7144 -3.21032 69.8656 -4.34359 71.1566C-5.34614 72.2987 -6.49827 72.6231 -7.97533 72.6135C-16.2961 72.5594 -24.6175 72.5605 -32.9384 72.6027C-35.6267 72.6163 -37.0077 72.4238 -36.987 68.6319C-36.9416 60.3253 -36.9454 52.0181 -36.9999 43.7116C-37.0091 42.3031 -36.5467 41.2935 -35.5378 40.3605C-34.2073 39.1301 -32.9849 37.7832 -31.7014 36.4715C-32.4176 35.0704 -33.5446 34.2572 -34.4807 33.2899C-37.379 30.2951 -36.9531 31.3768 -36.9669 27.3674C-36.9928 19.8822 -36.9762 12.3969 -36.9717 4.91159C-36.9712 4.09104 -37.0024 3.26177 -36.8988 2.45184C-36.6958 0.865497 -35.9821 0.189722 -34.4149 0.0466133C-33.6889 -0.0196847 -32.9531 0.0145391 -32.2218 0.0143049C-26.2781 0.0124565 -20.3345 0.0132427 -14.1172 0.0132678ZM-17.133 62.8327C-15.0298 62.8327 -12.9265 62.8327 -10.8232 62.8327C0.424938 62.8326 11.673 62.8405 22.9211 62.8187C23.892 62.8168 24.9245 63.0789 26.0044 62.4027C26.0213 61.4596 26.0543 60.469 26.0545 59.4784C26.0578 44.1415 26.0569 28.8046 26.0566 13.4676C26.0566 12.8286 26.0961 12.1856 26.0375 11.5518C25.9906 11.0453 25.8222 10.55 25.6792 9.92524C24.5561 9.92524 23.5559 9.92525 22.5557 9.92525C7.83257 9.92525 -6.89056 9.92508 -21.6137 9.92553C-22.8025 9.92557 -23.9922 9.90375 -25.1797 9.94441C-25.6998 9.96224 -26.2153 10.1118 -26.6687 10.1904C-27.1981 12.685 -27.4158 45.2939 -27.0287 60.6709C-27.0133 61.2838 -26.8745 61.8936 -26.8067 62.4028C-26.4954 62.572 -26.339 62.73 -26.1801 62.7325C-23.3475 62.7771 -20.5146 62.8029 -17.133 62.8327Z" fill="white" fill-opacity="0.2"/>
</svg>
