<svg width="37" height="72" viewBox="0 0 37 72" fill="none" xmlns="http://www.w3.org/2000/svg">
<path d="M22.8828 0.0131553C25.3511 0.0141089 27.5464 0.048001 29.7399 0.00101488C30.7313 -0.0202143 31.498 0.290975 32.1716 0.99434C33.1148 1.97928 34.0949 2.93033 35.0774 3.87745C35.5204 4.30449 36.0072 4.68702 36.5348 5.14207C37.9136 4.33171 38.8065 3.16927 39.8432 2.17849C42.3856 -0.251239 41.5551 0.0245493 45.077 0.0177992C52.8494 0.00293034 60.6219 0.0125251 68.3944 0.0141753C69.1257 0.0143329 69.862 -0.0218397 70.5874 0.0473044C72.1711 0.198288 72.853 0.920643 72.9582 2.47855C72.9826 2.83911 72.9682 3.20237 72.9682 3.56439C72.9685 11.8913 72.9326 20.2185 72.9997 28.5449C73.0124 30.1227 72.5728 31.2971 71.3876 32.3408C70.1689 33.414 69.088 34.6405 67.8676 35.8804C68.3485 36.4797 68.7002 36.99 69.1246 37.432C70.0063 38.3502 70.8943 39.2671 71.8405 40.1184C72.6414 40.839 72.9906 41.6456 72.9864 42.7369C72.9528 51.4257 72.9675 60.1147 72.9648 68.8036C72.9647 69.1652 72.9691 69.5304 72.9223 69.8876C72.7709 71.0417 72.1581 71.7258 71.0336 71.8966C70.406 71.992 69.7573 71.9689 69.1182 71.9693C60.7971 71.9732 52.4757 71.94 44.1551 71.9998C42.5728 72.0111 41.3399 71.6315 40.303 70.4235C39.477 69.4612 38.5184 68.6078 37.5917 67.734C37.2752 67.4356 36.8768 67.2222 36.3696 66.8679C35.0827 68.1317 33.7897 69.2732 32.6564 70.5532C31.6539 71.6856 30.5017 72.0072 29.0247 71.9977C20.7039 71.9441 12.3825 71.9452 4.06161 71.987C1.37328 72.0005 -0.00767322 71.8097 0.013037 68.0499C0.0584117 59.8137 0.0545746 51.577 0.000135009 43.3409C-0.00908074 41.9444 0.453263 40.9433 1.46223 40.0183C2.79273 38.7983 4.0151 37.4628 5.29856 36.1622C4.5824 34.773 3.45544 33.9667 2.51931 33.0076C-0.379033 30.0382 0.046934 31.1108 0.0330937 27.1354C0.00723955 19.7136 0.0237775 12.2918 0.0283351 4.86994C0.028821 4.05635 -0.00242865 3.23411 0.101206 2.43105C0.30417 0.858158 1.01792 0.188113 2.58511 0.046218C3.3111 -0.0195177 4.04689 0.0144158 4.77824 0.0141836C10.7219 0.0123509 16.6655 0.0131304 22.8828 0.0131553ZM19.867 62.2998C21.9702 62.2998 24.0735 62.2998 26.1768 62.2998C37.4249 62.2998 48.673 62.3076 59.9211 62.286C60.892 62.2841 61.9245 62.544 63.0044 61.8736C63.0213 60.9384 63.0543 59.9562 63.0545 58.974C63.0578 43.7672 63.0569 28.5603 63.0566 13.3534C63.0566 12.7198 63.0961 12.0823 63.0375 11.4538C62.9906 10.9516 62.8222 10.4605 62.6792 9.84108C61.5561 9.84108 60.5559 9.84109 59.5557 9.84109C44.8326 9.84109 30.1094 9.84091 15.3863 9.84136C14.1975 9.8414 13.0078 9.81977 11.8203 9.86009C11.3002 9.87776 10.7847 10.026 10.3313 10.104C9.80194 12.5774 9.58417 44.9098 9.97128 60.1564C9.98669 60.7641 10.1255 61.3688 10.1933 61.8736C10.5046 62.0414 10.661 62.1981 10.8199 62.2005C13.6525 62.2448 16.4854 62.2703 19.867 62.2998Z" fill="white" fill-opacity="0.2"/>
</svg>
