<?xml version="1.0" encoding="UTF-8"?>
<svg version="1.1" xmlns="http://www.w3.org/2000/svg" width="65" height="74">
<path d="M0 0 C1.75905042 0.99604073 3.51570431 1.99571367 5.26782227 3.00390625 C7.07948317 4.04207928 8.90153425 5.06016178 10.72460938 6.078125 C11.86736328 6.73296875 13.01011719 7.3878125 14.1875 8.0625 C15.23333252 8.65724121 16.27916504 9.25198242 17.35668945 9.86474609 C19.76171875 11.6640625 19.76171875 11.6640625 20.61010742 13.88916016 C20.66013916 14.47487793 20.7101709 15.0605957 20.76171875 15.6640625 C16.01171875 16.7890625 16.01171875 16.7890625 13.76171875 15.6640625 C13.76695557 16.325271 13.77219238 16.98647949 13.77758789 17.66772461 C13.79829531 20.64566101 13.81135887 23.62358232 13.82421875 26.6015625 C13.83259766 27.64248047 13.84097656 28.68339844 13.84960938 29.75585938 C13.85283203 30.74521484 13.85605469 31.73457031 13.859375 32.75390625 C13.86461182 33.67034912 13.86984863 34.58679199 13.87524414 35.53100586 C13.76171875 37.6640625 13.76171875 37.6640625 12.76171875 38.6640625 C11.29366583 38.76228994 9.82094415 38.7920462 8.34960938 38.79345703 C7.41193726 38.79660919 6.47426514 38.79976135 5.50817871 38.80300903 C4.48840942 38.8009848 3.46864014 38.79896057 2.41796875 38.796875 C0.85882751 38.79831009 0.85882751 38.79831009 -0.73181152 38.79977417 C-2.93432679 38.80045613 -5.13684404 38.79860077 -7.33935547 38.79443359 C-10.72367844 38.78908558 -14.10786869 38.79437809 -17.4921875 38.80078125 C-19.62630238 38.80012047 -21.76041717 38.79883931 -23.89453125 38.796875 C-24.91430054 38.79889923 -25.93406982 38.80092346 -26.98474121 38.80300903 C-28.39124939 38.79828079 -28.39124939 38.79828079 -29.82617188 38.79345703 C-30.65588501 38.79266144 -31.48559814 38.79186584 -32.3404541 38.79104614 C-34.23828125 38.6640625 -34.23828125 38.6640625 -35.23828125 37.6640625 C-35.32528467 36.02933368 -35.34529188 34.39092195 -35.3359375 32.75390625 C-35.33271484 31.76455078 -35.32949219 30.77519531 -35.32617188 29.75585938 C-35.31779297 28.71494141 -35.30941406 27.67402344 -35.30078125 26.6015625 C-35.29626953 25.55677734 -35.29175781 24.51199219 -35.28710938 23.43554688 C-35.27528038 20.8449959 -35.25879814 18.25455691 -35.23828125 15.6640625 C-37.21828125 15.9940625 -39.19828125 16.3240625 -41.23828125 16.6640625 C-41.56828125 15.3440625 -41.89828125 14.0240625 -42.23828125 12.6640625 C-39.24650662 10.8013576 -36.24814408 8.95046394 -33.23828125 7.1171875 C-30.40382066 5.38976021 -27.59906181 3.62129879 -24.80078125 1.8359375 C-23.30125798 0.90287924 -21.80126382 -0.02942271 -20.30078125 -0.9609375 C-19.59187744 -1.42290527 -18.88297363 -1.88487305 -18.15258789 -2.36083984 C-17.47059326 -2.7780127 -16.78859863 -3.19518555 -16.0859375 -3.625 C-15.48789307 -4.00350098 -14.88984863 -4.38200195 -14.27368164 -4.77197266 C-9.31825089 -6.14501392 -4.18907583 -2.36046768 0 0 Z " fill="#E1DDF2" transform="translate(43.23828125,5.3359375)"/>
<path d="M0 0 C0.71551025 0.27231445 1.43102051 0.54462891 2.16821289 0.82519531 C4.40242684 2.18897967 5.00670428 3.52730377 5.96484375 5.921875 C7.01285156 5.4165625 8.06085937 4.91125 9.140625 4.390625 C10.51938687 3.73407173 11.89830111 3.07783835 13.27734375 2.421875 C14.3127832 1.92107422 14.3127832 1.92107422 15.36914062 1.41015625 C20.625 -1.078125 20.625 -1.078125 23.96484375 -1.078125 C23.96484375 2.221875 23.96484375 5.521875 23.96484375 8.921875 C12.05078125 14.87890625 12.05078125 14.87890625 9.92480469 15.92431641 C8.24882823 16.77733582 6.62004415 17.72201302 5.00390625 18.68359375 C-3.09620113 21.98402311 -10.10150628 19.16161197 -17.72851562 15.96679688 C-23.01034843 13.90168285 -26.46069676 13.73833795 -32.03515625 14.921875 C-34.05752677 15.87582336 -36.06342585 16.86722851 -38.03515625 17.921875 C-39.02515625 17.921875 -40.01515625 17.921875 -41.03515625 17.921875 C-41.03515625 12.641875 -41.03515625 7.361875 -41.03515625 1.921875 C-25.09591956 -6.26709064 -16.75459741 -6.41296659 0 0 Z " fill="#F0DAB9" transform="translate(41.03515625,54.078125)"/>
<path d="M0 0 C0 6.93 0 13.86 0 21 C-1.65 21.66 -3.3 22.32 -5 23 C-4.814375 21.865625 -4.62875 20.73125 -4.4375 19.5625 C-4.293125 18.386875 -4.14875 17.21125 -4 16 C-5.06645115 14.70366379 -5.06645115 14.70366379 -7.5625 14.9375 C-8.366875 14.958125 -9.17125 14.97875 -10 15 C-10.08226668 18.04386724 -9.97608217 20.07175348 -9 23 C-9.639375 23.433125 -10.27875 23.86625 -10.9375 24.3125 C-14.1101168 28.44651583 -13.82469028 32.91601822 -14 38 C-15.64574566 38.02688151 -17.29161413 38.04634123 -18.9375 38.0625 C-19.85402344 38.07410156 -20.77054688 38.08570313 -21.71484375 38.09765625 C-24 38 -24 38 -25 37 C-25.08726223 35.21928754 -25.10699041 33.4351686 -25.09765625 31.65234375 C-25.09443359 30.57275391 -25.09121094 29.49316406 -25.08789062 28.38085938 C-25.07951172 27.24455078 -25.07113281 26.10824219 -25.0625 24.9375 C-25.05798828 23.79732422 -25.05347656 22.65714844 -25.04882812 21.48242188 C-25.03699747 18.65489649 -25.0205141 15.8274736 -25 13 C-21.21225306 10.82642556 -17.41917971 8.6623228 -13.625 6.5 C-12.54476563 5.87996094 -11.46453125 5.25992187 -10.3515625 4.62109375 C-9.3203125 4.03457031 -8.2890625 3.44804687 -7.2265625 2.84375 C-6.27346191 2.29912109 -5.32036133 1.75449219 -4.33837891 1.19335938 C-2 0 -2 0 0 0 Z " fill="#F7F0EF" transform="translate(33,6)"/>
<path d="M0 0 C3.16113946 0.49392804 6.15938001 1.29761097 9.1875 2.3125 C10.19876953 2.64701172 10.19876953 2.64701172 11.23046875 2.98828125 C13.48984571 4.28006631 14.04551915 5.62603481 15 8 C16.04800781 7.4946875 17.09601562 6.989375 18.17578125 6.46875 C19.55454312 5.81219673 20.93345736 5.15596335 22.3125 4.5 C23.34793945 3.99919922 23.34793945 3.99919922 24.40429688 3.48828125 C29.66015625 1 29.66015625 1 33 1 C33 4.3 33 7.6 33 11 C21.0859375 16.95703125 21.0859375 16.95703125 18.9765625 18.00341797 C17.22591927 18.8860916 15.49772175 19.81297624 13.7734375 20.74609375 C10.98138099 22.00841789 9.2776668 22.3544023 6.25 22.25 C5.49203125 22.23453125 4.7340625 22.2190625 3.953125 22.203125 C2 22 2 22 0 21 C0 17.7 0 14.4 0 11 C-1.65 10.67 -3.3 10.34 -5 10 C-5.33 8.68 -5.66 7.36 -6 6 C-4.02 6 -2.04 6 0 6 C0 4.02 0 2.04 0 0 Z " fill="#FEBDA8" transform="translate(32,52)"/>
<path d="M0 0 C1.75905042 0.99604073 3.51570431 1.99571367 5.26782227 3.00390625 C7.07948317 4.04207928 8.90153425 5.06016178 10.72460938 6.078125 C11.86736328 6.73296875 13.01011719 7.3878125 14.1875 8.0625 C15.23333252 8.65724121 16.27916504 9.25198242 17.35668945 9.86474609 C19.76171875 11.6640625 19.76171875 11.6640625 20.61010742 13.88916016 C20.66013916 14.47487793 20.7101709 15.0605957 20.76171875 15.6640625 C16.01171875 16.7890625 16.01171875 16.7890625 13.76171875 15.6640625 C13.76171875 15.0040625 13.76171875 14.3440625 13.76171875 13.6640625 C12.54162109 13.32955078 12.54162109 13.32955078 11.296875 12.98828125 C6.09080251 11.03816128 1.61596158 8.02823318 -3.04882812 5.03320312 C-3.77263672 4.58783203 -4.49644531 4.14246094 -5.2421875 3.68359375 C-5.89002197 3.27214111 -6.53785645 2.86068848 -7.20532227 2.43676758 C-9.9542429 1.39193345 -11.44975086 1.80345137 -14.23828125 2.6640625 C-16.55566346 3.76614842 -16.55566346 3.76614842 -18.8125 5.16796875 C-19.64458984 5.66103516 -20.47667969 6.15410156 -21.33398438 6.66210938 C-22.18927734 7.17837891 -23.04457031 7.69464844 -23.92578125 8.2265625 C-25.63572733 9.25253015 -27.34786247 10.27486102 -29.0625 11.29296875 C-30.1930481 11.9746814 -30.1930481 11.9746814 -31.34643555 12.67016602 C-33.23828125 13.6640625 -33.23828125 13.6640625 -35.23828125 13.6640625 C-35.23828125 14.3240625 -35.23828125 14.9840625 -35.23828125 15.6640625 C-37.21828125 15.9940625 -39.19828125 16.3240625 -41.23828125 16.6640625 C-41.56828125 15.3440625 -41.89828125 14.0240625 -42.23828125 12.6640625 C-39.24650662 10.8013576 -36.24814408 8.95046394 -33.23828125 7.1171875 C-30.40382066 5.38976021 -27.59906181 3.62129879 -24.80078125 1.8359375 C-23.30125798 0.90287924 -21.80126382 -0.02942271 -20.30078125 -0.9609375 C-19.59187744 -1.42290527 -18.88297363 -1.88487305 -18.15258789 -2.36083984 C-17.47059326 -2.7780127 -16.78859863 -3.19518555 -16.0859375 -3.625 C-15.48789307 -4.00350098 -14.88984863 -4.38200195 -14.27368164 -4.77197266 C-9.31825089 -6.14501392 -4.18907583 -2.36046768 0 0 Z " fill="#A63B60" transform="translate(43.23828125,5.3359375)"/>
<path d="M0 0 C4.70588235 0.70588235 4.70588235 0.70588235 6 2 C6.042721 3.66611905 6.04063832 5.33382885 6 7 C5.77390663 9.12364481 5.77390663 9.12364481 7.5 10.625 C9 13 9 13 9 21 C2.4 21 -4.2 21 -11 21 C-10.67 19.02 -10.34 17.04 -10 15 C-7 13 -7 13 -4.4375 12.625 C-1.83047912 12.25262441 -1.83047912 12.25262441 -0.6875 9.9375 C-0.3471875 8.9784375 -0.3471875 8.9784375 0 8 C-0.66 7.34 -1.32 6.68 -2 6 C-1.44444444 1.44444444 -1.44444444 1.44444444 0 0 Z " fill="#E08C67" transform="translate(37,23)"/>
<path d="M0 0 C2.5625 0.1875 2.5625 0.1875 4.5625 2.1875 C4.37074568 4.16896126 4.17277615 6.15255516 3.8515625 8.1171875 C3.47031248 10.49936284 3.47031248 10.49936284 3.5625 14.1875 C4.2225 14.8475 4.8825 15.5075 5.5625 16.1875 C4.923125 16.765 4.28375 17.3425 3.625 17.9375 C1.58026132 20.16812401 0.98044801 21.26186391 0.5625 24.1875 C-1.7475 24.1875 -4.0575 24.1875 -6.4375 24.1875 C-6.51892927 22.4382786 -6.57688541 20.68795458 -6.625 18.9375 C-6.65980469 17.96296875 -6.69460937 16.9884375 -6.73046875 15.984375 C-6.39590784 12.79043349 -5.67084367 11.45869696 -3.4375 9.1875 C-2.7775 9.1875 -2.1175 9.1875 -1.4375 9.1875 C-2.0975 8.1975 -2.7575 7.2075 -3.4375 6.1875 C-3.625 3.5625 -3.625 3.5625 -3.4375 1.1875 C-2.4375 0.1875 -2.4375 0.1875 0 0 Z " fill="#97C6EA" transform="translate(25.4375,19.8125)"/>
<path d="M0 0 C0.33 1.98 0.66 3.96 1 6 C-2.22652691 7.79645126 -5.4566682 9.58630419 -8.6875 11.375 C-9.59951172 11.88289062 -10.51152344 12.39078125 -11.45117188 12.9140625 C-12.33740234 13.40390625 -13.22363281 13.89375 -14.13671875 14.3984375 C-14.94842529 14.84880371 -15.76013184 15.29916992 -16.59643555 15.76318359 C-19.01654624 17.0085143 -21.45821971 18.03076082 -24 19 C-24 19.66 -24 20.32 -24 21 C-25.98 21.33 -27.96 21.66 -30 22 C-30.33 20.68 -30.66 19.36 -31 18 C-23.63373259 13.41369786 -16.22181463 8.91232066 -8.75 4.5 C-7.99920166 4.05479004 -7.24840332 3.60958008 -6.47485352 3.15087891 C-1.11934827 0 -1.11934827 0 0 0 Z " fill="#C9575A" transform="translate(32,0)"/>
<path d="M0 0 C4.43675683 0.69324326 9.14139947 1.61992865 13 4 C14 7.1875 14 7.1875 14 10 C11.59247874 12.31122041 10.15747678 12.97838554 6.8125 13.4375 C2.00694853 12.88604327 -1.72105059 11.17343462 -6 9 C-6 8.01 -6 7.02 -6 6 C-4.02 6 -2.04 6 0 6 C0 4.02 0 2.04 0 0 Z " fill="#FDBDA8" transform="translate(32,52)"/>
<path d="M0 0 C3.4375 0.8125 3.4375 0.8125 5.4375 3.8125 C5.4375 5.1325 5.4375 6.4525 5.4375 7.8125 C1.1475 7.8125 -3.1425 7.8125 -7.5625 7.8125 C-7.2325 5.8325 -6.9025 3.8525 -6.5625 1.8125 C-3.5625 -0.1875 -3.5625 -0.1875 0 0 Z " fill="#3D273A" transform="translate(33.5625,36.1875)"/>
<path d="M0 0 C0.66 0 1.32 0 2 0 C2.33 1.98 2.66 3.96 3 6 C0.38340697 8.5119293 -0.86440936 8.99048487 -4.5625 9.25 C-8 9 -8 9 -11 8 C-11 6.35 -11 4.7 -11 3 C-8.36 3.33 -5.72 3.66 -3 4 C-2.54625 3.34 -2.0925 2.68 -1.625 2 C-1.08875 1.34 -0.5525 0.68 0 0 Z " fill="#E09484" transform="translate(43,56)"/>
<path d="M0 0 C1.32 1.65 2.64 3.3 4 5 C2.515 7.475 2.515 7.475 1 10 C-1.97 9.505 -1.97 9.505 -5 9 C-5.33 7.35 -5.66 5.7 -6 4 C-4.02 2.68 -2.04 1.36 0 0 Z " fill="#EAD3BC" transform="translate(34,26)"/>
<path d="M0 0 C4.70588235 0.70588235 4.70588235 0.70588235 6 2 C6.125 4.5 6.125 4.5 6 7 C5 8 5 8 2.5625 8.1875 C0 8 0 8 -2 6 C-1.44444444 1.44444444 -1.44444444 1.44444444 0 0 Z " fill="#814F41" transform="translate(37,23)"/>
<path d="M0 0 C2.5625 0.1875 2.5625 0.1875 4.5625 2.1875 C4.1875 4.8125 4.1875 4.8125 3.5625 7.1875 C1.1875 7.8125 1.1875 7.8125 -1.4375 8.1875 C-3.4375 6.1875 -3.4375 6.1875 -3.625 3.625 C-3.37291261 0.34786389 -3.27713611 0.25208739 0 0 Z " fill="#B08467" transform="translate(25.4375,19.8125)"/>
<path d="M0 0 C-0.99 0.33 -1.98 0.66 -3 1 C-3 3.31 -3 5.62 -3 8 C-4.98 8 -6.96 8 -9 8 C-8.6875 5.125 -8.6875 5.125 -8 2 C-4.77208445 -0.1519437 -3.71599191 -0.20086443 0 0 Z " fill="#4D3B52" transform="translate(35,36)"/>
<path d="M0 0 C0.66 0 1.32 0 2 0 C2 6.93 2 13.86 2 21 C0.35 21.66 -1.3 22.32 -3 23 C-2.505 21.515 -2.505 21.515 -2 20 C-1.34 19.67 -0.68 19.34 0 19 C0 12.73 0 6.46 0 0 Z " fill="#EEE7ED" transform="translate(31,6)"/>
<path d="M0 0 C1.98 0.99 1.98 0.99 4 2 C4 5 4 5 2 8 C1.34 8 0.68 8 0 8 C0 5.36 0 2.72 0 0 Z " fill="#F9B7A2" transform="translate(33,28)"/>
</svg>
