<svg width="36" height="36" viewBox="0 0 36 36" fill="none" xmlns="http://www.w3.org/2000/svg">
<path d="M35.812 15.2689C35.812 15.2689 35.8387 15.2243 35.8387 15.1976V1.02476C35.8387 0.458913 35.3754 0 34.8095 0H20.5921L17.9367 2.651L15.2812 0H1.06828C0.502431 0 0.0390625 0.458913 0.0390625 1.02476V15.1976C0.0390625 15.2199 0.0524289 15.2511 0.0657953 15.2689L2.62769 17.8263C2.66779 17.862 2.66779 17.9288 2.62769 17.9644L0.0657953 20.5263C0.0657953 20.5263 0.0390625 20.5709 0.0390625 20.5976V34.7705C0.0390625 35.3363 0.502431 35.7997 1.06828 35.7997H15.2857L17.9411 33.1442L20.5966 35.7997H34.814C35.3798 35.7997 35.8432 35.3363 35.8432 34.7705V20.5976C35.8432 20.5753 35.8298 20.5442 35.8165 20.5263L33.259 17.9689C33.2189 17.9333 33.2189 17.8664 33.259 17.8308L35.8165 15.2733L35.812 15.2689ZM30.9823 30.9432H4.89107V4.852H30.9823V30.9432Z" fill="#2057A4"/>
</svg>
