<svg width="37" height="36" viewBox="0 0 37 36" fill="none" xmlns="http://www.w3.org/2000/svg">
<path d="M36.5366 15.2689C36.5366 15.2689 36.5633 15.2243 36.5633 15.1976V1.02476C36.5633 0.458913 36.1 0 35.5341 0H21.3167L18.6613 2.651L16.0058 0H1.79288C1.22704 0 0.763672 0.458913 0.763672 1.02476V15.1976C0.763672 15.2199 0.777038 15.2511 0.790405 15.2689L3.3523 17.8263C3.3924 17.862 3.3924 17.9288 3.3523 17.9644L0.790405 20.5263C0.790405 20.5263 0.763672 20.5709 0.763672 20.5976V34.7705C0.763672 35.3363 1.22704 35.7997 1.79288 35.7997H16.0103L18.6657 33.1442L21.3212 35.7997H35.5386C36.1044 35.7997 36.5678 35.3363 36.5678 34.7705V20.5976C36.5678 20.5753 36.5544 20.5442 36.5411 20.5263L33.9836 17.9689C33.9435 17.9333 33.9435 17.8664 33.9836 17.8308L36.5411 15.2733L36.5366 15.2689ZM31.7069 30.9432H5.61567V4.852H31.7069V30.9432Z" fill="#2057A4"/>
</svg>
