<?xml version="1.0" encoding="UTF-8"?>
<svg xmlns="http://www.w3.org/2000/svg" xmlns:xlink="http://www.w3.org/1999/xlink" version="1.1" viewBox="0 0 180 180">
  <!-- Generator: Adobe Illustrator 29.1.0, SVG Export Plug-In . SVG Version: 2.1.0 Build 142)  -->
  <defs>
    <style>
      .st0 {
        fill: url(#radial-gradient);
      }

      .st0, .st1 {
        mix-blend-mode: multiply;
      }

      .st2 {
        isolation: isolate;
      }

      .st1 {
        fill: url(#linear-gradient);
      }

      .st3 {
        fill: #2057a4;
      }

      .st4 {
        fill: #efeeef;
      }
    </style>
    <radialGradient id="radial-gradient" cx="80.5" cy="85.6" fx="80.5" fy="85.6" r="152.7" gradientUnits="userSpaceOnUse">
      <stop offset=".3" stop-color="#7c8691"/>
      <stop offset=".6" stop-color="#fff" stop-opacity="0"/>
    </radialGradient>
    <linearGradient id="linear-gradient" x1="24.4" y1="13.2" x2="135.8" y2="142.1" gradientUnits="userSpaceOnUse">
      <stop offset=".2" stop-color="#7c8691"/>
      <stop offset=".5" stop-color="#a3aab2" stop-opacity=".6"/>
      <stop offset=".9" stop-color="#fff" stop-opacity="0"/>
    </linearGradient>
  </defs>
  <g class="st2">
    <g id="Layer_1">
      <rect class="st3" x="0" width="181.1" height="181.1"/>
      <polygon class="st0" points="181.1 75.4 181.1 181.1 75.4 181.1 37.7 143.4 50.7 129.2 129.2 129.2 129.2 50.8 141.8 36.1 181.1 75.4"/>
      <rect class="st1" x="48.6" y="46.6" width="81.8" height="83.8"/>
      <path class="st4" d="M143.8,82.1s0-.1,0-.2v-42.6c0-1.7-1.4-3.1-3.1-3.1h-42.8l-8,8-8-8h-42.8c-1.7,0-3.1,1.4-3.1,3.1v42.6c0,0,0,.2,0,.2l7.7,7.7c.1.1.1.3,0,.4l-7.7,7.7s0,.1,0,.2v42.6c0,1.7,1.4,3.1,3.1,3.1h42.8l8-8,8,8h42.8c1.7,0,3.1-1.4,3.1-3.1v-42.6c0,0,0-.2,0-.2l-7.7-7.7c-.1-.1-.1-.3,0-.4l7.7-7.7h0ZM129.2,129.2H50.7V50.7h78.5v78.5Z"/>
    </g>
  </g>
</svg>