<svg width="57" height="18" viewBox="0 0 57 18" fill="none" xmlns="http://www.w3.org/2000/svg">
<path d="M54.951 6.35795V14.204C54.951 14.6808 54.5634 15.0684 54.0866 15.0684H53.1421V16.8773H54.3317C55.6772 16.8773 56.7644 15.7902 56.7644 14.4446V6.35795H54.951Z" fill="#233567"/>
<path d="M19.4899 15.8035C18.9063 15.8035 18.434 16.2758 18.434 16.8595C18.434 17.4432 18.9063 17.9154 19.4899 17.9154C20.0736 17.9154 20.5459 17.4432 20.5459 16.8595C20.5459 16.2758 20.0736 15.8035 19.4899 15.8035Z" fill="#233567"/>
<path d="M5.04531 6.4827C5.62897 6.4827 6.10125 6.01042 6.10125 5.42676C6.10125 4.84309 5.62897 4.37081 5.04531 4.37081C4.46164 4.37081 3.98936 4.84309 3.98936 5.42676C3.98936 6.01042 4.46164 6.4827 5.04531 6.4827Z" fill="#233567"/>
<path d="M22.0429 15.8035C21.4593 15.8035 20.987 16.2758 20.987 16.8595C20.987 17.4432 21.4593 17.9154 22.0429 17.9154C22.6266 17.9154 23.0989 17.4432 23.0989 16.8595C23.0989 16.2758 22.6266 15.8035 22.0429 15.8035Z" fill="#233567"/>
<path d="M46.6104 15.8035C46.0267 15.8035 45.5544 16.2758 45.5544 16.8595C45.5544 17.4432 46.0267 17.9154 46.6104 17.9154C47.194 17.9154 47.6663 17.4432 47.6663 16.8595C47.6663 16.2758 47.194 15.8035 46.6104 15.8035Z" fill="#233567"/>
<path d="M49.1678 15.8035C48.5841 15.8035 48.1119 16.2758 48.1119 16.8595C48.1119 17.4432 48.5841 17.9154 49.1678 17.9154C49.7515 17.9154 50.2238 17.4432 50.2238 16.8595C50.2238 16.2758 49.7515 15.8035 49.1678 15.8035Z" fill="#233567"/>
<path d="M42.8143 0H32.295V1.80892H42.8143V0Z" fill="#233567"/>
<path d="M50.0767 11.4996C50.0767 11.9763 49.6891 12.3639 49.2123 12.3639H41.8475V8.83964C41.8475 8.05548 41.5623 7.28914 41.0767 6.66983C41.0098 6.58518 40.9385 6.50498 40.8673 6.42478C40.395 5.89904 39.6465 5.59607 38.9603 5.47577C38.8445 5.45795 38.7331 5.44458 38.6172 5.43567C38.5549 5.43567 33.2484 5.43567 33.2484 5.43567V12.3684H23.8652C23.3885 12.3684 23.0053 11.9852 23.0008 11.5085V6.34013H21.1875V11.4996C21.1875 11.9807 20.7998 12.3684 20.3186 12.3684H10.6637C10.1869 12.3684 9.79484 11.9807 9.79484 11.504V7.06637H7.98592V11.3793C7.98592 13.5535 6.97898 14.4714 6.1369 14.859C5.29481 15.2466 4.19431 15.2466 3.37451 14.7966C2.45223 14.2931 2.10024 13.1748 1.97104 12.1946C1.80618 10.8981 1.98886 9.60598 2.09133 8.3139C2.09133 8.3139 0.318057 8.16687 0.286869 8.16687C0.237859 8.16687 0.135383 10.1184 0.126472 10.2654C0.0507291 11.4416 0.0551845 12.6045 0.433899 13.7407C0.785881 14.7921 1.44529 15.7768 2.41213 16.3293C3.02698 16.6813 3.74431 16.8417 4.45273 16.8639C6.47997 16.9219 8.38691 16.062 9.14434 14.0971C9.27355 13.7629 9.36265 13.4065 9.42058 13.0501C9.85276 13.7317 10.6102 14.1818 11.4745 14.1818H20.5592C21.4281 14.1818 22.1855 13.7228 22.6177 13.0412C23.0498 13.7228 23.8073 14.1773 25.2241 14.1773H33.4222C34.1662 14.0926 34.8078 13.6649 35.191 13.059C35.5742 13.6694 36.2202 14.0926 37.3564 14.1773H49.9876C50.7807 14.1773 51.8723 13.0902 51.8723 11.7446V6.34013H50.0633V11.504L50.0767 11.4996ZM35.2756 12.2704V7.41835H38.791C39.0405 7.41835 39.2321 7.46736 39.4059 7.56093C39.7088 7.73023 39.896 8.05994 39.896 8.40747V12.2704H35.2756Z" fill="#233567"/>
</svg>
