<svg width="76" height="118" viewBox="0 0 76 118" fill="none" xmlns="http://www.w3.org/2000/svg">
<path d="M-5.8156 0.0215601C-1.80474 0.023123 1.7626 0.0786684 5.32708 0.00166327C6.93811 -0.0331289 8.18399 0.476876 9.27856 1.62961C10.8113 3.24382 12.4039 4.80248 14.0004 6.35471C14.7203 7.05459 15.5113 7.68151 16.3686 8.42729C18.6092 7.09919 20.0603 5.19407 21.7449 3.5703C25.8762 -0.411752 24.5267 0.0402336 30.2497 0.0291709C42.8798 0.00480251 55.51 0.0205272 68.1402 0.0232317C69.3286 0.02349 70.5251 -0.0357929 71.7038 0.0775266C74.2774 0.324973 75.3854 1.50883 75.5565 4.06206C75.5961 4.65299 75.5727 5.24833 75.5727 5.84164C75.5731 19.4885 75.5148 33.1359 75.6239 46.7819C75.6445 49.3678 74.9302 51.2925 73.0042 53.0029C71.0238 54.7618 69.2673 56.772 67.2843 58.8039C68.0658 59.7862 68.6373 60.6226 69.3269 61.3469C70.7595 62.8518 72.2026 64.3545 73.7402 65.7496C75.0416 66.9305 75.6091 68.2526 75.6023 70.041C75.5477 84.281 75.5715 98.5213 75.5672 112.762C75.567 113.354 75.5742 113.953 75.498 114.538C75.2521 116.429 74.2563 117.551 72.429 117.831C71.4092 117.987 70.355 117.949 69.3164 117.95C55.7947 117.956 42.2726 117.902 28.7516 118C26.1805 118.018 24.1769 117.396 22.492 115.416C21.1497 113.839 19.5921 112.44 18.0862 111.009C17.5718 110.519 16.9244 110.17 16.1002 109.589C14.0091 111.66 11.9079 113.531 10.0664 115.629C8.43724 117.485 6.56503 118.012 4.16483 117.996C-9.35631 117.908 -22.8786 117.91 -36.3999 117.979C-40.7684 118.001 -43.0125 117.688 -42.9788 111.526C-42.9051 98.0281 -42.9113 84.529 -42.9998 71.031C-43.0148 68.7422 -42.2635 67.1016 -40.6239 65.5855C-38.4618 63.5861 -36.4755 61.3974 -34.3899 59.2659C-35.5536 56.9891 -37.3849 55.6676 -38.9061 54.0958C-43.6159 49.2293 -42.9237 50.9871 -42.9462 44.4718C-42.9882 32.3085 -42.9614 20.1448 -42.954 7.9813C-42.9532 6.64791 -43.0039 5.30034 -42.8355 3.98422C-42.5057 1.40643 -41.3459 0.308297 -38.7992 0.0757462C-37.6195 -0.0319874 -36.4238 0.0236259 -35.2354 0.0232453C-25.577 0.0202417 -15.9187 0.0215193 -5.8156 0.0215601ZM-10.7164 102.103C-7.29855 102.103 -3.88072 102.103 -0.462887 102.103C17.8152 102.103 36.0933 102.115 54.3712 102.08C55.949 102.077 57.6267 102.503 59.3815 101.404C59.409 99.8713 59.4627 98.2616 59.463 96.6519C59.4683 71.7295 59.4669 46.8071 59.4664 21.8848C59.4664 20.8464 59.5306 19.8015 59.4353 18.7716C59.3591 17.9485 59.0854 17.1436 58.8531 16.1284C57.028 16.1284 55.4027 16.1284 53.7775 16.1284C29.8525 16.1284 5.92757 16.1282 -17.9974 16.1289C-19.9292 16.129 -21.8624 16.0935 -23.7921 16.1596C-24.6372 16.1885 -25.475 16.4316 -26.2117 16.5593C-27.0719 20.613 -27.4258 73.6021 -26.7968 98.5897C-26.7717 99.5856 -26.5461 100.577 -26.436 101.404C-25.9301 101.679 -25.6759 101.936 -25.4178 101.94C-20.8148 102.012 -16.2113 102.054 -10.7164 102.103Z" fill="#4D79B6"/>
</svg>
