<svg width="166" height="58" viewBox="0 0 166 58" fill="none" xmlns="http://www.w3.org/2000/svg">
<path d="M165.95 24.4302C165.95 24.4302 165.992 24.3589 165.992 24.3162V1.63961C165.992 0.734261 165.251 0 164.346 0H141.598L137.349 4.2416L133.1 0H110.36C109.454 0 108.713 0.734261 108.713 1.63961V24.3162C108.713 24.3518 108.734 24.4017 108.756 24.4302L112.855 28.5221C112.919 28.5791 112.919 28.6861 112.855 28.7431L108.756 32.8421C108.756 32.8421 108.713 32.9134 108.713 32.9562V55.6327C108.713 56.5381 109.454 57.2795 110.36 57.2795H133.107L137.356 53.0307L141.605 57.2795H164.353C165.258 57.2795 165.999 56.5381 165.999 55.6327V32.9562C165.999 32.9206 165.978 32.8707 165.957 32.8421L161.865 28.7502C161.801 28.6932 161.801 28.5863 161.865 28.5292L165.957 24.4373L165.95 24.4302ZM158.222 49.5091H116.476V7.76321H158.222V49.5091Z" fill="#2057A4"/>
<path d="M87.781 15.163V27.7167C87.781 28.4795 87.1608 29.0997 86.398 29.0997H84.8867V31.9939H86.7901C88.9429 31.9939 90.6824 30.2545 90.6824 28.1016V15.163H87.781Z" fill="#233567"/>
<path d="M31.0433 30.2759C30.1094 30.2759 29.3538 31.0315 29.3538 31.9654C29.3538 32.8993 30.1094 33.6549 31.0433 33.6549C31.9772 33.6549 32.7328 32.8993 32.7328 31.9654C32.7328 31.0315 31.9772 30.2759 31.0433 30.2759Z" fill="#233567"/>
<path d="M7.93187 15.3626C8.86573 15.3626 9.62138 14.6069 9.62138 13.673C9.62138 12.7392 8.86573 11.9835 7.93187 11.9835C6.998 11.9835 6.24235 12.7392 6.24235 13.673C6.24235 14.6069 6.998 15.3626 7.93187 15.3626Z" fill="#233567"/>
<path d="M35.128 30.2759C34.1942 30.2759 33.4385 31.0315 33.4385 31.9654C33.4385 32.8993 34.1942 33.6549 35.128 33.6549C36.0619 33.6549 36.8176 32.8993 36.8176 31.9654C36.8176 31.0315 36.0619 30.2759 35.128 30.2759Z" fill="#233567"/>
<path d="M74.436 30.2759C73.5021 30.2759 72.7465 31.0315 72.7465 31.9654C72.7465 32.8993 73.5021 33.6549 74.436 33.6549C75.3698 33.6549 76.1255 32.8993 76.1255 31.9654C76.1255 31.0315 75.3698 30.2759 74.436 30.2759Z" fill="#233567"/>
<path d="M78.5279 30.2759C77.594 30.2759 76.8383 31.0315 76.8383 31.9654C76.8383 32.8993 77.594 33.6549 78.5279 33.6549C79.4617 33.6549 80.2174 32.8993 80.2174 31.9654C80.2174 31.0315 79.4617 30.2759 78.5279 30.2759Z" fill="#233567"/>
<path d="M68.3623 4.99023H51.5313V7.88451H68.3623V4.99023Z" fill="#233567"/>
<path d="M79.9821 23.3895C79.9821 24.1523 79.3619 24.7725 78.5991 24.7725H66.8153V19.1337C66.8153 17.879 66.3591 16.6529 65.582 15.662C65.4751 15.5265 65.3611 15.3982 65.247 15.2699C64.4913 14.4287 63.2937 13.9439 62.1959 13.7515C62.0105 13.7229 61.8323 13.7016 61.647 13.6873C61.5472 13.6873 53.0568 13.6873 53.0568 13.6873V24.7796H38.0437C37.2809 24.7796 36.6678 24.1666 36.6607 23.4038V15.1344H33.7593V23.3895C33.7593 24.1594 33.1391 24.7796 32.3692 24.7796H16.9212C16.1584 24.7796 15.5311 24.1594 15.5311 23.3967V16.2964H12.6368V23.1971C12.6368 26.6759 11.0257 28.1444 9.67841 28.7646C8.33108 29.3848 6.57028 29.3848 5.25859 28.6648C3.78294 27.8593 3.21976 26.0699 3.01303 24.5016C2.74927 22.4271 3.04155 20.3598 3.20551 18.2925C3.20551 18.2925 0.368266 18.0572 0.318365 18.0572C0.239949 18.0572 0.0759877 21.1796 0.0617302 21.4149C-0.0594585 23.2969 -0.0523297 25.1575 0.553614 26.9753C1.11678 28.6577 2.17184 30.2331 3.71878 31.1171C4.70254 31.6803 5.85027 31.9369 6.98374 31.9725C10.2273 32.0652 13.2784 30.6894 14.4903 27.5456C14.697 27.0109 14.8396 26.4406 14.9323 25.8703C15.6238 26.961 16.8357 27.681 18.2186 27.681H32.7542C34.1443 27.681 35.3562 26.9468 36.0476 25.8561C36.7391 26.9468 37.951 27.6739 40.218 27.6739H53.3349C54.5254 27.5385 55.5519 26.8541 56.165 25.8846C56.778 26.8612 57.8117 27.5385 59.6295 27.6739H79.8395C81.1085 27.6739 82.855 25.9345 82.855 23.7816V15.1344H79.9607V23.3967L79.9821 23.3895ZM56.3004 24.6228V16.8596H61.925C62.3242 16.8596 62.6307 16.938 62.9088 17.0877C63.3935 17.3586 63.6929 17.8861 63.6929 18.4422V24.6228H56.3004Z" fill="#233567"/>
<path d="M52.695 45.7531C52.5524 45.7531 52.4241 45.803 52.3171 45.91C52.2102 46.0169 52.1603 46.1381 52.1603 46.2878C52.1603 46.4375 52.2102 46.5658 52.3171 46.6727C52.4241 46.7797 52.5453 46.8296 52.695 46.8296C52.8447 46.8296 52.973 46.7797 53.0799 46.6727C53.1869 46.5658 53.2439 46.4375 53.2439 46.2878C53.2439 46.1381 53.1869 46.0169 53.0799 45.91C52.973 45.803 52.8447 45.7531 52.695 45.7531Z" fill="#2057A4"/>
<path d="M54.1778 45.7531C54.028 45.7531 53.8997 45.803 53.7928 45.91C53.6859 46.0169 53.636 46.1381 53.636 46.2878C53.636 46.4375 53.6859 46.5658 53.7928 46.6727C53.8997 46.7797 54.028 46.8296 54.1778 46.8296C54.3275 46.8296 54.4558 46.7797 54.5627 46.6727C54.6696 46.5658 54.7195 46.4375 54.7195 46.2878C54.7195 46.1381 54.6696 46.0169 54.5627 45.91C54.4558 45.803 54.3275 45.7531 54.1778 45.7531Z" fill="#2057A4"/>
<path d="M58.4978 43.864C58.3552 43.864 58.2269 43.9139 58.1199 44.0208C58.013 44.1278 57.956 44.249 57.956 44.3987C57.956 44.5484 58.0059 44.6767 58.1128 44.7836C58.2198 44.8905 58.3481 44.9404 58.4978 44.9404C58.6475 44.9404 58.7758 44.8905 58.8827 44.7836C58.9897 44.6767 59.0396 44.5484 59.0396 44.3987C59.0396 44.249 58.9897 44.1278 58.8827 44.0208C58.7758 43.9139 58.6475 43.864 58.4978 43.864Z" fill="#2057A4"/>
<path d="M65.8332 39.2446C65.4982 39.0592 65.1346 38.9666 64.7425 38.9666C64.5144 38.9666 64.2863 39.0022 64.0653 39.0735L61.8269 39.7507V37.0703H60.95V42.1959H59.6597C59.4815 42.1959 59.3247 42.1317 59.1964 42.0105C59.0609 41.8893 58.9896 41.7325 58.9754 41.5543V39.7935H58.0772V41.54C58.0772 41.7183 58.013 41.868 57.8918 41.9963C57.7706 42.1246 57.6138 42.1888 57.4427 42.1888H57.129C56.4661 42.1888 55.8245 42.0818 55.2043 41.8608C55.19 41.8608 54.9833 41.7682 54.5841 41.6042C54.4486 41.5472 54.3132 41.483 54.1635 41.426L53.7785 42.2458L55.0617 42.7662C55.2328 42.8232 55.3754 42.923 55.4823 43.0656C55.5892 43.2082 55.6391 43.3721 55.6391 43.5503C55.6391 43.7499 55.5678 43.9282 55.4181 44.0779C55.2684 44.2276 55.0902 44.2989 54.8906 44.2989H52.2387C51.9892 44.2989 51.7468 44.2347 51.533 44.1064C51.312 43.9781 51.1409 43.807 51.0126 43.586C50.8843 43.365 50.8201 43.1297 50.8201 42.8802V41.3689H49.9219V42.8802C49.9219 43.2937 50.0288 43.6787 50.2355 44.028C50.4423 44.3844 50.7203 44.6624 51.0767 44.8692C51.4332 45.0759 51.811 45.1828 52.2245 45.1828H54.8764C55.1686 45.1828 55.4395 45.1115 55.6962 44.9618C55.9457 44.8121 56.1524 44.6197 56.3021 44.3701C56.4518 44.1206 56.5231 43.8426 56.5231 43.5503C56.5231 43.3294 56.4589 43.1511 56.3235 43.0014C56.5873 43.0585 56.851 43.087 57.1148 43.087H57.5282C57.735 43.087 57.9275 43.0442 58.1057 42.9515C58.2839 42.866 58.4336 42.7377 58.5619 42.588C58.6974 42.7448 58.8542 42.866 59.0467 42.9515C59.2391 43.0371 59.4388 43.087 59.6526 43.087H66.1612C66.3679 43.087 66.5461 43.0157 66.6958 42.866C66.8384 42.7163 66.9168 42.5309 66.9168 42.3171V41.1337C66.9168 40.7202 66.817 40.3495 66.6174 40.0074C66.4249 39.6866 66.1612 39.4371 65.8261 39.2517L65.8332 39.2446ZM66.0328 41.9963C66.0328 42.0533 66.0186 42.0961 65.9829 42.1389C65.9473 42.1745 65.9045 42.1959 65.8546 42.1959H61.8269V40.6703L64.3219 39.9076C64.4574 39.8719 64.5928 39.8577 64.7354 39.8577C64.9707 39.8577 65.1845 39.9076 65.3913 40.0145C65.5909 40.1143 65.7477 40.2569 65.8546 40.4422C65.9758 40.6418 66.0328 40.8628 66.0328 41.1266V41.9963Z" fill="#2057A4"/>
<path d="M83.3058 43.8284C83.1561 43.8284 83.0278 43.8783 82.9209 43.9852C82.8139 44.0921 82.764 44.2133 82.764 44.363C82.764 44.5127 82.8139 44.641 82.9209 44.748C83.0278 44.8549 83.1561 44.9048 83.3058 44.9048C83.4555 44.9048 83.5838 44.8549 83.6908 44.748C83.7977 44.641 83.8476 44.5127 83.8476 44.363C83.8476 44.2133 83.7977 44.0921 83.6908 43.9852C83.5838 43.8783 83.4555 43.8284 83.3058 43.8284Z" fill="#2057A4"/>
<path d="M90.5272 39.9503C90.349 39.6438 90.1138 39.4085 89.8143 39.2303C89.5149 39.0521 89.1799 38.9594 88.8092 38.9594H86.806V41.5899C86.806 41.7682 86.7561 41.9107 86.6492 42.0248C86.5422 42.1389 86.3925 42.1959 86.2072 42.1959H85.4515C85.3161 42.1959 85.2163 42.1531 85.1308 42.0604C85.0523 41.9749 85.0096 41.8537 85.0096 41.704V41.426C85.0096 40.9697 84.9311 40.5777 84.7672 40.2569C84.6032 39.9361 84.3965 39.6794 84.147 39.5012C83.6622 39.1519 83.0848 38.9737 82.4076 38.9737C81.9157 38.9737 81.4594 39.0664 81.0175 39.2517L81.3311 40.0501C81.709 39.9218 82.0868 39.8577 82.4503 39.8577C82.9351 39.8577 83.3201 39.9717 83.6123 40.1998C83.9616 40.4707 84.1399 40.8913 84.1399 41.4688V41.7111C84.1399 41.8181 84.1612 41.9107 84.2111 41.9891C84.261 42.0747 84.3252 42.1389 84.4036 42.1888H80.4258C80.2832 42.1888 80.1691 42.1389 80.0693 42.0391C79.9695 41.9392 79.9268 41.8181 79.9268 41.6755V40.8557C79.9196 40.5135 79.827 40.1927 79.6416 39.9004C79.4634 39.6081 79.221 39.38 78.9216 39.2089C78.6222 39.0378 78.3014 38.9523 77.9592 38.9523H75.9275V41.5828C75.9275 41.761 75.8705 41.9036 75.7565 42.0177C75.6424 42.1317 75.4998 42.1888 75.3216 42.1888H73.8673C74.124 42.0105 74.3164 41.7824 74.4448 41.483C74.566 41.1907 74.6301 40.8985 74.6301 40.6276C74.6301 40.2283 74.5018 39.8719 74.238 39.5582C73.9743 39.2375 73.6463 39.045 73.24 38.9594C73.0832 38.9238 72.9192 38.9095 72.741 38.9095C72.1208 38.9095 71.4863 39.102 70.8376 39.4798L70.5881 40.1998L71.4436 42.1959H71.1727C70.9303 42.2173 70.695 42.2957 70.4741 42.4383C70.2602 42.5737 70.082 42.7733 69.9465 43.0228C69.8111 43.2795 69.7469 43.5789 69.7469 43.9068C69.7469 44.2347 69.8182 44.5127 69.975 44.7765C70.1319 45.0403 70.3386 45.247 70.6024 45.4038C70.8661 45.5535 71.1513 45.6319 71.4649 45.6319H73.5822V44.748H71.4649C71.2368 44.748 71.0444 44.6624 70.8804 44.4985C70.7164 44.3274 70.6309 44.1349 70.6309 43.9068C70.6309 43.6787 70.7164 43.4862 70.8804 43.3222C71.0444 43.1583 71.2368 43.0727 71.4649 43.0727H75.3216C75.5711 43.0727 75.7992 43.0086 76.006 42.8874C76.2127 42.7662 76.3838 42.6022 76.505 42.3955C76.6761 42.6094 76.8828 42.7804 77.1323 42.8945C77.3747 43.0157 77.6527 43.0727 77.9592 43.0727C78.2373 43.0727 78.4939 43.0157 78.7363 42.8945C78.9786 42.7804 79.1782 42.6165 79.3351 42.4097C79.4278 42.6022 79.5775 42.7662 79.7699 42.8874C79.9695 43.0086 80.1905 43.0727 80.4258 43.0727H86.1929C86.4424 43.0727 86.6706 43.0086 86.8844 42.8874C87.0912 42.7662 87.2622 42.5951 87.3834 42.3812C87.5403 42.588 87.747 42.7591 87.9965 42.8874C88.2389 43.0086 88.5027 43.0727 88.7878 43.0727C89.1371 43.0727 89.465 42.9872 89.7644 42.8161C90.0639 42.6521 90.3062 42.4169 90.4916 42.1317C90.6698 41.8394 90.7625 41.5187 90.7696 41.1765V40.9626C90.7696 40.5848 90.684 40.2497 90.513 39.9432L90.5272 39.9503ZM73.6321 41.1337C73.5537 41.3547 73.4182 41.5614 73.2257 41.7539C73.0333 41.9535 72.7695 42.0818 72.4345 42.1389L71.5719 40.2854L71.6289 40.0929C71.8285 40.0074 72.021 39.9432 72.1921 39.8933C72.3703 39.8363 72.5628 39.8149 72.7695 39.8149C72.8907 39.8149 72.9976 39.822 73.0832 39.8505C73.2756 39.8862 73.4325 39.9717 73.5537 40.1214C73.682 40.2711 73.739 40.4422 73.739 40.6347C73.739 40.7559 73.7034 40.9198 73.6321 41.1337ZM79.0357 41.1123C79.0357 41.4188 78.9287 41.6755 78.7149 41.8751C78.501 42.0818 78.2301 42.1888 77.8951 42.1959C77.7097 42.1959 77.5315 42.146 77.3676 42.0533C77.2036 41.9535 77.0753 41.8323 76.9755 41.6684C76.8757 41.5115 76.8258 41.3404 76.8258 41.148V39.8577H77.8951C78.223 39.8577 78.4939 39.9503 78.7006 40.1428C78.9145 40.3353 79.0214 40.5848 79.0357 40.8842V41.1123ZM89.907 41.1408C89.8999 41.426 89.7858 41.6755 89.5791 41.8751C89.3652 42.0818 89.1086 42.1888 88.8092 42.1959C88.5027 42.1959 88.246 42.0961 88.0322 41.9036C87.8183 41.7111 87.7114 41.4688 87.7042 41.1765V39.8505H88.7807C89.1015 39.8505 89.3652 39.9503 89.5791 40.1571C89.793 40.3638 89.907 40.6204 89.907 40.9341V41.1408Z" fill="#2057A4"/>
</svg>
