<?xml version="1.0" encoding="utf-8"?>
<!-- Generator: Adobe Illustrator 22.0.1, SVG Export Plug-In . SVG Version: 6.00 Build 0)  -->
<svg version="1.1" id="Layer_1" xmlns="http://www.w3.org/2000/svg" xmlns:xlink="http://www.w3.org/1999/xlink" x="0px" y="0px"
	 viewBox="0 0 451.9 451.9" style="enable-background:new 0 0 451.9 451.9;" xml:space="preserve">
<circle style="fill:#5AFEAE;" cx="225.9" cy="225.9" r="165.5"/>
<g>
	<path style="fill:#292929;" d="M274.5,283.5c-5.8,2.9-12.2,4.4-18.7,4.3c-14,0-21.9-2.2-22.8-13.5v-0.8c0-0.5-0.1-0.9-0.1-1.4
		v-32.9l0.1-3.9v-23.2h-0.1v-9.9l0.1-3.9v-22.4l-34.7,4.6c23.5-4.5,37-23.1,37-41.6v-11.4h-39v53.3l-2.2,0.6v98.8
		c1.3,27.8,19.6,44.3,49.6,44.3c10.6,0,22.3-2.4,31.2-6.5l0.2-0.1v-34.6L274.5,283.5L274.5,283.5L274.5,283.5z"/>
	<polygon style="fill:#292929;" points="280.7,167.9 171.2,184.8 171.2,212.6 280.7,195.7 	"/>
	<polygon style="fill:#292929;" points="280.7,208.5 171.2,225.4 171.2,251.9 280.7,235 	"/>
</g>
</svg>
