<svg width="24" height="24" viewBox="0 0 24 24" fill="none" xmlns="http://www.w3.org/2000/svg">
<path fill-rule="evenodd" clip-rule="evenodd" d="M18.6379 9.92188C18.6154 9.83532 18.576 9.75404 18.5221 9.68269C18.4682 9.61134 18.4007 9.55131 18.3236 9.50604C18.2464 9.46077 18.1611 9.43114 18.0726 9.41885C17.984 9.40655 17.8938 9.41184 17.8073 9.43439C15.314 10.0839 13.4049 10.3835 11.5135 10.376C9.61936 10.3678 7.70753 10.0526 5.20676 9.43303C5.11896 9.40822 5.02707 9.4013 4.93654 9.4127C4.84602 9.42409 4.7587 9.45357 4.67979 9.49937C4.60088 9.54517 4.53198 9.60637 4.47719 9.67932C4.42239 9.75228 4.38282 9.8355 4.36082 9.92405C4.33882 10.0126 4.33484 10.1047 4.34912 10.1948C4.3634 10.2849 4.39565 10.3712 4.44395 10.4486C4.49225 10.526 4.55561 10.5929 4.63028 10.6454C4.70494 10.6978 4.78939 10.7347 4.87859 10.7539C6.35059 11.1188 7.64829 11.3871 8.87723 11.5505L9.46821 11.6295V15.3612L8.7928 20.7665C8.77146 20.9418 8.81909 21.1186 8.92562 21.2594C9.03215 21.4003 9.18925 21.4942 9.36376 21.5215C9.53826 21.5487 9.71651 21.507 9.86088 21.4053C10.0052 21.3035 10.1044 21.1497 10.1375 20.9762L11.1588 15.5294C11.1663 15.489 11.1702 15.4479 11.1703 15.4068H12.532C12.5322 15.4479 12.5361 15.489 12.5436 15.5294L13.5649 20.9762C13.5979 21.1497 13.6971 21.3035 13.8415 21.4053C13.9859 21.507 14.1641 21.5487 14.3386 21.5215C14.5131 21.4942 14.6702 21.4003 14.7768 21.2594C14.8833 21.1186 14.9309 20.9418 14.9096 20.7665L14.2342 15.3619V11.5627L14.8088 11.4715C15.8423 11.3081 16.9371 11.0684 18.1504 10.7525C18.237 10.73 18.3183 10.6907 18.3896 10.6367C18.461 10.5828 18.521 10.5153 18.5663 10.4382C18.6115 10.3611 18.6412 10.2758 18.6534 10.1872C18.6657 10.0986 18.6605 10.0084 18.6379 9.92188ZM17.4641 8.11695C17.9861 7.98704 18.5382 8.06826 19.0007 8.34298C19.4631 8.6177 19.7985 9.06375 19.9341 9.58428C20.0696 10.1048 19.9944 10.6578 19.7247 11.1232C19.455 11.5886 19.0126 11.9288 18.4936 12.07C17.5363 12.3234 16.5697 12.54 15.5959 12.7195V15.2768L16.2611 20.5976C16.3287 21.1254 16.1878 21.6587 15.8682 22.0841C15.5487 22.5095 15.0758 22.7934 14.5501 22.8755C14.0244 22.9575 13.4875 22.8312 13.0535 22.5234C12.6195 22.2156 12.3227 21.7507 12.2263 21.2274L11.8512 19.2257L11.476 21.2274C11.3796 21.7507 11.0829 22.2156 10.6489 22.5234C10.2149 22.8312 9.67796 22.9575 9.15227 22.8755C8.62659 22.7934 8.15367 22.5095 7.83413 22.0841C7.51459 21.6587 7.37366 21.1254 7.44131 20.5976L8.1065 15.2768V12.8155C6.98991 12.6412 5.82429 12.392 4.5511 12.0761C4.02527 11.9457 3.57277 11.6118 3.29314 11.1478C3.01351 10.6838 2.92966 10.1277 3.06004 9.60188C3.19041 9.07605 3.52433 8.62355 3.98833 8.34393C4.45234 8.0643 5.00842 7.98045 5.53425 8.11082C7.98667 8.71882 9.77935 9.00682 11.5189 9.01363C13.2524 9.02044 15.0369 8.74878 17.4641 8.11695Z" fill="#BACBE3"/>
<path fill-rule="evenodd" clip-rule="evenodd" d="M11.5107 2.46717C10.969 2.46717 10.4495 2.68237 10.0664 3.06542C9.68334 3.44847 9.46815 3.968 9.46815 4.50972C9.46815 5.05144 9.68334 5.57097 10.0664 5.95403C10.4495 6.33708 10.969 6.55228 11.5107 6.55228C12.0524 6.55228 12.572 6.33708 12.955 5.95403C13.3381 5.57097 13.5533 5.05144 13.5533 4.50972C13.5533 3.968 13.3381 3.44847 12.955 3.06542C12.572 2.68237 12.0524 2.46717 11.5107 2.46717ZM8.10645 4.50972C8.10645 3.60686 8.46511 2.74097 9.10353 2.10255C9.74195 1.46413 10.6078 1.10547 11.5107 1.10547C12.4136 1.10547 13.2795 1.46413 13.9179 2.10255C14.5563 2.74097 14.915 3.60686 14.915 4.50972C14.915 5.41259 14.5563 6.27847 13.9179 6.9169C13.2795 7.55532 12.4136 7.91398 11.5107 7.91398C10.6078 7.91398 9.74195 7.55532 9.10353 6.9169C8.46511 6.27847 8.10645 5.41259 8.10645 4.50972Z" fill="#4D79B6"/>
</svg>
