<?xml version="1.0" encoding="UTF-8"?>
<svg version="1.1" viewBox="0 0 256 256" xml:space="preserve" xmlns="http://www.w3.org/2000/svg">


<g transform="translate(1.4066 1.4066) scale(2.81)" stroke-linecap="round">
	<path d="m67.245 21.439c-1.104 0-2-0.896-2-2v-17.303c0-1.104 0.896-2 2-2s2 0.896 2 2v17.303c0 1.104-0.895 2-2 2z"/>
	<path d="m2 71.518c-1.104 0-2-0.896-2-2v-67.382c0-1.104 0.896-2 2-2s2 0.896 2 2v67.382c0 1.104-0.896 2-2 2z"/>
	<path d="m77.622 89.864c-1.104 0-2-0.896-2-2s0.896-2 2-2c3.931 0 7.237-2.721 8.137-6.377h-18.514c-1.104 0-2-0.896-2-2s0.896-2 2-2h20.755c1.104 0 2 0.896 2 2 0 6.825-5.553 12.377-12.378 12.377z"/>
	<path d="m67.245 79.487c-1.104 0-2-0.896-2-2v-24.318c0-1.104 0.896-2 2-2s2 0.896 2 2v24.318c0 1.105-0.895 2-2 2z"/>
	<path d="m12.377 89.864c-6.824 0-12.377-5.552-12.377-12.377v-7.97c0-1.104 0.896-2 2-2s2 0.896 2 2v7.97c0 4.619 3.758 8.377 8.377 8.377 1.104 0 2 0.896 2 2s-0.895 2-2 2z"/>
	<path d="m77.622 89.864h-65.245c-1.104 0-2-0.896-2-2s0.896-2 2-2h65.245c1.104 0 2 0.896 2 2s-0.895 2-2 2z"/>
	<path d="m12.377 89.864c-1.104 0-2-0.896-2-2s0.896-2 2-2c4.619 0 8.377-3.758 8.377-8.377 0-1.104 0.896-2 2-2h44.49c1.104 0 2 0.896 2 2s-0.896 2-2 2h-42.651c-0.958 5.877-6.072 10.377-12.216 10.377z"/>
	<path d="m41.739 52.07h-25.863c-1.104 0-2-0.896-2-2s0.896-2 2-2h25.863c1.104 0 2 0.896 2 2s-0.895 2-2 2z"/>
	<path d="m71.038 40.392c-1.073 0-1.949-0.845-1.998-1.906-1.061-0.049-1.906-0.925-1.906-1.998 0-1.104 0.896-2 2-2 2.153 0 3.904 1.751 3.904 3.904 0 1.104-0.895 2-2 2zm-1.904-1.905h0.01-0.01z"/>
	<path d="m67.245 31.748c-1.104 0-2-0.896-2-2v-2.358c0-1.104 0.896-2 2-2s2 0.896 2 2v2.358c0 1.104-0.895 2-2 2z"/>
	<path d="m69.134 38.487h-3.778c-2.153 0-3.904-1.751-3.904-3.904v-2.931c0-2.153 1.751-3.904 3.904-3.904h3.778c2.153 0 3.904 1.751 3.904 3.904 0 1.104-0.896 2-2 2-1.072 0-1.948-0.844-1.998-1.904h-3.589v2.74h3.683c1.104 0 2 0.896 2 2s-0.896 1.999-2 1.999z"/>
	<path d="m67.245 47.586c-1.104 0-2-0.896-2-2v-2.358c0-1.104 0.896-2 2-2s2 0.896 2 2v2.358c0 1.104-0.895 2-2 2z"/>
	<path d="m69.134 45.228h-3.778c-2.153 0-3.904-1.751-3.904-3.904 0-1.104 0.896-2 2-2 1.072 0 1.948 0.844 1.998 1.904h3.589v-2.836c0-1.104 0.896-2 2-2s2 0.896 2 2v2.932c-1e-3 2.152-1.752 3.904-3.905 3.904zm-3.683-3.905h0.01-0.01z"/>
	<path d="m54.271 64.202h-38.395c-1.104 0-2-0.896-2-2s0.896-2 2-2h38.395c1.104 0 2 0.896 2 2s-0.896 2-2 2z"/>
	<path d="m59.09 11.045c-0.46 0-0.92-0.158-1.293-0.474l-6.863-5.814-6.862 5.814c-0.746 0.632-1.84 0.632-2.586 0l-6.863-5.814-6.863 5.814c-0.746 0.632-1.84 0.632-2.586 0l-6.863-5.814-6.862 5.814c-0.746 0.632-1.84 0.632-2.586 0l-8.156-6.909c-0.843-0.714-0.947-1.976-0.233-2.819 0.714-0.844 1.976-0.947 2.819-0.233l6.863 5.814 6.862-5.814c0.746-0.632 1.84-0.632 2.586 0l6.863 5.814 6.863-5.814c0.746-0.632 1.84-0.632 2.586 0l6.863 5.814 6.862-5.814c0.746-0.632 1.84-0.632 2.586 0l6.863 5.814 6.862-5.814c0.843-0.713 2.104-0.61 2.819 0.233 0.714 0.843 0.609 2.105-0.233 2.819l-8.155 6.909c-0.373 0.316-0.833 0.474-1.293 0.474z"/>
	<path d="m67.245 55.169c-10.402 0-18.865-8.463-18.865-18.865s8.463-18.865 18.865-18.865c10.401 0 18.864 8.463 18.864 18.865s-8.463 18.865-18.864 18.865zm0-33.73c-8.196 0-14.865 6.668-14.865 14.865s6.669 14.865 14.865 14.865 14.864-6.669 14.864-14.865c0-8.197-6.668-14.865-14.864-14.865z"/>
	<path d="m34.69 39.939h-18.814c-1.104 0-2-0.896-2-2s0.896-2 2-2h18.814c1.104 0 2 0.896 2 2s-0.896 2-2 2z"/>
	<path d="m41.739 27.808h-25.863c-1.104 0-2-0.896-2-2s0.896-2 2-2h25.863c1.104 0 2 0.896 2 2s-0.895 2-2 2z"/>
</g>
</svg>
