<?xml version="1.0" encoding="UTF-8"?>
<svg id="Layer_1" xmlns="http://www.w3.org/2000/svg" version="1.1" viewBox="0 0 400 400">
  <!-- Generator: Adobe Illustrator 29.3.1, SVG Export Plug-In . SVG Version: 2.1.0 Build 151)  -->
  <defs>
    <style>
      .st0 {
        fill: #d1d3d4;
      }

      .st1 {
        fill: #0095d5;
      }

      .st2 {
        fill: #01498b;
      }

      .st3 {
        fill: #f1f2f2;
      }

      .st4 {
        fill: #e9efff;
      }

      .st5 {
        fill: #0158a6;
      }
    </style>
  </defs>
  <g>
    <path class="st5" d="M88.79,73.79h222.42c10.49,0,19.01,8.52,19.01,19.01v39.5H69.78v-39.5c0-10.49,8.52-19.01,19.01-19.01Z"/>
    <path class="st0" d="M88.79,132.3h222.42c10.49,0,19.01,8.52,19.01,19.01v176.38H69.78v-176.38c0-10.49,8.52-19.01,19.01-19.01Z" transform="translate(400 460) rotate(180)"/>
    <path class="st3" d="M88.79,134.3h222.42c10.49,0,19.01,8.52,19.01,19.01v163.38H69.78v-163.38c0-10.49,8.52-19.01,19.01-19.01Z" transform="translate(400 451) rotate(180)"/>
    <path class="st1" d="M88.79,73.79h222.42c10.49,0,19.01,8.52,19.01,19.01v31.5H69.78v-31.5c0-10.49,8.52-19.01,19.01-19.01Z"/>
  </g>
  <rect class="st1" x="148.46" y="148.93" width="42.96" height="42.96" rx="5.63" ry="5.63"/>
  <rect class="st1" x="208.58" y="148.93" width="42.96" height="42.96" rx="5.63" ry="5.63"/>
  <rect class="st1" x="88.34" y="148.93" width="42.96" height="42.96" rx="5.63" ry="5.63"/>
  <rect class="st1" x="268.7" y="148.93" width="42.96" height="42.96" rx="5.63" ry="5.63"/>
  <rect class="st0" x="148.46" y="204.02" width="42.96" height="42.96" rx="5.63" ry="5.63"/>
  <rect class="st0" x="208.58" y="204.02" width="42.96" height="42.96" rx="5.63" ry="5.63"/>
  <rect class="st0" x="88.34" y="204.02" width="42.96" height="42.96" rx="5.63" ry="5.63"/>
  <rect class="st0" x="268.7" y="204.02" width="42.96" height="42.96" rx="5.63" ry="5.63"/>
  <rect class="st0" x="148.46" y="259.11" width="42.96" height="42.96" rx="5.63" ry="5.63"/>
  <rect class="st0" x="208.58" y="259.11" width="42.96" height="42.96" rx="5.63" ry="5.63"/>
  <rect class="st0" x="88.34" y="259.11" width="42.96" height="42.96" rx="5.63" ry="5.63"/>
  <rect class="st0" x="268.7" y="259.11" width="42.96" height="42.96" rx="5.63" ry="5.63"/>
  <path class="st0" d="M276.07,50.41v40.37c0,4.49-2.42,8.42-6.02,10.56-1.83,1.08-3.96,1.7-6.24,1.7-6.78,0-12.27-5.49-12.27-12.26v-40.37c0-5.04,3.05-9.37,7.4-11.26,1.49-.64,3.14-1,4.87-1,3.38,0,6.45,1.37,8.67,3.59,2.22,2.22,3.59,5.28,3.59,8.67Z"/>
  <path class="st3" d="M271.07,51.41v20.87c0,6.78-5.49,12.27-12.26,12.27-2.72,0-5.23-.88-7.27-2.37v-31.77c0-5.04,3.05-9.37,7.4-11.26,3.33.04,6.35,1.4,8.54,3.59,2.22,2.22,3.59,5.28,3.59,8.67Z"/>
  <path class="st0" d="M155.83,50.41v40.37c0,6.77-5.49,12.26-12.27,12.26s-12.26-5.49-12.26-12.26v-40.37c0-5.04,3.04-9.37,7.39-11.26,1.49-.64,3.14-1,4.87-1,3.39,0,6.46,1.37,8.68,3.59s3.59,5.28,3.59,8.67Z"/>
  <path class="st3" d="M150.83,51.41v20.87c0,6.78-5.49,12.27-12.27,12.27-2.72,0-5.23-.88-7.26-2.37v-31.77c0-5.04,3.04-9.37,7.39-11.26,3.34.04,6.36,1.4,8.55,3.59s3.59,5.28,3.59,8.67Z"/>
  <circle class="st5" cx="202.95" cy="278.02" r="76.37"/>
  <path class="st2" d="M276.07,279.04c0,39.38-31.92,71.31-71.3,71.31-15.9,0-30.61-5.21-42.47-14.03,4.91.94,9.97,1.43,15.16,1.43,44.61,0,80.76-36.16,80.76-80.76,0-11.18-2.27-21.82-6.38-31.5,14.86,13.06,24.23,32.21,24.23,53.54Z"/>
  <path class="st4" d="M191.42,305.57c-.3,0-.59-.02-.89-.05-2.28-.25-4.35-1.44-5.72-3.29l-15.85-21.48c-2.69-3.65-1.92-8.79,1.73-11.48,3.65-2.7,8.79-1.92,11.48,1.73l10.55,14.3,33.76-29.5c3.42-2.98,8.6-2.63,11.59.78,2.98,3.42,2.63,8.6-.78,11.59l-40.48,35.36c-1.5,1.31-3.43,2.03-5.4,2.03Z"/>
</svg>