<svg width="24" height="25" viewBox="0 0 24 25" fill="none" xmlns="http://www.w3.org/2000/svg">
<path d="M16.7502 4.06V2.5C16.7502 2.09 16.4102 1.75 16.0002 1.75C15.5902 1.75 15.2502 2.09 15.2502 2.5V4H8.75024V2.5C8.75024 2.09 8.41024 1.75 8.00024 1.75C7.59024 1.75 7.25024 2.09 7.25024 2.5V4.06C4.55024 4.31 3.24023 5.92 3.04023 8.31C3.02023 8.6 3.26023 8.84 3.54023 8.84H20.4602C20.7502 8.84 20.9902 8.59 20.9602 8.31C20.7602 5.92 19.4502 4.31 16.7502 4.06Z" fill="#F2F4FD"/>
<path opacity="0.4" d="M21 11.3401V13.0801C21 13.6901 20.46 14.1601 19.86 14.0601C19.58 14.0201 19.29 13.9901 19 13.9901C15.97 13.9901 13.5 16.4601 13.5 19.4901C13.5 19.9501 13.68 20.5901 13.87 21.1701C14.09 21.8201 13.61 22.4901 12.92 22.4901H8C4.5 22.4901 3 20.4901 3 17.4901V11.3301C3 10.7801 3.45 10.3301 4 10.3301H20C20.55 10.3401 21 10.7901 21 11.3401Z" fill="#F2F4FD"/>
<path d="M8.5 15.5009C8.24 15.5009 7.98 15.3909 7.79 15.2109C7.61 15.0209 7.5 14.7609 7.5 14.5009C7.5 14.2409 7.61 13.9809 7.79 13.7909C8.02 13.5609 8.37 13.4509 8.7 13.5209C8.76 13.5309 8.82 13.5509 8.88 13.5809C8.94 13.6009 9 13.6309 9.06 13.6709C9.11 13.7109 9.16 13.7509 9.21 13.7909C9.39 13.9809 9.5 14.2409 9.5 14.5009C9.5 14.7609 9.39 15.0209 9.21 15.2109C9.16 15.2509 9.11 15.2909 9.06 15.3309C9 15.3709 8.94 15.4009 8.88 15.4209C8.82 15.4509 8.76 15.4709 8.7 15.4809C8.63 15.4909 8.56 15.5009 8.5 15.5009Z" fill="#F2F4FD"/>
<path d="M12 15.4992C11.74 15.4992 11.48 15.3892 11.29 15.2092C11.11 15.0192 11 14.7592 11 14.4992C11 14.2392 11.11 13.9792 11.29 13.7892C11.67 13.4192 12.34 13.4192 12.71 13.7892C12.89 13.9792 13 14.2392 13 14.4992C13 14.7592 12.89 15.0192 12.71 15.2092C12.52 15.3892 12.26 15.4992 12 15.4992Z" fill="#F2F4FD"/>
<path d="M8.5 19.0008C8.24 19.0008 7.98 18.8908 7.79 18.7108C7.61 18.5208 7.5 18.2608 7.5 18.0008C7.5 17.7408 7.61 17.4809 7.79 17.2909C7.89 17.2009 7.99 17.1308 8.12 17.0808C8.49 16.9208 8.93 17.0109 9.21 17.2909C9.39 17.4809 9.5 17.7408 9.5 18.0008C9.5 18.2608 9.39 18.5208 9.21 18.7108C9.02 18.8908 8.76 19.0008 8.5 19.0008Z" fill="#F2F4FD"/>
<path d="M21.83 16.67C20.27 15.11 17.73 15.11 16.17 16.67C14.61 18.23 14.61 20.77 16.17 22.33C17.73 23.89 20.27 23.89 21.83 22.33C23.39 20.77 23.39 18.23 21.83 16.67ZM21.07 20.06C20.94 20.2 20.75 20.28 20.54 20.28H19.8V21.06C19.8 21.27 19.72 21.45 19.58 21.59C19.44 21.73 19.26 21.81 19.05 21.81C18.64 21.81 18.3 21.47 18.3 21.06V20.28H17.55C17.14 20.28 16.8 19.95 16.8 19.53C16.8 19.12 17.14 18.78 17.55 18.78H18.3V18.07C18.3 17.66 18.63 17.32 19.05 17.32C19.46 17.32 19.8 17.66 19.8 18.07V18.78H20.54C20.96 18.78 21.29 19.12 21.29 19.53C21.29 19.74 21.21 19.93 21.07 20.06Z" fill="#F2F4FD"/>
</svg>
