<svg width="24" height="25" viewBox="0 0 24 25" fill="none" xmlns="http://www.w3.org/2000/svg">
<path d="M13.7321 22.2697L14.2742 21.3539L12.9833 20.5898L12.4412 21.5057L13.7321 22.2697ZM9.72579 21.3539L10.2679 22.2697L11.5587 21.5057L11.0166 20.5898L9.72579 21.3539ZM12.4412 21.5057C12.2485 21.8313 11.7515 21.8313 11.5587 21.5057L10.2679 22.2697C11.0415 23.5767 12.9585 23.5767 13.7321 22.2697L12.4412 21.5057ZM10.5 3.25H13.5V1.75H10.5V3.25ZM21.25 11V12H22.75V11H21.25ZM2.75 12V11H1.25V12H2.75ZM1.25 12C1.25 13.1546 1.24959 14.0581 1.29931 14.7868C1.3495 15.5223 1.45323 16.1344 1.68769 16.7004L3.07351 16.1264C2.92737 15.7736 2.84081 15.3438 2.79584 14.6847C2.75041 14.0189 2.75 13.1751 2.75 12H1.25ZM7.8025 18.7416C6.54706 18.7199 5.88923 18.6401 5.37359 18.4265L4.79957 19.8123C5.60454 20.1457 6.52138 20.2197 7.77666 20.2413L7.8025 18.7416ZM1.68769 16.7004C2.27128 18.1093 3.39066 19.2287 4.79957 19.8123L5.37359 18.4265C4.33222 17.9951 3.50486 17.1678 3.07351 16.1264L1.68769 16.7004ZM21.25 12C21.25 13.1751 21.2496 14.0189 21.2042 14.6847C21.1592 15.3438 21.0726 15.7736 20.9265 16.1264L22.3123 16.7004C22.5468 16.1344 22.6505 15.5223 22.7007 14.7868C22.7504 14.0581 22.75 13.1546 22.75 12H21.25ZM16.2233 20.2413C17.4786 20.2197 18.3955 20.1457 19.2004 19.8123L18.6264 18.4265C18.1108 18.6401 17.4529 18.7199 16.1975 18.7416L16.2233 20.2413ZM20.9265 16.1264C20.4951 17.1678 19.6678 17.9951 18.6264 18.4265L19.2004 19.8123C20.6093 19.2287 21.7287 18.1093 22.3123 16.7004L20.9265 16.1264ZM13.5 3.25C15.1512 3.25 16.337 3.25079 17.2619 3.33873C18.1757 3.42561 18.7571 3.59223 19.2206 3.87628L20.0044 2.59732C19.2655 2.14457 18.4274 1.94279 17.4039 1.84547C16.3915 1.74921 15.1222 1.75 13.5 1.75V3.25ZM22.75 11C22.75 9.37781 22.7508 8.1085 22.6545 7.09611C22.5572 6.07256 22.3554 5.23445 21.9027 4.49563L20.6237 5.27938C20.9078 5.74291 21.0744 6.32434 21.1613 7.23809C21.2492 8.163 21.25 9.34876 21.25 11H22.75ZM19.2206 3.87628C19.7925 4.22672 20.2733 4.70752 20.6237 5.27938L21.9027 4.49563C21.4286 3.72194 20.7781 3.07144 20.0044 2.59732L19.2206 3.87628ZM10.5 1.75C8.87781 1.75 7.6085 1.74921 6.59611 1.84547C5.57256 1.94279 4.73445 2.14457 3.99563 2.59732L4.77938 3.87628C5.24291 3.59223 5.82434 3.42561 6.73809 3.33873C7.663 3.25079 8.84876 3.25 10.5 3.25V1.75ZM2.75 11C2.75 9.34876 2.75079 8.163 2.83873 7.23809C2.92561 6.32434 3.09223 5.74291 3.37628 5.27938L2.09732 4.49563C1.64457 5.23445 1.44279 6.07256 1.34547 7.09611C1.24921 8.1085 1.25 9.37781 1.25 11H2.75ZM3.99563 2.59732C3.22194 3.07144 2.57144 3.72194 2.09732 4.49563L3.37628 5.27938C3.72672 4.70752 4.20752 4.22672 4.77938 3.87628L3.99563 2.59732ZM11.0166 20.5898C10.8136 20.2468 10.6354 19.9441 10.4621 19.7063C10.2795 19.4559 10.0702 19.2304 9.77986 19.0615L9.02572 20.3582C9.07313 20.3857 9.13772 20.436 9.24985 20.5898C9.37122 20.7564 9.50835 20.9865 9.72579 21.3539L11.0166 20.5898ZM7.77666 20.2413C8.21575 20.2489 8.49387 20.2545 8.70588 20.2779C8.90399 20.2999 8.98078 20.332 9.02572 20.3582L9.77986 19.0615C9.4871 18.8912 9.18246 18.8215 8.87097 18.787C8.57339 18.7541 8.21375 18.7487 7.8025 18.7416L7.77666 20.2413ZM14.2742 21.3539C14.4916 20.9865 14.6287 20.7564 14.7501 20.5898C14.8622 20.436 14.9268 20.3857 14.9742 20.3582L14.2201 19.0615C13.9298 19.2304 13.7204 19.4559 13.5379 19.7063C13.3646 19.9441 13.1864 20.2468 12.9833 20.5898L14.2742 21.3539ZM16.1975 18.7416C15.7862 18.7487 15.4266 18.7541 15.129 18.787C14.8175 18.8215 14.5129 18.8912 14.2201 19.0615L14.9742 20.3582C15.0192 20.332 15.096 20.2999 15.2941 20.2779C15.5061 20.2545 15.7842 20.2489 16.2233 20.2413L16.1975 18.7416Z" fill="#1B46C5"/>
<path opacity="0.4" d="M12 15.5V7.5" stroke="#1B46C5" stroke-width="1.5" stroke-linecap="round"/>
<path opacity="0.4" d="M8 13.5V9.5" stroke="#1B46C5" stroke-width="1.5" stroke-linecap="round"/>
<path opacity="0.4" d="M16 14V10" stroke="#1B46C5" stroke-width="1.5" stroke-linecap="round"/>
</svg>
