<svg width="16" height="17" viewBox="0 0 16 17" fill="none" xmlns="http://www.w3.org/2000/svg">
<path d="M7.99967 1.83398C4.32567 1.83398 1.33301 4.82665 1.33301 8.50065C1.33301 12.1747 4.32567 15.1673 7.99967 15.1673C11.6737 15.1673 14.6663 12.1747 14.6663 8.50065C14.6663 4.82665 11.6737 1.83398 7.99967 1.83398ZM7.99967 3.16732C10.9531 3.16732 13.333 5.54724 13.333 8.50065C13.333 11.4541 10.9531 13.834 7.99967 13.834C5.04626 13.834 2.66634 11.4541 2.66634 8.50065C2.66634 5.54724 5.04626 3.16732 7.99967 3.16732ZM7.33301 4.50065V8.77669L10.195 11.6387L11.1377 10.696L8.66634 8.22461V4.50065H7.33301Z" fill="#2057A4"/>
</svg>
