<svg width="19" height="20" viewBox="0 0 19 20" fill="none" xmlns="http://www.w3.org/2000/svg">
<path d="M4.08333 1H2.75C1.64543 1 0.75 1.89543 0.75 3V8C0.75 10.7614 2.98858 13 5.75 13M7.41667 1H8.75C9.85457 1 10.75 1.89543 10.75 3V8C10.75 10.7614 8.51142 13 5.75 13M5.75 13V14C5.75 16.7614 7.98858 19 10.75 19C13.5114 19 15.75 16.7614 15.75 14V13M15.75 13C16.8546 13 17.75 12.1046 17.75 11C17.75 9.89543 16.8546 9 15.75 9C14.6454 9 13.75 9.89543 13.75 11C13.75 12.1046 14.6454 13 15.75 13Z" stroke="#BACBE3" stroke-width="1.25" stroke-linecap="round"/>
</svg>
