<svg width="24" height="24" viewBox="0 0 24 24" fill="none" xmlns="http://www.w3.org/2000/svg">
<path d="M16.8 22V21.375V22ZM7.2 22V22.625V22ZM4 18.8H3.375H4ZM4 5.2H4.625H4ZM4.21799 3.09202L3.66111 2.80827L3.66111 2.80827L4.21799 3.09202ZM7.2 2V2.625V2ZM5.09202 2.21799L4.80828 1.66111L4.80828 1.66111L5.09202 2.21799ZM5.09202 21.782L4.80827 22.3389H4.80827L5.09202 21.782ZM4.21799 20.908L4.77487 20.6242H4.77487L4.21799 20.908ZM18.908 21.782L18.6242 21.2251L18.908 21.782ZM20 18.8H20.625H20ZM19.782 20.908L19.2251 20.6242L19.782 20.908ZM20.625 8C20.625 7.65482 20.3452 7.375 20 7.375C19.6548 7.375 19.375 7.65482 19.375 8H20.625ZM14 2.625C14.3452 2.625 14.625 2.34518 14.625 2C14.625 1.65482 14.3452 1.375 14 1.375V2.625ZM19.8293 7.82929L20.2712 7.38735L19.8293 7.82929ZM14.1707 2.17071L13.7288 2.61265V2.61265L14.1707 2.17071ZM19.7586 8V8.625V8ZM15 8V7.375V8ZM14 7H14.625H14ZM14 2.24142L13.375 2.24142V2.24142H14ZM8 11.375C7.65482 11.375 7.375 11.6548 7.375 12C7.375 12.3452 7.65482 12.625 8 12.625V11.375ZM16 12.625C16.3452 12.625 16.625 12.3452 16.625 12C16.625 11.6548 16.3452 11.375 16 11.375V12.625ZM8 7.375C7.65482 7.375 7.375 7.65482 7.375 8C7.375 8.34518 7.65482 8.625 8 8.625V7.375ZM10 8.625C10.3452 8.625 10.625 8.34518 10.625 8C10.625 7.65482 10.3452 7.375 10 7.375V8.625ZM8 15.375C7.65482 15.375 7.375 15.6548 7.375 16C7.375 16.3452 7.65482 16.625 8 16.625V15.375ZM16 16.625C16.3452 16.625 16.625 16.3452 16.625 16C16.625 15.6548 16.3452 15.375 16 15.375V16.625ZM16.8 21.375H7.2V22.625H16.8V21.375ZM4.625 18.8L4.625 5.2H3.375L3.375 18.8H4.625ZM4.625 5.2C4.625 4.62963 4.62549 4.23945 4.65017 3.9373C4.67426 3.64244 4.71825 3.48688 4.77487 3.37576L3.66111 2.80827C3.49974 3.12498 3.43473 3.46335 3.40433 3.83551C3.37452 4.20037 3.375 4.65026 3.375 5.2H4.625ZM7.2 1.375C6.65026 1.375 6.20037 1.37451 5.83551 1.40432C5.46336 1.43473 5.12498 1.49974 4.80828 1.66111L5.37576 2.77487C5.48688 2.71825 5.64245 2.67426 5.9373 2.65017C6.23945 2.62549 6.62964 2.625 7.2 2.625V1.375ZM4.77487 3.37576C4.90669 3.11704 5.11704 2.90669 5.37577 2.77487L4.80828 1.66111C4.31435 1.91278 3.91278 2.31435 3.66111 2.80827L4.77487 3.37576ZM7.2 21.375C6.62963 21.375 6.23945 21.3745 5.9373 21.3498C5.64244 21.3257 5.48688 21.2818 5.37576 21.2251L4.80827 22.3389C5.12498 22.5003 5.46335 22.5653 5.83551 22.5957C6.20037 22.6255 6.65026 22.625 7.2 22.625V21.375ZM3.375 18.8C3.375 19.3497 3.37451 19.7996 3.40432 20.1645C3.43473 20.5366 3.49974 20.875 3.66111 21.1917L4.77487 20.6242C4.71825 20.5131 4.67426 20.3576 4.65017 20.0627C4.62549 19.7605 4.625 19.3704 4.625 18.8H3.375ZM5.37576 21.2251C5.11704 21.0933 4.90669 20.883 4.77487 20.6242L3.66111 21.1917C3.91278 21.6856 4.31435 22.0872 4.80827 22.3389L5.37576 21.2251ZM16.8 22.625C17.3497 22.625 17.7996 22.6255 18.1645 22.5957C18.5366 22.5653 18.875 22.5003 19.1917 22.3389L18.6242 21.2251C18.5131 21.2818 18.3576 21.3257 18.0627 21.3498C17.7606 21.3745 17.3704 21.375 16.8 21.375V22.625ZM19.375 18.8C19.375 19.3704 19.3745 19.7606 19.3498 20.0627C19.3257 20.3576 19.2818 20.5131 19.2251 20.6242L20.3389 21.1917C20.5003 20.875 20.5653 20.5366 20.5957 20.1645C20.6255 19.7996 20.625 19.3497 20.625 18.8H19.375ZM19.1917 22.3389C19.6857 22.0872 20.0872 21.6856 20.3389 21.1917L19.2251 20.6242C19.0933 20.883 18.883 21.0933 18.6242 21.2251L19.1917 22.3389ZM19.375 8V18.8H20.625V8H19.375ZM7.2 2.625L14 2.625V1.375L7.2 1.375V2.625ZM20.2712 7.38735L14.6127 1.72877L13.7288 2.61265L19.3873 8.27123L20.2712 7.38735ZM19.7586 7.375L15 7.375V8.625L19.7586 8.625V7.375ZM14.625 7V2.24142H13.375V7H14.625ZM15 7.375C14.7929 7.375 14.625 7.20711 14.625 7H13.375C13.375 7.89746 14.1025 8.625 15 8.625V7.375ZM14.6127 1.72877C14.1559 1.27205 13.375 1.59552 13.375 2.24142L14.625 2.24142C14.625 2.70915 14.0595 2.94339 13.7288 2.61265L14.6127 1.72877ZM19.3873 8.27123C19.0566 7.9405 19.2909 7.375 19.7586 7.375V8.625C20.4045 8.625 20.728 7.84408 20.2712 7.38735L19.3873 8.27123ZM8 12.625H16V11.375H8V12.625ZM8 8.625H10V7.375H8V8.625ZM8 16.625H16V15.375H8V16.625Z" fill="#808080"/>
</svg>
