<svg width="24" height="24" viewBox="0 0 24 24" fill="none" xmlns="http://www.w3.org/2000/svg">
<path opacity="0.4" d="M13.4095 20.7898L11.9996 21.6998C10.6896 22.5098 8.86957 21.5998 8.86957 19.9798V14.6298C8.86957 13.9198 8.46957 13.0098 8.05957 12.5098L4.21954 8.46976C3.70954 7.95976 3.30957 7.05977 3.30957 6.44977V4.12976C3.30957 2.91976 4.21959 2.00977 5.32959 2.00977H18.6696C19.7796 2.00977 20.6896 2.91975 20.6896 4.02975V6.24976C20.6896 7.05976 20.1796 8.06976 19.6796 8.56976" stroke="#2057A4" stroke-width="1.5" stroke-miterlimit="10" stroke-linecap="round" stroke-linejoin="round"/>
<path d="M17.0802 11.8904L13.5401 15.4304C13.4001 15.5704 13.2701 15.8304 13.2401 16.0204L13.0501 17.3704C12.9801 17.8604 13.3202 18.2004 13.8102 18.1304L15.1601 17.9404C15.3501 17.9104 15.6202 17.7804 15.7502 17.6404L19.2901 14.1004C19.9001 13.4904 20.1901 12.7804 19.2901 11.8804C18.4001 10.9904 17.6902 11.2804 17.0802 11.8904Z" stroke="#2057A4" stroke-width="1.5" stroke-miterlimit="10" stroke-linecap="round" stroke-linejoin="round"/>
<path d="M16.5801 12.3906C16.8801 13.4706 17.72 14.3106 18.8 14.6106" stroke="#2057A4" stroke-width="1.5" stroke-miterlimit="10" stroke-linecap="round" stroke-linejoin="round"/>
</svg>
