<svg width="21" height="20" viewBox="0 0 21 20" fill="none" xmlns="http://www.w3.org/2000/svg">
<path fill-rule="evenodd" clip-rule="evenodd" d="M0.41333 8.00488C0.41333 6.90031 1.30876 6.00488 2.41333 6.00488H18.4133C19.5179 6.00488 20.4133 6.90031 20.4133 8.00488V18.0049C20.4133 19.1095 19.5179 20.0049 18.4133 20.0049H2.41333C1.30876 20.0049 0.41333 19.1095 0.41333 18.0049V8.00488Z" fill="#199D00"/>
<path fill-rule="evenodd" clip-rule="evenodd" d="M4.95635 9.97339C4.95635 9.97339 4.95636 9.9734 4.95636 9.97341C4.93172 10.3005 4.90219 10.876 5.1845 10.9351C5.45809 10.961 5.39159 10.5802 5.41792 10.3717C5.42824 10.29 5.52697 10.1887 5.53127 10.271V10.7809C5.52948 10.8767 5.56562 10.9334 5.61305 10.9709C5.67861 11.0226 5.77583 11.0043 5.85061 11.0416C5.90653 11.0694 5.91088 11.1437 5.91385 11.2061L5.92301 11.3985C5.93994 11.7541 6.16257 11.8537 6.16891 11.4977C6.17483 11.3035 6.15017 11.1282 6.13877 11.0048C6.12848 10.8936 6.18752 10.7472 6.28572 10.8004C6.375 10.8624 6.41475 10.9389 6.55347 10.9083C6.76452 10.8511 6.89141 10.75 6.89452 10.5905C6.88271 10.4453 6.86636 10.3001 6.80639 10.1549C6.80126 10.1424 6.80082 10.1329 6.79863 10.1196C6.79129 10.0752 6.82655 10.0701 6.85921 10.039C6.86318 10.0353 6.86666 10.0306 6.86953 10.0251C6.87475 10.0152 6.87379 10.0033 6.8703 9.99263C6.84607 9.91836 6.81342 9.84722 6.76846 9.79457C6.72621 9.7451 6.67003 9.69764 6.60503 9.69499C6.58215 9.69406 6.55945 9.69973 6.53887 9.71282C6.4675 9.7582 6.45975 9.8592 6.4732 9.9427C6.49048 10.05 6.54091 10.1626 6.60992 10.2636C6.63019 10.2932 6.64922 10.324 6.66081 10.3579C6.66438 10.3684 6.66786 10.3794 6.67108 10.3908C6.69929 10.4903 6.61745 10.6033 6.5353 10.5404C6.51996 10.5287 6.50368 10.5133 6.48833 10.5016C6.47018 10.4878 6.44383 10.4673 6.41857 10.4462C6.36227 10.3993 6.35042 10.3311 6.3583 10.2583C6.36899 10.1593 6.36553 10.1044 6.35677 10.0642C6.3437 10.0043 6.32867 9.94389 6.30138 9.88899C6.3005 9.88722 6.29961 9.88548 6.29871 9.88376C6.25333 9.79699 6.14295 9.67766 6.09138 9.76091C6.01711 9.88765 6.05175 10.1597 6.10538 10.2815C6.11079 10.2971 6.11659 10.3119 6.12249 10.3259C6.15913 10.4122 6.11024 10.5242 6.07005 10.4395C6.02055 10.2885 6.01063 10.063 6.01063 9.96156C5.99889 9.86193 5.98621 9.67297 5.9397 9.5647C5.91873 9.51588 5.87794 9.4585 5.82486 9.46102C5.74873 9.46464 5.73886 9.56561 5.73792 9.64182C5.73733 9.68915 5.73791 9.73604 5.74022 9.78194C5.74388 9.85508 5.76051 9.9267 5.77702 9.99805C5.81404 10.158 5.83038 10.308 5.85336 10.4777C5.85797 10.6421 5.79978 10.6537 5.75335 10.6072C5.67777 10.5315 5.71247 10.4081 5.71986 10.3014C5.73055 10.147 5.71823 9.98248 5.69263 9.93036C5.65232 9.82668 5.5035 9.86694 5.44166 9.95941C5.40956 10.0074 5.37861 10.0706 5.35666 10.1466C5.33836 10.21 5.32648 10.2752 5.31287 10.3398C5.30393 10.3822 5.29433 10.4333 5.28827 10.4817C5.26938 10.6084 5.18466 10.6978 5.12522 10.4639C5.07389 10.2939 5.04233 9.8754 4.95635 9.97335C4.95634 9.97336 4.95634 9.97338 4.95635 9.97339Z" fill="white"/>
<path fill-rule="evenodd" clip-rule="evenodd" d="M5.69778 11.1738C5.83486 11.1776 5.77215 11.3685 5.64824 11.4272C5.60542 11.4475 5.56272 11.4677 5.52011 11.4878C5.28278 11.5998 5.13612 11.4427 5.35644 11.3002C5.47004 11.2267 5.59302 11.1757 5.69778 11.1738Z" fill="white"/>
<path fill-rule="evenodd" clip-rule="evenodd" d="M5.72852 11.5896C5.72852 11.5896 5.72852 11.5896 5.72852 11.5896C5.2696 12.7541 6.76202 12.937 6.98828 11.7174C6.99791 11.6655 7.00204 11.5965 7.05036 11.5753C7.09772 11.5545 7.09472 11.6454 7.09078 11.697C7.00622 12.8048 5.87917 12.8742 5.684 12.5106C5.63452 12.4229 5.61964 12.2279 5.61469 12.1109C5.58497 11.8787 5.46125 11.968 5.44144 12.1987C5.42161 12.327 5.42658 12.3628 5.42658 12.4862C5.48927 13.4203 7.00258 13.019 7.24844 12.2474C7.28089 12.1411 7.29586 12.0417 7.30112 11.9523C7.31835 11.6603 7.51611 11.6969 7.70386 11.4726C7.75005 11.4082 7.83974 11.4943 7.91837 11.5037C8.0253 11.5165 8.14302 11.4668 8.17422 11.3605C8.18801 11.2809 8.20025 11.1999 8.20926 11.1173C8.21994 11.0194 8.06692 10.9076 8.05047 11.0048L8.03066 11.1314C8.02849 11.1422 8.02112 11.1502 8.0114 11.1552C7.9541 11.1848 7.9385 11.0834 7.89639 11.0345C7.85374 10.9851 7.78936 10.9855 7.73049 11.0565C7.66711 11.1329 7.61043 11.2557 7.51673 11.223C7.5032 11.2182 7.49198 11.2103 7.48463 11.1986C7.47581 11.1846 7.47786 11.1558 7.4781 11.1392C7.48015 10.9953 7.2622 10.9068 7.24285 10.7641C7.21693 10.5731 7.19102 10.384 7.16509 10.1911C7.15668 10.1285 7.19851 10.0967 7.26046 10.0843C7.29595 10.0771 7.30611 10.0288 7.2947 9.99441C7.25156 9.86464 7.18772 9.68185 7.13218 9.57352C7.0983 9.50743 7.03373 9.46293 6.9613 9.47939C6.88869 9.50214 6.82102 9.56388 6.84244 9.68408C6.92827 10.1974 6.98439 10.5889 7.07022 11.1022C7.09728 11.2257 6.92002 11.1877 6.83267 11.0963C6.78723 11.0487 6.73212 11.0112 6.63458 11.0144C6.49594 11.0161 6.33747 11.1639 6.31772 11.3069C6.27304 11.5266 6.40886 11.7763 6.62665 11.7231C6.6293 11.7224 6.63193 11.7218 6.63455 11.7211C6.76479 11.6683 6.83829 11.7026 6.76823 11.8244C6.71401 11.9187 6.61076 12.0316 6.42164 12.1304C6.17908 12.2376 5.98597 12.2621 5.88205 12.0671C5.81769 11.9453 5.88699 11.4823 5.72854 11.5895C5.72853 11.5895 5.72852 11.5895 5.72852 11.5896Z" fill="white"/>
<path fill-rule="evenodd" clip-rule="evenodd" d="M7.56637 10.3925C7.6677 10.3917 7.76459 10.3537 7.8384 10.2843C7.9547 10.1749 8.11453 10.0012 8.19872 9.90828C8.23027 9.87345 8.22499 9.82127 8.18907 9.79097C8.15129 9.75879 8.2172 9.71918 8.24224 9.67632C8.25665 9.65165 8.262 9.62375 8.2609 9.59582C8.25707 9.49885 8.1476 9.42489 8.05143 9.43787C7.98482 9.44685 7.93436 9.48508 7.90977 9.54763C7.90681 9.55515 7.90429 9.56276 7.90222 9.57042C7.87363 9.67614 8.09556 9.77761 8.01085 9.84703C7.89528 9.96854 7.65235 10.1459 7.5047 10.2623C7.41599 10.3323 7.45339 10.3933 7.56637 10.3925ZM5.02532 12.1572C4.85821 12.4192 4.84366 12.8108 4.93588 12.9275C4.98488 12.9826 5.06538 13.0068 5.12494 12.9895C5.20465 12.9555 5.25033 12.8266 5.2568 12.733C5.26023 12.6833 5.24391 12.609 5.19426 12.6124C5.15876 12.6148 5.14712 12.6595 5.12622 12.6882C5.07174 12.7633 5.04791 12.6775 5.0423 12.6059C5.03096 12.4494 5.04594 12.3053 5.06319 12.1912C5.08157 12.0742 5.06291 12.1099 5.02532 12.1572ZM12.1666 11.7374C12.1666 11.7374 12.1665 11.7374 12.1665 11.7374C12.005 11.3951 11.7813 11.0567 11.7101 10.9268C11.6389 10.7968 11.1016 10.0292 11.0225 9.94284C10.8733 9.76827 11.1865 9.95437 11.0671 9.75865C11.0081 9.66205 10.9213 9.58562 10.8347 9.51279C10.8025 9.48574 10.7736 9.4616 10.7189 9.41617C10.6644 9.37811 10.5313 9.30858 10.5077 9.42383C10.4959 9.52547 10.5023 9.58056 10.5196 9.66519C10.5329 9.7216 10.6164 9.81608 10.6575 9.87082C11.1414 10.5112 11.5767 11.1572 11.9945 11.935C12.0842 12.102 12.2127 12.0976 12.2001 11.9084C12.1948 11.8279 12.1825 11.7587 12.1666 11.7374C12.1666 11.7374 12.1666 11.7374 12.1666 11.7374Z" fill="white"/>
<path fill-rule="evenodd" clip-rule="evenodd" d="M11.7425 12.7373C11.5653 12.8517 11.4682 13.0688 11.6791 13.0685C11.9186 13.0412 12.1295 12.9087 12.3247 12.5601C12.377 12.4787 12.4687 12.3048 12.4714 12.17C12.4897 11.379 12.4312 10.7636 12.3108 10.1919C12.3066 10.1617 12.3061 10.1286 12.308 10.1019C12.3104 10.0694 12.3225 10.0475 12.3548 10.0426C12.3948 10.0366 12.4241 9.98992 12.4167 9.95013C12.3955 9.83663 12.2871 9.60015 12.2193 9.49587C12.1891 9.43725 12.1785 9.39809 12.1283 9.50277C12.0756 9.5878 12.0402 9.73623 12.0443 9.87491C12.1586 10.6537 12.1937 11.335 12.2684 12.1139C12.2745 12.1892 12.2632 12.2986 12.2123 12.3423C12.0869 12.4712 11.9244 12.62 11.7425 12.7373ZM14.6932 12.8793C14.6932 12.8793 14.6932 12.8793 14.6932 12.8793C14.5271 12.9738 14.5213 13.082 14.6465 13.0929C14.6555 13.0937 14.6646 13.0932 14.6736 13.0922C14.9102 13.0655 15.1864 13.0413 15.3779 12.7566C15.4302 12.6753 15.4922 12.4554 15.4949 12.3205C15.5132 11.5296 15.4844 10.9392 15.364 10.3676C15.359 10.3317 15.3469 10.2655 15.3414 10.2187C15.3374 10.1843 15.3452 10.1495 15.3799 10.1488C15.4356 10.1476 15.4699 10.0975 15.4444 10.0479C15.3875 9.93715 15.238 9.74357 15.1749 9.64643C15.1446 9.58783 15.134 9.54868 15.0839 9.65332C15.0311 9.73839 15.0127 9.89099 15.0338 10.0255C15.1566 10.8428 15.249 11.4637 15.2727 12.1811C15.2743 12.2309 15.2729 12.2758 15.2643 12.325C15.2494 12.4101 15.2006 12.4901 15.1474 12.5581C15.0957 12.6242 15.0424 12.6878 14.9914 12.7253C14.9136 12.7824 14.7474 12.837 14.6932 12.8793C14.6932 12.8793 14.6932 12.8793 14.6932 12.8793Z" fill="white"/>
<path fill-rule="evenodd" clip-rule="evenodd" d="M14.8214 12.1202C14.8194 11.9224 14.8242 11.7516 14.8176 11.6041C14.811 11.4566 14.7845 11.3365 14.7327 11.2318C14.6836 11.1195 14.7141 11.0293 14.691 10.9097C14.668 10.7901 14.6736 10.6111 14.6388 10.4692C14.6319 10.4288 14.6144 10.3232 14.609 10.2626C14.6064 10.2338 14.6109 10.2018 14.6398 10.1999C14.6851 10.1969 14.7129 10.1526 14.7043 10.1081C14.6772 9.96792 14.549 9.6571 14.477 9.55385C14.4694 9.54031 14.4604 9.53105 14.4501 9.52601C14.3481 9.47617 14.2657 9.65597 14.2718 9.76928C14.2748 9.82427 14.2861 9.88561 14.2975 9.94558C14.4694 10.8285 14.5976 11.6277 14.5696 12.4682C14.5611 12.5397 14.8232 12.2551 14.8214 12.1202ZM13.5514 11.025C13.5514 11.025 13.5514 11.0251 13.5514 11.0251C13.4523 11.0232 13.2539 10.8509 13.1706 10.7296C13.1564 10.7089 13.1454 10.6861 13.1412 10.6615C13.1378 10.6419 13.1374 10.6229 13.139 10.605C13.1442 10.5481 13.1871 10.4989 13.243 10.487C13.2633 10.4826 13.2839 10.4827 13.3024 10.4907C13.3086 10.4934 13.3094 10.4925 13.3133 10.498C13.3341 10.5271 13.3898 10.5956 13.4221 10.5803C13.4303 10.5765 13.4356 10.57 13.4385 10.5625C13.4397 10.5593 13.4403 10.5559 13.4404 10.5526C13.4412 10.5368 13.4383 10.5234 13.4347 10.51C13.4232 10.468 13.4222 10.4213 13.4483 10.3865C13.499 10.3186 13.6013 10.3183 13.645 10.382C13.6845 10.4301 13.699 10.5322 13.705 10.6011C13.7044 10.6363 13.6465 10.595 13.6136 10.6035C13.5806 10.612 13.5727 10.6494 13.5701 10.6832C13.5642 10.7728 13.5534 10.9167 13.5514 11.025ZM11.5561 12.3395C11.5859 12.0707 11.5451 11.5921 11.5424 11.4336C11.5315 11.059 11.4693 10.3354 11.4397 10.2145C11.4064 9.98665 11.5349 10.2395 11.5171 10.107C11.4755 9.87951 11.3472 9.72527 11.1965 9.51685C11.1275 9.42057 11.0364 9.58765 11.0354 9.70611C11.0346 9.80793 11.0705 9.89573 11.0846 9.99083C11.1933 10.4613 11.2567 10.8942 11.2863 11.3221C11.3063 11.6123 11.3169 11.9185 11.3133 12.2261C11.3104 12.4663 11.501 12.5733 11.5561 12.3395Z" fill="white"/>
<path fill-rule="evenodd" clip-rule="evenodd" d="M15.1985 11.9255C15.1893 11.9037 15.1833 11.899 15.1708 11.879C14.9806 11.5728 14.7086 11.2493 14.6342 11.1265C14.5574 10.9997 13.9074 10.1741 13.8245 10.0913C13.5868 9.84536 13.9336 10.0512 13.779 9.86131C13.6483 9.71999 13.6101 9.67564 13.4982 9.59066C13.4421 9.55497 13.4081 9.48681 13.3897 9.60296C13.3823 9.70501 13.3747 9.82308 13.3816 9.90908C13.3813 9.9569 13.4318 10.0467 13.4753 10.0997C13.9616 10.6879 14.4852 11.2865 14.941 11.9967C15.0842 12.22 15.3017 12.1699 15.1985 11.9255Z" fill="white"/>
<path fill-rule="evenodd" clip-rule="evenodd" d="M6.54024 11.3285C6.53871 11.3311 6.53697 11.3338 6.5351 11.3366C6.50345 11.3842 6.52333 11.448 6.58038 11.4505C6.63826 11.4505 6.69787 11.4136 6.682 11.3579C6.68125 11.3553 6.68035 11.3526 6.6793 11.35C6.64708 11.2707 6.55708 11.3002 6.54024 11.3285Z" fill="#1BA400"/>
<path fill-rule="evenodd" clip-rule="evenodd" d="M12.9745 15.9188C12.9745 15.9188 12.9745 15.9188 12.9745 15.9188C13.144 15.925 13.2746 15.928 13.4097 15.9372C13.5518 15.9468 13.6947 15.9511 13.8362 15.9343C13.8567 15.9318 13.8749 15.9295 13.8884 15.9275C14.1275 15.905 14.1815 16.1911 14.1934 16.3007C14.1964 16.3285 14.1969 16.3565 14.1952 16.3844C14.1818 16.6037 14.0842 16.6172 13.9617 16.6431C13.8494 16.6571 13.7302 16.5701 13.618 16.5555C13.6164 16.5553 13.6148 16.5551 13.6131 16.5548C13.5069 16.5483 13.4006 16.5487 13.2944 16.5422C13.2424 16.5377 13.2016 16.5398 13.1616 16.5424C13.0676 16.5486 12.978 16.635 12.8861 16.6137C12.8309 16.6077 12.766 16.461 12.7787 16.3425C12.7798 16.3329 12.791 16.3066 12.7952 16.2979C12.8173 16.2518 12.7684 16.2304 12.7173 16.2291C11.7041 16.2026 10.6826 16.1598 9.68921 16.1725C8.88921 16.1758 8.0991 16.2085 7.30902 16.2412C6.84905 16.234 6.97174 15.8842 7.43171 15.8912C7.55397 15.8931 7.65896 15.8926 7.72732 15.8882C8.2983 15.8817 8.81946 15.8359 9.40041 15.8196C10.4235 15.8371 11.4388 15.839 12.4602 15.8951C12.5607 15.9006 12.7647 15.667 12.8597 15.6335C12.8704 15.6297 12.8878 15.6274 12.8919 15.6381C12.9009 15.6618 12.9098 15.7132 12.9283 15.7118C13.0631 15.7019 13.0042 15.8815 12.9745 15.9187C12.9744 15.9188 12.9745 15.9188 12.9745 15.9188ZM8.37646 9.70475C8.37646 9.70474 8.37645 9.70474 8.37645 9.70475C8.22108 10.142 8.42367 10.6159 8.60362 10.673C8.64227 10.6852 8.68749 10.6908 8.72639 10.6793C8.82182 10.6512 8.88837 10.4585 8.93509 10.2409C8.94163 10.2105 8.95951 10.1593 8.98147 10.1371C9.0216 10.0967 9.03068 10.1782 9.03091 10.2351C9.03155 10.392 9.04131 10.4881 9.06325 10.559C9.09949 10.676 9.20124 10.7725 9.32226 10.7914C9.45845 10.8127 9.55632 10.7338 9.56657 10.7237L9.73557 10.5573C9.80707 10.4833 9.89254 10.6021 9.9608 10.6791C9.97733 10.6978 9.99942 10.7158 10.0313 10.7318C10.1244 10.7684 10.3233 10.7402 10.3694 10.6613C10.4314 10.5567 10.4463 10.5208 10.475 10.4811C10.5001 10.4482 10.5353 10.4423 10.5611 10.4467C10.5884 10.4513 10.5901 10.4804 10.5771 10.5048C10.575 10.5087 10.5729 10.5127 10.5711 10.5169C10.5508 10.5627 10.6019 10.6253 10.6475 10.6043C10.6643 10.5965 10.6783 10.592 10.6934 10.5811C10.7388 10.5482 10.7784 10.4871 10.8078 10.431C10.8493 10.3518 10.863 10.2018 10.7849 10.2454C10.7252 10.2813 10.6629 10.3186 10.5933 10.319C10.5535 10.3192 10.5138 10.3086 10.4877 10.2687C10.4509 10.2028 10.4394 10.1187 10.4222 10.0414C10.408 9.97759 10.3753 9.91672 10.3638 9.85233C10.3629 9.84714 10.3622 9.84203 10.3617 9.8371C10.3582 9.79487 10.4082 9.79647 10.4505 9.79445C10.4976 9.79219 10.5164 9.72886 10.502 9.684C10.4789 9.61182 10.4083 9.51316 10.3553 9.45517C10.291 9.38566 10.2019 9.37729 10.1159 9.44825C10.0556 9.5028 10.0643 9.56375 10.0525 9.62153C10.0461 9.64927 10.0429 9.67967 10.0464 9.71209C10.0578 9.81796 10.1377 9.90263 10.1843 9.99837C10.2041 10.039 10.2222 10.0831 10.2344 10.1313C10.2675 10.263 10.2018 10.4381 10.0669 10.4223C10.0204 10.4123 9.94491 10.3929 9.9046 10.0998C9.88166 9.93315 9.89726 9.71646 9.86585 9.5573C9.8472 9.46279 9.84691 9.32534 9.7509 9.31746C9.68372 9.31195 9.65327 9.42799 9.62487 9.48912C9.59874 9.54535 9.58061 9.62184 9.62291 9.73246C9.66424 9.81624 9.68799 9.93775 9.68845 10.0778C9.68883 10.1918 9.65157 10.3053 9.57671 10.3913C9.53261 10.4379 9.48625 10.4495 9.44302 10.4449C9.38686 10.439 9.3467 10.4163 9.30405 10.3793C9.23235 10.3171 9.236 10.1944 9.23801 10.0995C9.24176 9.92259 9.24211 9.72179 9.21446 9.67009C9.16196 9.56695 9.07541 9.60425 9.03841 9.63542C8.86071 9.79535 8.77293 10.0652 8.71927 10.2801C8.67974 10.4057 8.63817 10.4017 8.60423 10.3626C8.58627 10.3419 8.56967 10.3192 8.55859 10.2941C8.48904 10.1367 8.4752 9.60779 8.37647 9.70475C8.37647 9.70475 8.37646 9.70475 8.37646 9.70475Z" fill="white"/>
<path fill-rule="evenodd" clip-rule="evenodd" d="M8.89851 10.7649C8.8985 10.7649 8.8985 10.7649 8.89851 10.7648C8.97594 10.7108 8.94169 10.6728 9.05242 10.7817C9.05626 10.7855 9.0597 10.7898 9.06243 10.7945C9.20763 11.0418 9.30086 11.3601 9.31495 11.6424C9.30721 11.7298 9.38728 11.686 9.44752 11.6222C9.57938 11.4825 9.88795 11.3396 10.1763 11.3137C10.3002 11.2872 10.1931 11.069 10.2404 10.9516C10.2603 10.9021 10.2902 10.858 10.3278 10.8225C10.435 10.7217 10.6108 10.7246 10.7344 10.8044C10.8403 10.8728 10.8808 10.9822 10.8838 11.1245C10.8564 11.5143 10.461 11.5948 10.2142 11.6296C10.1919 11.6328 10.1648 11.6343 10.1502 11.6515C10.1267 11.679 10.1993 11.685 10.2355 11.6852L11.1744 11.6894C11.1894 11.6895 11.2041 11.6934 11.2171 11.7008C11.2376 11.7124 11.2471 11.7303 11.229 11.7453C11.22 11.7528 11.2083 11.7652 11.1942 11.788C11.0891 11.9583 10.9644 12.146 10.7684 12.1866C10.6282 12.2156 10.4863 12.2372 10.343 12.256C10.2202 12.272 10.07 12.2879 10.0206 12.4014C10.0085 12.4293 10.0061 12.459 10.0146 12.49C10.0329 12.5352 10.1018 12.5803 10.1669 12.615C10.246 12.6571 10.3452 12.6708 10.3514 12.7602C10.357 12.8405 10.2363 12.9097 10.1563 12.9007C9.78706 12.8593 9.49255 12.7109 9.33823 12.5025C9.28618 12.4323 9.20968 12.3559 9.15962 12.4276C8.96604 12.6733 8.77556 12.8945 8.44551 13.0119C8.24868 13.0603 8.0472 12.9822 7.95204 12.8553C7.87381 12.7666 7.80077 12.715 7.6911 12.7593C7.49766 12.8373 7.20245 12.9499 7.05008 12.9776C6.95996 12.994 6.99195 12.9019 7.0623 12.8432C7.23739 12.6972 7.47171 12.5713 7.70434 12.4299C7.83991 12.3475 7.9226 12.2112 7.98069 12.0636C7.98272 12.0584 7.9848 12.0533 7.98694 12.0481C8.042 11.9161 8.08971 11.9484 8.09615 12.0913C8.09752 12.1391 8.12367 12.1377 8.16136 12.1083C8.2529 12.0369 8.42909 11.8935 8.5188 11.7949C8.56028 11.7494 8.59504 11.6737 8.59385 11.612C8.5924 11.5365 8.57381 11.4781 8.53274 11.4147C8.4645 11.3094 8.38969 11.2829 8.35779 11.2055C8.34736 11.1682 8.34129 11.1294 8.33972 11.0921C8.33331 10.9401 8.50221 10.7941 8.62084 10.8892C8.62477 10.8924 8.62869 10.8957 8.63259 10.8992C8.70939 10.9669 8.77826 11.094 8.80551 11.1974C8.81006 11.2146 8.81449 11.233 8.79709 11.2369C8.73415 11.2509 8.71276 11.2609 8.73958 11.3195C8.75483 11.3529 8.76612 11.389 8.77604 11.4285C8.82987 11.6529 8.81345 11.7402 8.75926 11.8853C8.5988 12.2175 8.39931 12.3458 8.21454 12.4669C8.16218 12.5012 8.12239 12.5241 8.14179 12.5837C8.15771 12.6325 8.22495 12.6857 8.27603 12.6913C8.29548 12.6934 8.31788 12.6938 8.34246 12.6921C8.42453 12.6864 8.501 12.6504 8.56962 12.605C8.70749 12.5139 8.84197 12.3912 8.94815 12.252C9.05339 12.114 9.10897 11.9417 9.0905 11.7692C9.07777 11.6503 9.04788 11.5329 9.01695 11.4247C8.93631 11.2415 8.84134 10.98 8.84134 10.9757C8.8382 10.8615 8.84765 10.8219 8.89852 10.7649C8.89853 10.7649 8.89852 10.7649 8.89851 10.7649ZM6.23709 9.70858C6.35409 9.76351 6.57406 9.74013 6.56476 9.55441C6.56476 9.49658 6.53864 9.41156 6.48763 9.43881C6.47295 9.44665 6.46052 9.46171 6.45504 9.48269C6.44516 9.52209 6.41117 9.55296 6.40234 9.51331C6.40107 9.5076 6.40044 9.50098 6.40068 9.49336C6.40068 9.48615 6.3983 9.47871 6.39501 9.47175C6.38748 9.45582 6.37321 9.44299 6.35559 9.44299C6.33355 9.44384 6.32539 9.47168 6.32232 9.49353C6.32184 9.49694 6.32156 9.50044 6.32156 9.50405C6.32011 9.51698 6.31617 9.52402 6.30916 9.52799C6.30283 9.53156 6.29414 9.53233 6.28692 9.53157C6.27714 9.53054 6.27055 9.52255 6.2638 9.5154C6.26054 9.51195 6.2582 9.50782 6.2582 9.50101C6.2582 9.49226 6.25694 9.48011 6.25494 9.46999C6.25296 9.45995 6.24844 9.45075 6.23935 9.44602C6.22895 9.44061 6.21594 9.43913 6.20459 9.44204C6.20091 9.44298 6.19749 9.44422 6.19433 9.44571C6.13314 9.47454 6.14583 9.58161 6.1735 9.64334C6.18565 9.67044 6.20545 9.69565 6.23709 9.70858Z" fill="white"/>
<path fill-rule="evenodd" clip-rule="evenodd" d="M9.66678 11.1377C9.77269 11.1874 10.0109 11.1662 10.0048 11.0301C10.0034 10.9985 9.99406 10.9658 9.99174 10.9343C9.98982 10.9082 9.98622 10.8796 9.96325 10.8672C9.93427 10.8516 9.89567 10.8699 9.88472 10.9118C9.87485 10.9512 9.84086 10.9821 9.83203 10.9424C9.83076 10.9367 9.83013 10.9301 9.83036 10.9225C9.83036 10.9152 9.82799 10.9078 9.8247 10.9008C9.81717 10.8849 9.8029 10.8721 9.78528 10.8721C9.76324 10.8729 9.75507 10.9008 9.75201 10.9226C9.75153 10.926 9.75125 10.9295 9.75125 10.9331C9.7498 10.9461 9.74586 10.9531 9.73885 10.9571C9.73252 10.9607 9.72383 10.9614 9.71661 10.9607C9.70682 10.9596 9.70024 10.9517 9.69349 10.9445C9.69023 10.9411 9.68789 10.9369 9.68789 10.9301C9.68789 10.9214 9.68663 10.9092 9.68463 10.8991C9.68265 10.889 9.67813 10.8799 9.66904 10.8751C9.65864 10.8697 9.64563 10.8682 9.63427 10.8711C9.63059 10.8721 9.62718 10.8733 9.62402 10.8748C9.56283 10.9036 9.57552 11.0107 9.60319 11.0724C9.61534 11.0995 9.63514 11.1247 9.66678 11.1377ZM11.6668 10.5462C11.7838 10.6012 12.0038 10.5778 11.9944 10.3921C11.9944 10.3342 11.9683 10.2492 11.9173 10.2765C11.9026 10.2843 11.8902 10.2994 11.8847 10.3203C11.8749 10.3597 11.8409 10.3906 11.832 10.351C11.8308 10.3453 11.8301 10.3386 11.8304 10.331C11.8304 10.3238 11.828 10.3164 11.8247 10.3094C11.8172 10.2935 11.8029 10.2806 11.7853 10.2806C11.7632 10.2815 11.7551 10.3093 11.752 10.3312C11.7515 10.3346 11.7512 10.3381 11.7512 10.3417C11.7498 10.3546 11.7459 10.3617 11.7388 10.3656C11.7325 10.3692 11.7238 10.37 11.7166 10.3692C11.7068 10.3682 11.7002 10.3602 11.6935 10.3531C11.6902 10.3496 11.6879 10.3455 11.6879 10.3387C11.6879 10.3299 11.6866 10.3178 11.6846 10.3077C11.6826 10.2976 11.6781 10.2884 11.669 10.2837C11.6586 10.2783 11.6456 10.2768 11.6343 10.2797C11.6306 10.2806 11.6272 10.2819 11.624 10.2834C11.5628 10.3122 11.5755 10.4193 11.6032 10.481C11.6153 10.5081 11.6351 10.5333 11.6668 10.5462ZM12.7329 12.4855C12.6284 12.1773 12.5459 12.1733 12.5793 12.4969C12.5897 12.5978 12.6158 12.6798 12.6347 12.7128C12.6735 12.7893 12.708 12.85 12.7555 12.9002C12.8301 12.9791 12.9331 13.0589 13.0396 13.0375C13.0861 13.0282 13.1236 12.9987 13.15 12.9675C13.2221 12.8939 13.2514 12.7516 13.2755 12.6364C13.2991 12.5235 13.3599 12.3532 13.4673 12.3953C13.5067 12.4108 13.5259 12.4456 13.555 12.4764C13.5607 12.4824 13.5664 12.4881 13.5723 12.4936C13.6391 12.5564 13.7164 12.6126 13.8033 12.6416C13.8858 12.6691 13.9745 12.6573 14.0623 12.5983C14.1521 12.5487 14.2106 12.4845 14.2632 12.3572C14.3217 12.2032 14.2891 11.4918 14.2774 11.0702C14.2729 11.0371 14.1612 10.4903 14.1612 10.4842C14.1612 10.4781 14.1464 10.2052 14.1341 10.1402C14.134 10.1386 14.1339 10.1371 14.1337 10.1357C14.1306 10.1064 14.1663 10.1247 14.1926 10.1379C14.2033 10.1432 14.2128 10.1466 14.2233 10.1409C14.2449 10.1293 14.2593 10.0897 14.2448 10.0526L13.9933 9.59611C13.975 9.56278 13.9618 9.52304 13.9238 9.52103C13.8911 9.51931 13.8647 9.56173 13.8458 9.5885C13.825 9.61798 13.8091 9.65681 13.8098 9.70243C13.8181 9.82252 13.8395 9.9447 13.8478 10.0648L13.9594 10.6815C13.9946 11.1211 14.0034 11.4808 14.0385 11.9204C14.0344 12.0763 13.9925 12.2154 13.9466 12.2703C13.9316 12.2882 13.9288 12.2889 13.9073 12.2982C13.8377 12.3281 13.7483 12.2635 13.7027 12.203C13.686 12.1808 13.6686 12.1564 13.6521 12.133C13.5996 12.0579 13.5397 11.9499 13.4509 11.9727C13.4252 11.9792 13.4012 11.9961 13.3764 12.0186C13.2121 12.1747 13.1378 12.4668 13.0261 12.6683C13.0156 12.6847 12.9981 12.7003 12.9758 12.7092C12.8734 12.75 12.7866 12.623 12.7458 12.5206C12.7411 12.5089 12.7368 12.4972 12.7329 12.4855ZM11.6819 9.46509C11.707 9.4636 11.7318 9.47182 11.7516 9.48719C11.8387 9.55458 11.8955 9.73113 11.8739 9.82231C11.8531 9.94855 11.7975 10.0849 11.7575 10.0671C11.7141 10.0513 11.7871 9.94163 11.7454 9.82663C11.736 9.79634 11.707 9.75591 11.6768 9.71584C11.6119 9.62982 11.5744 9.47148 11.6819 9.46509Z" fill="white"/>
<path fill-rule="evenodd" clip-rule="evenodd" d="M13.0382 12.156C13.0603 11.905 13.0231 11.752 13.0165 11.6044C13.0098 11.4569 12.847 10.3313 12.8139 10.2197C12.8122 10.2105 12.8109 10.202 12.81 10.1942C12.792 10.0335 12.9169 9.99384 12.8315 9.85651C12.763 9.74623 12.6897 9.63412 12.6578 9.55418C12.6079 9.46491 12.5493 9.58856 12.5262 9.68821C12.4917 9.83699 12.483 9.96274 12.5024 10.0642C12.6434 10.7887 12.7874 11.4131 12.8191 12.0783C12.8306 12.3211 12.9858 12.3933 13.0382 12.156ZM14.7855 9.82201C14.8167 9.81698 14.845 9.83 14.8656 9.85392C14.9386 9.93833 14.9792 10.1429 14.97 10.2076C14.951 10.3443 14.9003 10.4919 14.8639 10.4727C14.8243 10.4555 14.8718 10.27 14.8528 10.2123C14.8432 10.1756 14.8112 10.125 14.7803 10.0767C14.7261 9.99187 14.6861 9.83803 14.7855 9.82201ZM7.67357 11.679C7.70876 11.674 7.74589 11.6859 7.77067 11.7114C7.83503 11.7776 7.87039 11.9175 7.86201 11.9631C7.84379 12.0635 7.79526 12.172 7.76046 12.1579C7.74359 12.1523 7.74325 12.1221 7.74646 12.0867C7.75368 12.0069 7.75068 11.9194 7.69606 11.8608C7.69536 11.86 7.69466 11.8593 7.69396 11.8586C7.63845 11.7999 7.59361 11.6904 7.67357 11.679Z" fill="white"/>
<path fill-rule="evenodd" clip-rule="evenodd" d="M9.93761 11.971C10.0556 11.9784 10.1146 12.0695 10.004 12.1077C9.95437 12.1244 9.9056 12.1395 9.86716 12.1656C9.76353 12.236 9.86295 12.5116 9.7436 12.4736C9.72177 12.4666 9.69728 12.451 9.67744 12.4408C9.61025 12.3933 9.42166 12.2789 9.39477 12.032C9.38658 11.9122 9.57152 11.9405 9.69115 11.9513C9.77157 11.9586 9.85793 11.9629 9.93758 11.971H9.93761Z" fill="#1B9D00"/>
<path fill-rule="evenodd" clip-rule="evenodd" d="M5.2866 9.40676C5.42146 9.4468 5.42944 9.64192 5.41949 9.69896C5.40152 9.80308 5.35374 9.91552 5.31944 9.90087C5.2821 9.8878 5.31796 9.74646 5.30005 9.70249C5.2944 9.68505 5.28126 9.66354 5.2656 9.64089C5.20226 9.54933 5.17793 9.38257 5.2866 9.40676ZM7.94996 10.3266C7.84649 10.3817 7.80635 10.5459 7.8708 10.6416C7.93096 10.7258 8.02599 10.6945 8.03866 10.6945C8.11028 10.7034 8.16132 10.6064 8.18511 10.5486C8.19624 10.5217 8.19283 10.486 8.16608 10.4977C8.15739 10.5015 8.1465 10.5077 8.13284 10.5173C8.09867 10.5414 8.04611 10.5769 8.02392 10.5414C8.01478 10.5269 8.01122 10.5115 8.00919 10.4944C8.00406 10.4509 8.00886 10.4075 8.02916 10.364C8.0471 10.3142 8.00802 10.2923 7.94996 10.3266ZM8.72607 9.3313C8.67407 9.36561 8.57057 9.47116 8.56741 9.59278C8.56665 9.60932 8.56532 9.62186 8.56438 9.63198C8.55918 9.68795 8.60252 9.7441 8.65852 9.73914C8.70234 9.73526 8.75369 9.70456 8.77585 9.66654C8.78301 9.65425 8.78837 9.6398 8.79371 9.62051C8.80955 9.54258 8.70999 9.65748 8.69732 9.57074C8.68706 9.53343 8.69527 9.50632 8.71302 9.48023C8.76162 9.40879 8.80069 9.28772 8.72607 9.3313ZM9.35135 9.44067C9.34384 9.457 9.33583 9.49645 9.32867 9.54168C9.31239 9.64443 9.38856 9.84932 9.43199 9.7548C9.44536 9.71923 9.45607 9.68773 9.46469 9.6595C9.51106 9.50753 9.42261 9.28275 9.35703 9.42747C9.3551 9.43171 9.35321 9.43611 9.35135 9.44067ZM13.2936 11.4154C13.2936 11.4154 13.2936 11.4154 13.2936 11.4154C13.3057 11.4035 13.7415 11.0983 13.8325 11.0346C13.8437 11.0267 13.8505 11.0175 13.8628 11.0234C13.9523 11.0662 13.8004 11.2905 13.7205 11.3491C13.6232 11.4205 13.4973 11.5039 13.4071 11.5568C13.339 11.5967 13.2576 11.5758 13.2632 11.497C13.2655 11.4639 13.2744 11.4322 13.2935 11.4154C13.2935 11.4154 13.2936 11.4154 13.2936 11.4154ZM13.7447 11.4113C13.776 11.4045 13.8041 11.4181 13.8239 11.4432C13.8602 11.4893 13.8849 11.5703 13.8988 11.6461C13.9185 11.7533 13.9239 11.8696 13.8754 11.9672C13.8453 12.0278 13.8036 12.0632 13.7823 12.0519C13.7427 12.0348 13.7857 11.8713 13.7667 11.8136C13.7577 11.7791 13.7379 11.7317 13.7191 11.6852C13.681 11.5909 13.6453 11.433 13.7447 11.4113ZM10.5451 12.6315C10.5439 12.6026 10.5717 12.5847 10.5924 12.5643C10.6334 12.524 10.6938 12.4816 10.7137 12.4688C10.718 12.4661 10.7268 12.4619 10.7317 12.4604C10.7625 12.4507 10.8134 12.5516 10.8059 12.5831C10.8011 12.6035 10.7982 12.6254 10.8019 12.6498C10.8025 12.6535 10.8036 12.657 10.805 12.6605C10.8083 12.6686 10.8115 12.6768 10.8159 12.684C10.8393 12.7226 10.8936 12.6868 10.9341 12.6667C10.9989 12.6347 11.0616 12.6314 11.128 12.6281C11.2317 12.6343 11.1026 12.7502 11.0045 12.7846C10.9716 12.7961 10.942 12.8081 10.9124 12.8204C10.8454 12.8483 10.7114 12.9211 10.7114 12.8486C10.7114 12.8454 10.695 12.8311 10.6942 12.7969C10.6934 12.7642 10.7082 12.7304 10.6964 12.6998C10.6954 12.697 10.6941 12.6944 10.6927 12.6919C10.6712 12.6534 10.6136 12.6994 10.5724 12.6836C10.5696 12.6826 10.5669 12.6811 10.5644 12.6791C10.5513 12.6688 10.5458 12.6481 10.5451 12.6315ZM14.2915 12.7074C14.3269 12.7481 14.3974 12.7706 14.3754 12.8199C14.3714 12.8288 14.3652 12.8385 14.3562 12.8493C14.3507 12.8542 14.3455 12.8587 14.3405 12.8631C14.2833 12.9126 14.2057 13.0078 14.2788 13.0272C14.3542 13.048 14.5031 12.9706 14.5745 12.9283C14.6004 12.9129 14.6402 12.8785 14.6413 12.8485C14.6423 12.8214 14.6251 12.8081 14.5981 12.8067C14.576 12.8054 14.5508 12.8095 14.5311 12.8072C14.5151 12.8072 14.4626 12.7994 14.4876 12.7536C14.5084 12.7252 14.5159 12.7078 14.53 12.6727C14.5459 12.6384 14.5322 12.6156 14.4752 12.5968C14.4172 12.5865 14.3939 12.5917 14.3295 12.5968C14.3108 12.6008 14.2987 12.607 14.2906 12.6184C14.273 12.6429 14.2717 12.6847 14.2915 12.7074Z" fill="white"/>
<path fill-rule="evenodd" clip-rule="evenodd" d="M13.9786 1.60643C13.9637 1.63173 13.9135 1.6305 13.8664 1.6037C13.8192 1.5769 13.7931 1.5346 13.8079 1.50928C13.8228 1.48396 13.873 1.48522 13.9202 1.51207C13.9673 1.53892 13.9934 1.58114 13.9786 1.60643ZM11.5044 0.140972C11.4762 0.147754 11.4394 0.123035 11.4221 0.0857654C11.4049 0.0484959 11.4138 0.0127848 11.4419 0.0060035C11.47 -0.000777751 11.5069 0.0239138 11.5241 0.0611833C11.5414 0.0984529 11.5325 0.134191 11.5044 0.140972Z" fill="#259F00"/>
<path fill-rule="evenodd" clip-rule="evenodd" d="M13.0041 16.2578C13.2235 16.2683 13.4316 16.2632 13.6475 16.2688C13.7255 16.2709 13.8172 16.3177 13.7767 16.3844C13.774 16.3888 13.771 16.3926 13.7679 16.3956C13.7582 16.4048 13.743 16.4022 13.7295 16.4018C13.7044 16.4011 13.6823 16.4005 13.6609 16.3998C13.5886 16.3976 13.4994 16.3382 13.427 16.3402C13.3532 16.3423 13.2657 16.4057 13.1919 16.4029C13.1305 16.4006 13.0699 16.394 13.0059 16.3911C12.9979 16.3907 12.9902 16.3871 12.986 16.3803C12.9605 16.3379 12.9671 16.2736 13.0041 16.2578C13.0041 16.2578 13.0041 16.2578 13.0041 16.2578Z" fill="#209000"/>
</svg>
