<svg width="29" height="30" viewBox="0 0 29 30" fill="none" xmlns="http://www.w3.org/2000/svg">
<path d="M17.1038 12.6452C18.9426 10.8065 19.9735 9.77557 21.8122 7.93685M17.1038 6.75977H22.4007C22.7258 6.75977 22.9893 7.02326 22.9893 7.34831V12.6452M19.458 18.5306C19.458 22.4311 16.296 25.5931 12.3955 25.5931C8.495 25.5931 5.33301 22.4311 5.33301 18.5306C5.33301 14.6301 8.495 11.4681 12.3955 11.4681C16.296 11.4681 19.458 14.6301 19.458 18.5306Z" stroke="#2057A4" stroke-width="1.25" stroke-linecap="round"/>
<path d="M17.1035 12.6471C18.9422 10.8084 19.9731 9.77752 21.8118 7.9388M17.1035 6.76172H22.4004C22.7254 6.76172 22.9889 7.02522 22.9889 7.35026V12.6471" stroke="#A3B9D8" stroke-width="1.25" stroke-linecap="round"/>
</svg>
