<svg width="20" height="22" viewBox="0 0 20 22" fill="none" xmlns="http://www.w3.org/2000/svg">
<path d="M4.433 3.99905C3.068 4.06105 2.225 4.25305 1.629 4.85005C0.75 5.73005 0.75 7.14705 0.75 9.98005V14.989C0.75 17.822 0.75 19.239 1.629 20.119C2.507 20.999 3.922 20.999 6.75 20.999H12.75C15.578 20.999 16.993 20.999 17.871 20.119C18.749 19.239 18.75 17.822 18.75 14.989V9.97905C18.75 7.14605 18.75 5.72905 17.871 4.84905C17.275 4.25205 16.431 4.05905 15.067 3.99805" stroke="#4D79B6" stroke-width="1.25" stroke-linecap="round" stroke-linejoin="round"/>
<path d="M7.74971 17H11.7497M9.24971 9L10.2497 6M4.77471 5.54C4.29471 3.66 4.05471 2.72 4.44471 2.03C4.54921 1.84621 4.6822 1.68014 4.83871 1.538C5.42771 1 6.41871 1 8.39971 1H11.0997C13.0807 1 14.0717 1 14.6607 1.538C14.8177 1.681 14.9507 1.848 15.0547 2.031C15.4447 2.721 15.2047 3.661 14.7247 5.541C14.3407 7.039 14.1497 7.788 13.6377 8.281C13.4977 8.41633 13.344 8.534 13.1767 8.634C12.5627 9 11.7727 9 10.1937 9H9.30571C7.72571 9 6.93571 9 6.32271 8.634C6.15675 8.53417 6.00246 8.4161 5.86271 8.282C5.34971 7.788 5.15771 7.039 4.77471 5.54Z" stroke="#BACBE3" stroke-width="1.25" stroke-linecap="round" stroke-linejoin="round"/>
</svg>
