<svg width="33" height="32" viewBox="0 0 33 32" fill="none" xmlns="http://www.w3.org/2000/svg">
<path d="M13.834 22.6673C13.834 29.334 25.1673 30.0007 25.1673 22.6673V17.334" stroke="#4B71E1"/>
<path d="M25.166 15.3203H25.1793V15.3337H25.166V15.3203Z" stroke="#4B71E1" stroke-linejoin="round"/>
<path d="M27.166 15.334C27.166 16.4386 26.2706 17.334 25.166 17.334C24.0614 17.334 23.166 16.4386 23.166 15.334C23.166 14.2294 24.0614 13.334 25.166 13.334C26.2706 13.334 27.166 14.2294 27.166 15.334Z" stroke="#2E2E2E"/>
<path d="M10.4993 6.66732V6.66732C10.1898 6.66732 10.035 6.66732 9.90455 6.67873C8.45421 6.80562 7.30432 7.95551 7.17743 9.40585C7.16602 9.53633 7.16602 9.69111 7.16602 10.0007V16.0007C7.16602 16.6197 7.16602 16.9293 7.18885 17.1903C7.44262 20.0909 9.7424 22.3907 12.6431 22.6445C12.904 22.6673 13.2136 22.6673 13.8327 22.6673V22.6673C14.4518 22.6673 14.7613 22.6673 15.0223 22.6445C17.923 22.3907 20.2227 20.0909 20.4765 17.1903C20.4993 16.9293 20.4993 16.6197 20.4993 16.0007V9.33398C20.4993 7.86123 19.3054 6.66732 17.8327 6.66732V6.66732M10.4993 6.66732C10.4993 7.4037 11.0963 8.00065 11.8327 8.00065C12.5691 8.00065 13.166 7.4037 13.166 6.66732C13.166 5.93094 12.5691 5.33398 11.8327 5.33398C11.0963 5.33398 10.4993 5.93094 10.4993 6.66732ZM17.8327 6.66732C17.8327 7.4037 17.2357 8.00065 16.4993 8.00065C15.763 8.00065 15.166 7.4037 15.166 6.66732C15.166 5.93094 15.763 5.33398 16.4993 5.33398C17.2357 5.33398 17.8327 5.93094 17.8327 6.66732Z" stroke="#2E2E2E"/>
</svg>
