<svg width="24" height="25" viewBox="0 0 24 25" fill="none" xmlns="http://www.w3.org/2000/svg">
<path d="M13.9933 3.69919L13.9936 3.69938L19.7535 7.72931C19.7535 7.72933 19.7536 7.72936 19.7536 7.72938C20.2228 8.05784 20.6671 8.59641 20.9945 9.22359C21.3219 9.8508 21.5102 10.524 21.5102 11.0997V17.8797C21.5102 20.1536 19.6641 21.9997 17.3902 21.9997H6.61023C4.33778 21.9997 2.49023 20.145 2.49023 17.8697V10.9697C2.49023 10.4353 2.66062 9.79618 2.95881 9.19056C3.25686 8.58521 3.6613 8.05657 4.08775 7.72394L4.08786 7.72386L9.09648 3.81493C9.0967 3.81476 9.09692 3.81459 9.09714 3.81442C10.434 2.77913 12.603 2.7251 13.9933 3.69919Z" fill="white" stroke="#23C5B3"/>
<path opacity="0.4" d="M12 18.75C11.8661 18.75 11.75 18.6339 11.75 18.5V15.5C11.75 15.3661 11.8661 15.25 12 15.25C12.1339 15.25 12.25 15.3661 12.25 15.5V18.5C12.25 18.6339 12.1339 18.75 12 18.75Z" fill="white" stroke="#23C5B3"/>
</svg>
