<svg width="33" height="32" viewBox="0 0 33 32" fill="none" xmlns="http://www.w3.org/2000/svg">
<path d="M6.95852 18.4084L17.3755 6.43817C19.1014 4.45488 22.1083 4.24626 24.0916 5.9722C26.0749 7.69813 26.2835 10.7051 24.5576 12.6883L22.9963 14.4825C22.2253 14.171 21.3827 13.9994 20.5001 13.9994C16.8182 13.9994 13.8334 16.9842 13.8334 20.6661M6.95852 18.4084C5.23258 20.3917 5.44121 23.3986 7.4245 25.1245C9.88271 27.2638 12.8367 26.1569 14.7209 23.9918C14.1564 23.0129 13.8334 21.8772 13.8334 20.6661M6.95852 18.4084L12.6878 11.8247M13.8334 20.6661C13.8334 18.7923 14.6065 17.0991 15.851 15.8879" stroke="#2E2E2E"/>
<path d="M12.6875 11.8262C13.7353 13.6682 14.6683 14.9149 15.8507 15.8894" stroke="#4B71E1"/>
<path d="M21.7812 7.31444C20.0634 6.87126 19.0217 8.06828 18.5008 8.66679" stroke="#2E2E2E" stroke-linecap="round"/>
<path d="M27.1673 20.6667C27.1673 24.3486 24.1825 27.3333 20.5007 27.3333C16.8188 27.3333 13.834 24.3486 13.834 20.6667C13.834 16.9848 16.8188 14 20.5007 14C24.1825 14 27.1673 16.9848 27.1673 20.6667Z" stroke="#2E2E2E"/>
<path d="M15.9922 21.875L25.0075 19.4594" stroke="#4B71E1" stroke-linecap="round"/>
</svg>
