<svg width="33" height="32" viewBox="0 0 33 32" fill="none" xmlns="http://www.w3.org/2000/svg">
<path d="M16.502 7.79688V21.2254" stroke="#4B71E1" stroke-miterlimit="10" stroke-linecap="round"/>
<path d="M15.2584 11.19C13.6285 11.1307 11.2868 10.9417 10.2088 9.51739C9.25744 8.0524 10.7262 6.6613 12.1681 6.66603" stroke="#2E2E2E" stroke-miterlimit="10" stroke-linecap="round"/>
<path d="M15.4667 17.7052C10.5763 21.0822 6.6577 16.3671 6.27539 13.1016" stroke="#2E2E2E" stroke-miterlimit="10" stroke-linecap="round"/>
<path d="M5.54297 16.8301C5.79784 19.2354 9.76426 25.2408 15.5785 20.2071" stroke="#2E2E2E" stroke-miterlimit="10" stroke-linecap="round"/>
<path d="M15.4667 20.4453C10.6879 28.41 3.99758 25.3356 5.12856 20.4453" stroke="#2E2E2E" stroke-miterlimit="10" stroke-linecap="round"/>
<path d="M17.7441 11.19C19.3741 11.129 21.7157 10.9419 22.7938 9.51738C23.739 8.06191 22.2885 6.70632 20.8663 6.66602" stroke="#2E2E2E" stroke-miterlimit="10" stroke-linecap="round"/>
<path d="M17.7441 14.8394C21.7106 15.5084 24.7212 14.0588 25.4062 10.0605" stroke="#2E2E2E" stroke-miterlimit="10" stroke-linecap="round"/>
<path d="M15.26 14.8394C11.2936 15.5084 8.28293 14.0588 7.58203 10.0605" stroke="#2E2E2E" stroke-miterlimit="10" stroke-linecap="round"/>
<path d="M17.5371 17.7052C22.3956 21.0822 26.3461 16.3671 26.7284 13.1016" stroke="#2E2E2E" stroke-miterlimit="10" stroke-linecap="round"/>
<path d="M27.4613 16.8301C27.1905 19.2354 23.3197 25.2408 17.4258 20.2071" stroke="#2E2E2E" stroke-miterlimit="10" stroke-linecap="round"/>
<path d="M17.5371 20.4453C22.3159 28.41 28.9904 25.3356 27.8753 20.4453" stroke="#2E2E2E" stroke-miterlimit="10" stroke-linecap="round"/>
</svg>
