<svg width="24" height="25" viewBox="0 0 24 25" fill="none" xmlns="http://www.w3.org/2000/svg">
<path d="M13.9931 3.69955L13.9934 3.69974L19.7533 7.72968C19.7533 7.7297 19.7533 7.72972 19.7534 7.72974C20.2226 8.05821 20.6668 8.59677 20.9943 9.22395C21.3217 9.85117 21.51 10.5243 21.51 11.1001V17.8801C21.51 20.1539 19.6638 22.0001 17.39 22.0001H6.60999C4.33754 22.0001 2.48999 20.1453 2.48999 17.8701V10.9701C2.48999 10.4356 2.66038 9.79655 2.95857 9.19092C3.25662 8.58558 3.66106 8.05694 4.08751 7.72431L4.08761 7.72423L9.09624 3.8153C9.09645 3.81513 9.09667 3.81496 9.09689 3.81479C10.4337 2.7795 12.6028 2.72547 13.9931 3.69955Z" fill="white" stroke="#1B46C5"/>
<path opacity="0.4" d="M12 18.75C11.8661 18.75 11.75 18.6339 11.75 18.5V15.5C11.75 15.3661 11.8661 15.25 12 15.25C12.1339 15.25 12.25 15.3661 12.25 15.5V18.5C12.25 18.6339 12.1339 18.75 12 18.75Z" fill="white" stroke="#1B46C5"/>
</svg>
