<svg width="33" height="32" viewBox="0 0 33 32" fill="none" xmlns="http://www.w3.org/2000/svg">
<path d="M8.04618 14.5279C7.44982 11.0072 7.89583 6.09355 11.5262 4.28793C13.0787 3.5857 14.7747 3.25843 16.4771 3.33255C21.6531 3.5579 26.7821 7.60048 23.9128 13.1413L23.8199 13.4202M13.1662 25.3326C13.7864 26.2267 14.1506 27.2732 14.2195 28.3592M21.2293 14.8659C21.1425 14.579 21.1425 14.2728 21.2293 13.9859C21.3404 13.7362 21.5151 13.5201 21.736 13.3592C21.9372 13.2093 22.1695 13.1065 22.4158 13.0581C22.662 13.0098 22.9159 13.0172 23.1589 13.0799C23.4019 13.1425 23.6278 13.2588 23.8199 13.4202M23.8199 13.4202C24.0121 13.5816 24.1656 13.784 24.2693 14.0126C24.4212 14.3664 24.4995 14.7475 24.4995 15.1326C24.4995 15.5176 24.4212 15.8987 24.2693 16.2526C24.1093 16.5726 23.8693 16.8259 23.6826 17.1326C23.376 17.6392 23.2693 18.2526 22.9893 18.7859C22.8998 18.9859 22.7508 19.1535 22.5626 19.2659C22.402 19.3469 22.2185 19.3704 22.0426 19.3326M22.0426 19.3326C21.813 19.2896 21.6038 19.1723 21.4472 18.9989C21.2906 18.8255 21.1953 18.6054 21.176 18.3726M22.0426 19.3326C22.0426 19.3326 21.9129 19.5596 21.9129 19.9059C21.9078 21.1612 22.3525 22.3768 23.1662 23.3326" stroke="#4B71E1" stroke-miterlimit="10" stroke-linecap="round"/>
<path d="M19.4857 14.5469C18.7478 15.5833 17.6434 16.3679 16.4094 16.6903M19.979 19.6669C19.5796 20.3105 18.6194 21.3335 17.7822 21.3335M16.4094 16.6903C16.2019 16.4243 15.8852 16.2365 15.4724 16.1735C14.2324 15.8402 12.939 16.0269 11.6857 15.8402C10.499 15.6635 10.2056 14.6669 9.16565 14.6669C8.49898 14.6669 7.26223 15.0827 7.23236 15.4135C6.8359 18.5123 7.23513 24.0869 10.8857 25.3335C12.0199 25.7208 13.1879 25.3125 14.219 24.8002C15.4883 24.2426 17.7386 23.1262 17.8324 21.5069C17.8303 21.4465 17.8122 21.3886 17.7822 21.3335M16.4094 16.6903C16.6896 17.0495 16.7703 17.5513 16.619 18.0802C16.48 18.8 15.9862 20.2779 16.859 20.6935C17.1065 20.8173 17.6198 21.036 17.7822 21.3335" stroke="#22202A" stroke-miterlimit="10" stroke-linecap="round"/>
<path d="M7.65821 17.1211C9.75666 18.2323 12.1868 18.5449 14.4982 18.0011" stroke="#22202A" stroke-miterlimit="10" stroke-linecap="round"/>
<path d="M7.83203 19.334C9.93048 20.4452 12.3607 20.7578 14.672 20.214" stroke="#22202A" stroke-miterlimit="10" stroke-linecap="round"/>
<path d="M8.32617 22.0449C9.81103 22.8312 11.5306 23.0524 13.1661 22.6676" stroke="#22202A" stroke-miterlimit="10" stroke-linecap="round"/>
</svg>
