<svg width="33" height="32" viewBox="0 0 33 32" fill="none" xmlns="http://www.w3.org/2000/svg">
<path d="M12.4993 5.66667V5.66667C12.4993 6.58714 13.2455 7.33333 14.166 7.33333H18.8327C19.7532 7.33333 20.4993 6.58714 20.4993 5.66667V5.66667M12.4993 5.66667V5.66667C12.4993 4.74619 13.2455 4 14.166 4H18.8327C19.7532 4 20.4993 4.74619 20.4993 5.66667V5.66667M12.4993 5.66667V5.66667C11.2532 5.66667 10.6301 5.66667 10.166 5.93462C9.86198 6.11015 9.6095 6.36263 9.43397 6.66667C9.16602 7.13077 9.16602 7.75385 9.16602 9V22.3333C9.16602 24.6904 9.16602 25.8689 9.89825 26.6011C10.6305 27.3333 11.809 27.3333 14.166 27.3333H18.8327C21.1897 27.3333 22.3682 27.3333 23.1004 26.6011C23.8327 25.8689 23.8327 24.6904 23.8327 22.3333V9C23.8327 7.75384 23.8327 7.13077 23.5647 6.66667C23.3892 6.36263 23.1367 6.11015 22.8327 5.93462C22.3686 5.66667 21.7455 5.66667 20.4993 5.66667V5.66667" stroke="#2E2E2E"/>
<path d="M11.834 18.6667H12.3146C12.425 18.6667 12.5224 18.5942 12.5541 18.4885L14.3191 12.6053C14.3645 12.4538 14.583 12.4666 14.6105 12.6223L16.3782 22.6397C16.4064 22.7991 16.6322 22.8071 16.6715 22.65L17.7866 18.1894C17.8145 18.0781 17.9145 18 18.0292 18H21.1673" stroke="#4B71E1" stroke-linecap="round"/>
</svg>
