<?xml version="1.0" encoding="UTF-8"?>
<svg id="Layer_1" xmlns="http://www.w3.org/2000/svg" version="1.1" viewBox="0 0 400 400">
  <!-- Generator: Adobe Illustrator 29.3.1, SVG Export Plug-In . SVG Version: 2.1.0 Build 151)  -->
  <defs>
    <style>
      .st0 {
        fill: #0095d5;
      }

      .st1 {
        fill: #01498b;
      }

      .st2 {
        fill: #0086cb;
      }

      .st3 {
        fill: #e9efff;
      }

      .st4 {
        fill: #0158a6;
      }

      .st5 {
        fill: #eff3f9;
      }

      .st6 {
        fill: #cfe0f3;
      }
    </style>
  </defs>
  <path class="st6" d="M273.16,329.57H76.92c-14.26,0-25.82-11.56-25.82-25.82V70.27s1.76-25.42,35.28-25.42h120.14l66.64,65.47v219.25Z"/>
  <path class="st5" d="M273.16,110.32v51.18c-.52-.05-1.04-.08-1.57-.09-1.66-.04-3.34-.06-5.02-.06s-3.35.02-5.02.06c-8.12.2-15.52,4.04-20.31,10.56-14.08,19.12-34.68,31.68-58,35.35-5.7.9-10.85,4.15-14.11,8.93-3.27,4.79-4.44,10.77-3.19,16.43,6.21,28.28,18.45,54.66,35.51,77.5h-115.07c-8.68,0-15.71-7.03-15.71-15.71V60.56c0-8.68,7.03-15.71,15.71-15.71h121.31v45.09c0,11.26,9.12,20.38,20.37,20.38h45.1Z"/>
  <g>
    <path class="st4" d="M348.6,228.46c-11.88,54.09-38.25,99.75-84.81,126.69-46.57-26.94-72.94-72.6-84.82-126.69-1.62-7.35,3.3-14.58,10.74-15.75,25.85-4.07,40.33-18.32,55.19-38.51,3.3-4.49,8.5-7.17,14.07-7.3,1.6-.04,3.21-.06,4.83-.06s3.22.02,4.83.06c5.57.14,10.77,2.82,14.07,7.3,14.86,20.19,29.33,34.44,55.18,38.51,7.44,1.17,12.35,8.39,10.74,15.75Z"/>
    <path class="st4" d="M348.6,227.46c-11.88,54.09-38.25,99.75-84.81,126.69-46.57-26.94-72.94-72.6-84.82-126.69-1.62-7.35,3.3-14.58,10.74-15.75,25.85-4.07,40.33-18.32,55.19-38.51,3.3-4.49,8.5-7.17,14.07-7.3,1.6-.04,3.21-.06,4.83-.06s3.22.02,4.83.06c5.57.14,10.77,2.82,14.07,7.3,14.86,20.19,29.33,34.44,55.18,38.51,7.44,1.17,12.35,8.39,10.74,15.75Z"/>
    <path class="st1" d="M266.24,343.45c-1.31-3.62-2.77-7.19-4.09-10.81-1.35-3.68-2.51-7.43-3.54-11.22-2.07-7.62-3.59-15.37-5.12-23.11-1.6-8.08-2.42-16.29-3.13-24.49-.71-8.25-1.27-16.52-2.15-24.76-.87-8.16-2-16.28-2.79-24.45-.78-8.11-1.3-16.25-1.25-24.4.03-3.97.2-7.93.47-11.89.25-3.83.72-7.69,1.95-11.34,1-2.95,2.63-5.52,4.43-8.04-2.39,1.25-4.49,3.03-6.13,5.25-14.86,20.19-29.34,34.44-55.19,38.51-7.44,1.17-12.35,8.39-10.74,15.75,11.88,54.09,38.26,99.75,84.82,126.69,1.86-1.08,3.7-2.2,5.52-3.33-1.06-2.78-2.06-5.57-3.07-8.37Z"/>
    <g>
      <g>
        <path class="st0" d="M263.78,337.93c-39.68-25.13-59.94-65.23-70.01-111.05-.02-.07-.05-.24.09-.45.13-.2.28-.22.36-.23,28.6-4.5,45.96-20.45,62.5-44.11,2.33-.09,4.69-.14,7.06-.14s4.72.05,7.06.14c16.54,23.66,33.9,39.6,62.49,44.11.07.01.22.03.36.23.14.21.11.38.09.45-10.06,45.82-30.32,85.93-70,111.05Z"/>
        <path class="st2" d="M257.05,325.8c-2.22-5.92-4.26-11.9-6.16-17.93-1.87-5.94-3.6-11.92-5.2-17.94-1.56-5.86-3-11.75-4.36-17.66-1.61-6.99-3.54-14.01-3.76-21.18-1.15-36.8,6.22-50.33,6.63-52.98-14.74,12.58-30.43,25.01-49.98,28.09-.07.01-.22.03-.36.23-.14.21-.11.38-.09.45,9.84,44.81,29.1,84.14,67.41,109.36-1.44-3.45-2.82-6.93-4.13-10.44Z"/>
      </g>
      <path class="st3" d="M263.78,289.64c-4.53,0-8.21-3.68-8.21-8.21v-54.72c0-4.53,3.68-8.21,8.21-8.21s8.21,3.68,8.21,8.21v54.72c0,4.53-3.68,8.21-8.21,8.21Z"/>
      <path class="st3" d="M291.14,262.28h-54.72c-4.53,0-8.21-3.68-8.21-8.21s3.68-8.21,8.21-8.21h54.72c4.53,0,8.21,3.68,8.21,8.21s-3.68,8.21-8.21,8.21Z"/>
    </g>
  </g>
  <rect class="st6" x="91.14" y="108.1" width="97.92" height="16.62" rx="8.31" ry="8.31"/>
  <rect class="st6" x="91.14" y="151.67" width="97.92" height="16.62" rx="8.31" ry="8.31"/>
  <rect class="st6" x="91.14" y="194.18" width="78.54" height="16.62" rx="8.31" ry="8.31"/>
  <path class="st0" d="M111.84,274.92c-1.66,0-3.33-.63-4.6-1.9l-8.18-8.18c-2.54-2.54-2.54-6.65,0-9.19s6.65-2.54,9.19,0l3.58,3.58,12.35-12.35c2.54-2.54,6.65-2.54,9.19,0s2.54,6.65,0,9.19l-16.95,16.95c-1.27,1.27-2.93,1.9-4.6,1.9Z"/>
</svg>