<svg width="24" height="24" viewBox="0 0 24 24" fill="none" xmlns="http://www.w3.org/2000/svg">
<path d="M12 11.5H5V10.5H12V11.5ZM5 9.5H12V8.5H5V9.5ZM12 13.5H5V12.5H12V13.5ZM5 15.5H12V14.5H5V15.5ZM14 13.72C13.9999 13.572 14.0327 13.4259 14.096 13.2921C14.1592 13.1583 14.2514 13.0403 14.3658 12.9464C14.4802 12.8526 14.614 12.7853 14.7576 12.7494C14.9012 12.7136 15.0509 12.71 15.196 12.739L16.304 12.961C16.4334 12.9869 16.5666 12.9869 16.696 12.961L17.804 12.739C17.9491 12.71 18.0988 12.7136 18.2424 12.7494C18.386 12.7853 18.5198 12.8526 18.6342 12.9464C18.7486 13.0403 18.8408 13.1583 18.904 13.2921C18.9673 13.4259 19.0001 13.572 19 13.72V16H14V13.72ZM16.5 12C17.0304 12 17.5391 11.7893 17.9142 11.4142C18.2893 11.0391 18.5 10.5304 18.5 10C18.5 9.46957 18.2893 8.96086 17.9142 8.58579C17.5391 8.21071 17.0304 8 16.5 8C15.9696 8 15.4609 8.21071 15.0858 8.58579C14.7107 8.96086 14.5 9.46957 14.5 10C14.5 10.5304 14.7107 11.0391 15.0858 11.4142C15.4609 11.7893 15.9696 12 16.5 12Z" fill="#808080"/>
<path fill-rule="evenodd" clip-rule="evenodd" d="M3.5 5C3.10218 5 2.72064 5.15804 2.43934 5.43934C2.15804 5.72064 2 6.10218 2 6.5V17.5C2 17.8978 2.15804 18.2794 2.43934 18.5607C2.72064 18.842 3.10218 19 3.5 19H20.5C20.8978 19 21.2794 18.842 21.5607 18.5607C21.842 18.2794 22 17.8978 22 17.5V6.5C22 6.10218 21.842 5.72064 21.5607 5.43934C21.2794 5.15804 20.8978 5 20.5 5H3.5ZM20.5 6H3.5C3.36739 6 3.24021 6.05268 3.14645 6.14645C3.05268 6.24021 3 6.36739 3 6.5V17.5C3 17.6326 3.05268 17.7598 3.14645 17.8536C3.24021 17.9473 3.36739 18 3.5 18H20.5C20.6326 18 20.7598 17.9473 20.8536 17.8536C20.9473 17.7598 21 17.6326 21 17.5V6.5C21 6.36739 20.9473 6.24021 20.8536 6.14645C20.7598 6.05268 20.6326 6 20.5 6Z" fill="#808080"/>
</svg>
