<?xml version="1.0" encoding="UTF-8"?>
<svg id="Layer_1" xmlns="http://www.w3.org/2000/svg" version="1.1" viewBox="0 0 400 400">
  <!-- Generator: Adobe Illustrator 29.3.1, SVG Export Plug-In . SVG Version: 2.1.0 Build 151)  -->
  <defs>
    <style>
      .st0 {
        fill: #0095d5;
      }

      .st1 {
        fill: #0158a6;
      }

      .st2 {
        fill: #eff3f9;
      }

      .st3 {
        fill: #cfe0f3;
      }
    </style>
  </defs>
  <path class="st3" d="M297.41,327.09H101.16c-14.26,0-25.82-11.56-25.82-25.82V67.78s1.76-25.42,35.28-25.42h120.14l66.64,65.47v219.25Z"/>
  <path class="st2" d="M297.41,107.84v84.53h-33.14c-1.67,0-3.18.68-4.28,1.77-1.09,1.09-1.77,2.6-1.77,4.27,0,3.29,2.63,5.97,5.91,6.04v88.75c0,8.01-6.49,14.5-14.5,14.5H110.63c-8.68,0-15.71-7.03-15.71-15.71V58.08c0-8.68,7.03-15.71,15.71-15.71h121.31v45.09c0,11.26,9.12,20.38,20.37,20.38h45.1Z"/>
  <rect class="st3" x="115.62" y="75.1" width="83.69" height="16.62" rx="8.31" ry="8.31"/>
  <rect class="st3" x="160.3" y="125.87" width="97.92" height="16.62" rx="8.31" ry="8.31"/>
  <rect class="st3" x="160.3" y="169.52" width="97.92" height="16.62" rx="8.31" ry="8.31"/>
  <rect class="st3" x="160.3" y="213.16" width="97.92" height="16.62" rx="8.31" ry="8.31"/>
  <rect class="st3" x="160.3" y="257.81" width="97.92" height="16.62" rx="8.31" ry="8.31"/>
  <path class="st0" d="M127.31,146.81c-1.66,0-3.33-.63-4.6-1.9l-8.18-8.18c-2.54-2.54-2.54-6.65,0-9.19s6.65-2.54,9.19,0l3.58,3.58,12.35-12.35c2.54-2.54,6.65-2.54,9.19,0s2.54,6.65,0,9.19l-16.95,16.95c-1.27,1.27-2.93,1.9-4.6,1.9Z"/>
  <path class="st0" d="M127.31,191.4c-1.66,0-3.33-.63-4.6-1.9l-8.18-8.18c-2.54-2.54-2.54-6.65,0-9.19s6.65-2.54,9.19,0l3.58,3.58,12.35-12.35c2.54-2.54,6.65-2.54,9.19,0s2.54,6.65,0,9.19l-16.95,16.95c-1.27,1.27-2.93,1.9-4.6,1.9Z"/>
  <path class="st0" d="M127.31,235.99h0c-1.72,0-3.38-.68-4.6-1.9l-8.18-8.18c-2.54-2.54-2.54-6.65,0-9.19,2.54-2.54,6.65-2.54,9.19,0l3.58,3.58,12.35-12.35c2.54-2.54,6.65-2.54,9.19,0s2.54,6.65,0,9.19l-16.95,16.95c-1.22,1.22-2.87,1.9-4.6,1.9Z"/>
  <path class="st0" d="M127.31,278.97h0c-1.72,0-3.38-.68-4.6-1.9l-8.18-8.18c-2.54-2.54-2.54-6.65,0-9.19,2.54-2.54,6.65-2.54,9.19,0l3.58,3.58,12.35-12.35c2.54-2.54,6.65-2.54,9.19,0,2.54,2.54,2.54,6.65,0,9.19l-16.95,16.95c-1.22,1.22-2.87,1.9-4.6,1.9Z"/>
  <g>
    <g>
      <path class="st2" d="M276.06,207.22h42.69v129.07c0,11.78-9.56,21.34-21.34,21.34h0c-11.78,0-21.34-9.56-21.34-21.34v-129.07h0Z"/>
      <path class="st0" d="M318.75,264.65v71.65c0,11.78-9.55,21.34-21.34,21.34-.37,0-.74-.01-1.1-.03-.35-.02-.7-.04-1.04-.08-.61-.06-1.21-.14-1.8-.26-.32-.06-.64-.12-.95-.2-.31-.07-.61-.15-.92-.23-.01-.01-.03-.01-.05-.02-.26-.07-.52-.15-.77-.24-.1-.03-.19-.06-.28-.09-.25-.09-.49-.18-.73-.27-8.01-3.06-13.7-10.83-13.7-19.92v-71.65h42.68Z"/>
      <path class="st3" d="M318.75,207.22v129.08c0,11.78-9.55,21.34-21.34,21.34-2.7,0-5.27-.5-7.64-1.42,4.37-1,7.64-4.92,7.64-9.59v-139.41h21.34Z"/>
      <path class="st1" d="M318.75,264.65v71.65c0,11.78-9.55,21.34-21.34,21.34-.37,0-.74-.01-1.1-.03-.35-.02-.7-.04-1.04-.08-.61-.06-1.21-.14-1.8-.26-.32-.06-.64-.12-.95-.2-.31-.07-.61-.15-.92-.23-.01-.01-.03-.01-.05-.02-.26-.07-.52-.15-.77-.24-.1-.03-.19-.06-.28-.09-.25-.09-.49-.18-.73-.27,4.37-1,7.64-4.92,7.64-9.59v-81.98h21.34Z"/>
    </g>
    <rect class="st3" x="270.16" y="196.36" width="54.5" height="12.09" rx="6.05" ry="6.05"/>
    <rect class="st2" x="270.16" y="196.36" width="32.73" height="12.09" rx="6.05" ry="6.05"/>
  </g>
</svg>