<svg width="24" height="25" viewBox="0 0 24 25" fill="none" xmlns="http://www.w3.org/2000/svg">
<rect y="0.921875" width="24" height="24" rx="12" fill="#FAFAFA"/>
<path opacity="0.4" d="M20.6191 9.37187C19.5691 4.75187 15.5391 2.67188 11.9991 2.67188C11.9991 2.67188 11.9991 2.67188 11.9891 2.67188C8.45912 2.67188 4.41912 4.74187 3.36912 9.36187C2.19912 14.5219 5.35912 18.8919 8.21912 21.6419C9.27912 22.6619 10.6391 23.1719 11.9991 23.1719C13.3591 23.1719 14.7191 22.6619 15.7691 21.6419C18.6291 18.8919 21.7891 14.5319 20.6191 9.37187Z" fill="#2F569E"/>
<path d="M11.9996 14.382C13.7393 14.382 15.1496 12.9717 15.1496 11.232C15.1496 9.49233 13.7393 8.08203 11.9996 8.08203C10.2599 8.08203 8.84961 9.49233 8.84961 11.232C8.84961 12.9717 10.2599 14.382 11.9996 14.382Z" fill="#2F569E"/>
</svg>
