<svg width="16" height="16" viewBox="0 0 16 16" fill="none" xmlns="http://www.w3.org/2000/svg">
<rect width="16" height="16" rx="8" fill="#FAFAFA"/>
<path opacity="0.4" d="M13.7467 5.63268C13.0467 2.55268 10.3601 1.16602 8.00006 1.16602C8.00006 1.16602 8.00006 1.16602 7.9934 1.16602C5.64006 1.16602 2.94673 2.54602 2.24673 5.62602C1.46673 9.06601 3.5734 11.9793 5.48006 13.8127C6.18673 14.4927 7.0934 14.8327 8.00006 14.8327C8.90673 14.8327 9.8134 14.4927 10.5134 13.8127C12.4201 11.9793 14.5267 9.07268 13.7467 5.63268Z" fill="#181C1F"/>
<path d="M8.00039 8.97344C9.16019 8.97344 10.1004 8.03324 10.1004 6.87344C10.1004 5.71364 9.16019 4.77344 8.00039 4.77344C6.84059 4.77344 5.90039 5.71364 5.90039 6.87344C5.90039 8.03324 6.84059 8.97344 8.00039 8.97344Z" fill="#181C1F"/>
</svg>
