<svg width="29" height="28" viewBox="0 0 29 28" fill="none" xmlns="http://www.w3.org/2000/svg">
<path opacity="0.4" d="M21.7466 8.35301C21.6766 8.34135 21.5949 8.34135 21.5249 8.35301C19.9149 8.29468 18.6316 6.97634 18.6316 5.34301C18.6316 3.67468 19.9733 2.33301 21.6416 2.33301C23.3099 2.33301 24.6516 3.68634 24.6516 5.34301C24.6399 6.97634 23.3566 8.29468 21.7466 8.35301Z" stroke="#2057A4" stroke-width="1.25" stroke-linecap="round" stroke-linejoin="round"/>
<path opacity="0.4" d="M20.5453 16.8465C22.1436 17.1149 23.9053 16.8349 25.1419 16.0065C26.7869 14.9099 26.7869 13.1132 25.1419 12.0165C23.8936 11.1882 22.1086 10.9082 20.5103 11.1882" stroke="#2057A4" stroke-width="1.25" stroke-linecap="round" stroke-linejoin="round"/>
<path opacity="0.4" d="M7.71213 8.35301C7.78213 8.34135 7.8638 8.34135 7.9338 8.35301C9.5438 8.29468 10.8271 6.97634 10.8271 5.34301C10.8271 3.67468 9.48546 2.33301 7.81713 2.33301C6.1488 2.33301 4.80713 3.68634 4.80713 5.34301C4.8188 6.97634 6.10213 8.29468 7.71213 8.35301Z" stroke="#2057A4" stroke-width="1.25" stroke-linecap="round" stroke-linejoin="round"/>
<path opacity="0.4" d="M8.91318 16.8465C7.31485 17.1149 5.55318 16.8349 4.31651 16.0065C2.67151 14.9099 2.67151 13.1132 4.31651 12.0165C5.56485 11.1882 7.34984 10.9082 8.94818 11.1882" stroke="#2057A4" stroke-width="1.25" stroke-linecap="round" stroke-linejoin="round"/>
<path d="M14.7498 17.0688C14.6798 17.0572 14.5981 17.0572 14.5281 17.0688C12.9181 17.0105 11.6348 15.6922 11.6348 14.0588C11.6348 12.3905 12.9764 11.0488 14.6448 11.0488C16.3131 11.0488 17.6548 12.4022 17.6548 14.0588C17.6431 15.6922 16.3598 17.0222 14.7498 17.0688Z" stroke="#2057A4" stroke-width="1.25" stroke-linecap="round" stroke-linejoin="round"/>
<path d="M11.3551 20.7439C9.71009 21.8406 9.71009 23.6372 11.3551 24.7339C13.2218 25.9822 16.2784 25.9822 18.1451 24.7339C19.7901 23.6372 19.7901 21.8406 18.1451 20.7439C16.2901 19.5072 13.2218 19.5072 11.3551 20.7439Z" stroke="#2057A4" stroke-width="1.25" stroke-linecap="round" stroke-linejoin="round"/>
</svg>
