<svg width="32" height="32" viewBox="0 0 32 32" fill="none" xmlns="http://www.w3.org/2000/svg">
<rect width="32" height="32" rx="16" fill="#FAFAFA"/>
<path opacity="0.4" d="M22.6673 14V18.9733C22.6673 20.5 21.4273 21.7333 19.9007 21.7333H12.1007C10.574 21.7333 9.33398 20.5 9.33398 18.9733V14H22.6673Z" fill="#5E707A"/>
<path d="M22.6673 13.0276V14.0009H9.33398V13.0276C9.33398 11.5009 10.574 10.2676 12.1007 10.2676H19.9007C21.4273 10.2676 22.6673 11.5009 22.6673 13.0276Z" fill="#5E707A"/>
<path d="M13.3333 19.5H12C11.7267 19.5 11.5 19.2733 11.5 19C11.5 18.7267 11.7267 18.5 12 18.5H13.3333C13.6067 18.5 13.8333 18.7267 13.8333 19C13.8333 19.2733 13.6067 19.5 13.3333 19.5Z" fill="#5E707A"/>
<path d="M17.6667 19.5H15C14.7267 19.5 14.5 19.2733 14.5 19C14.5 18.7267 14.7267 18.5 15 18.5H17.6667C17.94 18.5 18.1667 18.7267 18.1667 19C18.1667 19.2733 17.94 19.5 17.6667 19.5Z" fill="#181C1F"/>
</svg>
