<svg width="25" height="25" viewBox="0 0 25 25" fill="none" xmlns="http://www.w3.org/2000/svg">
<path opacity="0.4" d="M18.2481 7.66C18.1881 7.65 18.1181 7.65 18.0581 7.66C16.6781 7.61 15.5781 6.48 15.5781 5.08C15.5781 3.65 16.7281 2.5 18.1581 2.5C19.5881 2.5 20.7381 3.66 20.7381 5.08C20.7281 6.48 19.6281 7.61 18.2481 7.66Z" stroke="#6888E6" stroke-width="1.5" stroke-linecap="round" stroke-linejoin="round"/>
<path opacity="0.4" d="M17.2175 14.9402C18.5875 15.1702 20.0975 14.9302 21.1575 14.2202C22.5675 13.2802 22.5675 11.7402 21.1575 10.8002C20.0875 10.0902 18.5575 9.85016 17.1875 10.0902" stroke="#6888E6" stroke-width="1.5" stroke-linecap="round" stroke-linejoin="round"/>
<path opacity="0.4" d="M6.21656 7.66C6.27656 7.65 6.34656 7.65 6.40656 7.66C7.78656 7.61 8.88656 6.48 8.88656 5.08C8.88656 3.65 7.73656 2.5 6.30656 2.5C4.87656 2.5 3.72656 3.66 3.72656 5.08C3.73656 6.48 4.83656 7.61 6.21656 7.66Z" stroke="#6888E6" stroke-width="1.5" stroke-linecap="round" stroke-linejoin="round"/>
<path opacity="0.4" d="M7.2475 14.9402C5.8775 15.1702 4.3675 14.9302 3.3075 14.2202C1.8975 13.2802 1.8975 11.7402 3.3075 10.8002C4.3775 10.0902 5.9075 9.85016 7.2775 10.0902" stroke="#6888E6" stroke-width="1.5" stroke-linecap="round" stroke-linejoin="round"/>
<path d="M12.2501 15.1307C12.1901 15.1207 12.1201 15.1207 12.0601 15.1307C10.6801 15.0807 9.58008 13.9507 9.58008 12.5507C9.58008 11.1207 10.7301 9.9707 12.1601 9.9707C13.5901 9.9707 14.7401 11.1307 14.7401 12.5507C14.7301 13.9507 13.6301 15.0907 12.2501 15.1307Z" stroke="#1B46C5" stroke-width="1.5" stroke-linecap="round" stroke-linejoin="round"/>
<path d="M9.3407 18.2813C7.9307 19.2213 7.9307 20.7613 9.3407 21.7013C10.9407 22.7713 13.5607 22.7713 15.1607 21.7013C16.5707 20.7613 16.5707 19.2213 15.1607 18.2813C13.5707 17.2213 10.9407 17.2213 9.3407 18.2813Z" stroke="#1B46C5" stroke-width="1.5" stroke-linecap="round" stroke-linejoin="round"/>
</svg>
