<svg width="24" height="25" viewBox="0 0 24 25" fill="none" xmlns="http://www.w3.org/2000/svg">
<rect y="0.921875" width="24" height="24" rx="12" fill="#FAFAFA"/>
<path opacity="0.4" d="M11.79 15.1319L8.52 18.4019C8.16 18.0819 7.81 17.7519 7.47 17.4119C6.44 16.3719 5.51 15.2819 4.68 14.1419C3.86 13.0019 3.2 11.8619 2.72 10.7319C2.24 9.59188 2 8.50187 2 7.46187C2 6.78187 2.12 6.13188 2.36 5.53188C2.6 4.92188 2.98 4.36188 3.51 3.86188C4.15 3.23188 4.85 2.92188 5.59 2.92188C5.87 2.92188 6.15 2.98188 6.4 3.10188C6.66 3.22188 6.89 3.40188 7.07 3.66188L9.39 6.93188C9.57 7.18188 9.7 7.41188 9.79 7.63188C9.88 7.84188 9.93 8.05188 9.93 8.24188C9.93 8.48187 9.86 8.72187 9.72 8.95187C9.59 9.18187 9.4 9.42188 9.16 9.66187L8.4 10.4519C8.29 10.5619 8.24 10.6919 8.24 10.8519C8.24 10.9319 8.25 11.0019 8.27 11.0819C8.3 11.1619 8.33 11.2219 8.35 11.2819C8.53 11.6119 8.84 12.0419 9.28 12.5619C9.73 13.0819 10.21 13.6119 10.73 14.1419C11.09 14.4919 11.44 14.8319 11.79 15.1319Z" fill="#2F569E"/>
<path d="M21.9696 19.2509C21.9696 19.5309 21.9196 19.8209 21.8196 20.1009C21.7896 20.1809 21.7596 20.2609 21.7196 20.3409C21.5496 20.7009 21.3296 21.0409 21.0396 21.3609C20.5496 21.9009 20.0096 22.2909 19.3996 22.5409C19.3896 22.5409 19.3796 22.5509 19.3696 22.5509C18.7796 22.7909 18.1396 22.9209 17.4496 22.9209C16.4296 22.9209 15.3396 22.6809 14.1896 22.1909C13.0396 21.7009 11.8896 21.0409 10.7496 20.2109C10.3596 19.9209 9.96961 19.6309 9.59961 19.3209L12.8696 16.0509C13.1496 16.2609 13.3996 16.4209 13.6096 16.5309C13.6596 16.5509 13.7196 16.5809 13.7896 16.6109C13.8696 16.6409 13.9496 16.6509 14.0396 16.6509C14.2096 16.6509 14.3396 16.5909 14.4496 16.4809L15.2096 15.7309C15.4596 15.4809 15.6996 15.2909 15.9296 15.1709C16.1596 15.0309 16.3896 14.9609 16.6396 14.9609C16.8296 14.9609 17.0296 15.0009 17.2496 15.0909C17.4696 15.1809 17.6996 15.3109 17.9496 15.4809L21.2596 17.8309C21.5196 18.0109 21.6996 18.2209 21.8096 18.4709C21.9096 18.7209 21.9696 18.9709 21.9696 19.2509Z" fill="#2F569E"/>
</svg>
