<svg width="16" height="16" viewBox="0 0 16 16" fill="none" xmlns="http://www.w3.org/2000/svg">
<rect width="16" height="16" rx="8" fill="#FAFAFA"/>
<path opacity="0.4" d="M7.86065 9.47398L5.68065 11.654C5.44065 11.4407 5.20732 11.2207 4.98065 10.994C4.29398 10.3007 3.67398 9.57399 3.12065 8.81398C2.57398 8.05398 2.13398 7.29398 1.81398 6.54065C1.49398 5.78065 1.33398 5.05398 1.33398 4.36065C1.33398 3.90732 1.41398 3.47398 1.57398 3.07398C1.73398 2.66732 1.98732 2.29398 2.34065 1.96065C2.76732 1.54065 3.23398 1.33398 3.72732 1.33398C3.91398 1.33398 4.10065 1.37398 4.26732 1.45398C4.44065 1.53398 4.59398 1.65398 4.71398 1.82732L6.26065 4.00732C6.38065 4.17398 6.46732 4.32732 6.52732 4.47398C6.58732 4.61398 6.62065 4.75398 6.62065 4.88065C6.62065 5.04065 6.57398 5.20065 6.48065 5.35398C6.39398 5.50732 6.26732 5.66732 6.10732 5.82732L5.60065 6.35398C5.52732 6.42732 5.49398 6.51398 5.49398 6.62065C5.49398 6.67398 5.50065 6.72065 5.51398 6.77398C5.53398 6.82732 5.55398 6.86732 5.56732 6.90732C5.68732 7.12732 5.89398 7.41398 6.18732 7.76065C6.48732 8.10732 6.80732 8.46065 7.15398 8.81398C7.39398 9.04732 7.62732 9.27398 7.86065 9.47398Z" fill="#181C1F"/>
<path d="M14.6471 12.2194C14.6471 12.406 14.6137 12.5994 14.5471 12.786C14.5271 12.8394 14.5071 12.8927 14.4804 12.946C14.3671 13.186 14.2204 13.4127 14.0271 13.626C13.7004 13.986 13.3404 14.246 12.9337 14.4127C12.9271 14.4127 12.9204 14.4194 12.9137 14.4194C12.5204 14.5794 12.0937 14.666 11.6337 14.666C10.9537 14.666 10.2271 14.506 9.46039 14.1794C8.69372 13.8527 7.92706 13.4127 7.16706 12.8594C6.90706 12.666 6.64706 12.4727 6.40039 12.266L8.58039 10.086C8.76706 10.226 8.93372 10.3327 9.07372 10.406C9.10706 10.4194 9.14706 10.4394 9.19372 10.4594C9.24706 10.4794 9.30039 10.486 9.36039 10.486C9.47372 10.486 9.56039 10.446 9.63372 10.3727L10.1404 9.87271C10.3071 9.70604 10.4671 9.57938 10.6204 9.49938C10.7737 9.40604 10.9271 9.35938 11.0937 9.35938C11.2204 9.35938 11.3537 9.38604 11.5004 9.44604C11.6471 9.50604 11.8004 9.59271 11.9671 9.70604L14.1737 11.2727C14.3471 11.3927 14.4671 11.5327 14.5404 11.6994C14.6071 11.866 14.6471 12.0327 14.6471 12.2194Z" fill="#181C1F"/>
</svg>
