<?xml version="1.0" encoding="UTF-8"?>
<svg id="Layer_1" xmlns="http://www.w3.org/2000/svg" version="1.1" viewBox="0 0 400 400">
  <!-- Generator: Adobe Illustrator 29.3.1, SVG Export Plug-In . SVG Version: 2.1.0 Build 151)  -->
  <defs>
    <style>
      .st0 {
        fill: #d3dcfb;
      }

      .st1 {
        fill: #0095d5;
      }

      .st2 {
        fill: #e9efff;
      }

      .st3 {
        fill: #ffbd86;
      }

      .st4 {
        fill: #fed2a4;
      }

      .st5 {
        fill: #0158a6;
      }
    </style>
  </defs>
  <path class="st3" d="M307.64,103.26v34.25H93.7v-34.25c0-12.31,9.98-22.28,22.28-22.28h41.52c10.08,0,18.25-8.17,18.25-18.25v-7.93c0-3.47,2.81-6.28,6.28-6.28h37.27c3.47,0,6.28,2.81,6.28,6.28v7.93c0,10.08,8.17,18.25,18.25,18.25h41.53c12.31,0,22.28,9.98,22.28,22.28Z"/>
  <path class="st3" d="M307.64,103.26v8.36H93.7v-8.36c0-12.31,9.98-22.28,22.28-22.28h41.52c10.08,0,18.25-8.17,18.25-18.25v-7.93c0-3.47,2.81-6.28,6.28-6.28h37.27c3.47,0,6.28,2.81,6.28,6.28v7.93c0,10.08,8.17,18.25,18.25,18.25h41.53c12.31,0,22.28,9.98,22.28,22.28Z"/>
  <path class="st4" d="M110.87,96.06h0c0-8.33,6.75-15.08,15.08-15.08h36.83c14.45,0,26.17-11.72,26.17-26.17h0c0-3.47,2.81-6.28,6.28-6.28h21.42c3.47,0,6.28,2.81,6.28,6.28h0c0,14.45,11.72,26.17,26.17,26.17h40.81c8.33,0,15.08,6.75,15.08,15.08h0c0,8.33-6.75,15.08-15.08,15.08H125.95c-8.33,0-15.08-6.75-15.08-15.08Z"/>
  <rect class="st1" x="65.96" y="119.93" width="268.42" height="208.71" rx="20.58" ry="20.58" transform="translate(400.33 448.58) rotate(180)"/>
  <rect class="st5" x="65.96" y="119.93" width="253.68" height="208.71" rx="20" ry="20" transform="translate(385.6 448.58) rotate(180)"/>
  <path class="st2" d="M246.45,201.2h-101.72c-2.53,0-4.95-1.03-6.7-2.85l-10.58-10.98c-3.57-3.7-3.46-9.59.24-13.16,3.7-3.56,9.59-3.46,13.16.24l7.84,8.13h93.91l8.26-8.26c3.63-3.63,9.53-3.63,13.16,0,3.63,3.63,3.63,9.53,0,13.16l-10.98,10.98c-1.75,1.75-4.11,2.73-6.58,2.73Z"/>
  <path class="st2" d="M232.04,234.45h-70.71c-2.53,0-4.95-1.03-6.7-2.85l-10.58-10.98c-3.57-3.7-3.46-9.59.24-13.16,3.7-3.57,9.59-3.46,13.16.24l7.84,8.13h62.9l8.26-8.26c3.63-3.63,9.53-3.63,13.16,0,3.63,3.63,3.63,9.53,0,13.16l-10.98,10.98c-1.75,1.75-4.11,2.73-6.58,2.73Z"/>
  <path class="st2" d="M231.52,172.71h-71.79c-2.53,0-4.95-1.03-6.7-2.85l-10.58-10.98c-3.57-3.7-3.46-9.59.24-13.16,3.7-3.57,9.59-3.46,13.16.24l7.84,8.13h63.98l8.26-8.26c3.63-3.63,9.53-3.63,13.16,0,3.63,3.63,3.63,9.53,0,13.16l-10.98,10.98c-1.75,1.75-4.11,2.73-6.58,2.73Z"/>
  <rect class="st0" x="176.52" y="154.1" width="38.6" height="18.61"/>
  <rect class="st0" x="176.52" y="182.59" width="38.6" height="18.61"/>
  <rect class="st0" x="176.52" y="215.84" width="38.6" height="18.61"/>
  <path class="st2" d="M195.82,308.68c-5.14,0-9.31-4.17-9.31-9.31v-151.87c0-5.14,4.17-9.31,9.31-9.31s9.31,4.17,9.31,9.31v151.87c0,5.14-4.17,9.31-9.31,9.31Z"/>
  <rect class="st0" x="186.52" y="236.98" width="18.61" height="38.6"/>
  <path class="st0" d="M195.82,308.68c-5.14,0-9.31-4.17-9.31-9.31v-28.25c0-5.14,4.17-9.31,9.31-9.31s9.31,4.17,9.31,9.31v28.25c0,5.14-4.17,9.31-9.31,9.31Z"/>
  <path class="st2" d="M195.82,243.05c-5.14,0-9.31-4.17-9.31-9.31v-38.6c0-5.14,4.17-9.31,9.31-9.31s9.31,4.17,9.31,9.31v38.6c0,5.14-4.17,9.31-9.31,9.31Z"/>
  <path class="st2" d="M219.33,294.51c-14.19,0-25.74-11.55-25.74-25.74s11.55-25.74,25.74-25.74,25.74,11.55,25.74,25.74-11.55,25.74-25.74,25.74ZM219.33,261.64c-3.93,0-7.13,3.2-7.13,7.13s3.2,7.13,7.13,7.13,7.13-3.2,7.13-7.13-3.2-7.13-7.13-7.13Z"/>
  <path class="st2" d="M173.72,294.51c-14.19,0-25.74-11.55-25.74-25.74s11.55-25.74,25.74-25.74,25.74,11.55,25.74,25.74-11.55,25.74-25.74,25.74ZM173.72,261.64c-3.93,0-7.13,3.2-7.13,7.13s3.2,7.13,7.13,7.13,7.13-3.2,7.13-7.13-3.2-7.13-7.13-7.13Z"/>
  <path class="st2" d="M173.72,294.51c-14.19,0-25.74-11.55-25.74-25.74s11.55-25.74,25.74-25.74,25.74,11.55,25.74,25.74-11.55,25.74-25.74,25.74ZM173.72,261.64c-3.93,0-7.13,3.2-7.13,7.13s3.2,7.13,7.13,7.13,7.13-3.2,7.13-7.13-3.2-7.13-7.13-7.13Z"/>
  <path class="st0" d="M166.62,293.77c-11.01-2.99-19.09-13.05-19.09-25.01s8.09-22.01,19.09-25.01c-7.24,5.91-11.87,14.92-11.87,25.01s4.63,19.09,11.87,25.01Z"/>
</svg>