<svg width="18" height="18" viewBox="0 0 18 18" fill="none" xmlns="http://www.w3.org/2000/svg">
<path d="M9 16.5C13.1421 16.5 16.5 13.1421 16.5 9C16.5 4.85786 13.1421 1.5 9 1.5C4.85786 1.5 1.5 4.85786 1.5 9C1.5 13.1421 4.85786 16.5 9 16.5Z" stroke="#4EBA57" stroke-width="1.125" stroke-linecap="round" stroke-linejoin="round"/>
<g opacity="0.4">
<path d="M6.00732 10.8829C6.14232 11.1079 6.30732 11.318 6.49482 11.5055C7.87482 12.8855 10.1173 12.8855 11.5048 11.5055C12.0673 10.943 12.3898 10.2304 12.4948 9.50293" stroke="#4EBA57" stroke-width="1.125" stroke-linecap="round" stroke-linejoin="round"/>
<path d="M5.50488 8.49749C5.60988 7.76249 5.93239 7.05746 6.49489 6.49496C7.87489 5.11496 10.1174 5.11496 11.5049 6.49496C11.6999 6.68996 11.8574 6.89997 11.9924 7.11747" stroke="#4EBA57" stroke-width="1.125" stroke-linecap="round" stroke-linejoin="round"/>
<path d="M5.86475 12.8853V10.8828H7.86723" stroke="#4EBA57" stroke-width="1.125" stroke-linecap="round" stroke-linejoin="round"/>
<path d="M12.1348 5.11523V7.11772H10.1323" stroke="#4EBA57" stroke-width="1.125" stroke-linecap="round" stroke-linejoin="round"/>
</g>
</svg>
