<svg width="24" height="25" viewBox="0 0 24 25" fill="none" xmlns="http://www.w3.org/2000/svg">
<path opacity="0.34" d="M12 15.9004C13.6569 15.9004 15 14.5572 15 12.9004C15 11.2435 13.6569 9.90039 12 9.90039C10.3431 9.90039 9 11.2435 9 12.9004C9 14.5572 10.3431 15.9004 12 15.9004Z" stroke="#1B46C5" stroke-width="1.5" stroke-miterlimit="10" stroke-linecap="round" stroke-linejoin="round"/>
<path d="M2 13.7798V12.0198C2 10.9798 2.85 10.1198 3.9 10.1198C5.71 10.1198 6.45 8.83984 5.54 7.26984C5.02 6.36984 5.33 5.19984 6.24 4.67984L7.97 3.68984C8.76 3.21984 9.78 3.49984 10.25 4.28984L10.36 4.47984C11.26 6.04984 12.74 6.04984 13.65 4.47984L13.76 4.28984C14.23 3.49984 15.25 3.21984 16.04 3.68984L17.77 4.67984C18.68 5.19984 18.99 6.36984 18.47 7.26984C17.56 8.83984 18.3 10.1198 20.11 10.1198C21.15 10.1198 22.01 10.9698 22.01 12.0198V13.7798C22.01 14.8198 21.16 15.6798 20.11 15.6798C18.3 15.6798 17.56 16.9598 18.47 18.5298C18.99 19.4398 18.68 20.5998 17.77 21.1198L16.04 22.1098C15.25 22.5798 14.23 22.2998 13.76 21.5098L13.65 21.3198C12.75 19.7498 11.27 19.7498 10.36 21.3198L10.25 21.5098C9.78 22.2998 8.76 22.5798 7.97 22.1098L6.24 21.1198C5.33 20.5998 5.02 19.4298 5.54 18.5298C6.45 16.9598 5.71 15.6798 3.9 15.6798C2.85 15.6798 2 14.8198 2 13.7798Z" stroke="#1B46C5" stroke-width="1.5" stroke-miterlimit="10" stroke-linecap="round" stroke-linejoin="round"/>
</svg>
