<svg width="32" height="32" viewBox="0 0 32 32" fill="none" xmlns="http://www.w3.org/2000/svg">
<rect width="32" height="32" rx="16" fill="#FAFAFA"/>
<path opacity="0.4" d="M21.9406 15.4129C21.9406 18.6729 19.5739 21.7262 16.3406 22.6195C16.1206 22.6795 15.8805 22.6795 15.6605 22.6195C12.4272 21.7262 10.0605 18.6729 10.0605 15.4129V12.4862C10.0605 11.9396 10.4739 11.3196 10.9872 11.1129L14.7005 9.59289C15.5339 9.25289 16.4739 9.25289 17.3072 9.59289L21.0205 11.1129C21.5272 11.3196 21.9472 11.9396 21.9472 12.4862L21.9406 15.4129Z" fill="#5E707A"/>
<path d="M17.6673 15.0007C17.6673 14.0807 16.9207 13.334 16.0007 13.334C15.0807 13.334 14.334 14.0807 14.334 15.0007C14.334 15.7473 14.8273 16.3673 15.5007 16.5806V18.334C15.5007 18.6073 15.7273 18.834 16.0007 18.834C16.274 18.834 16.5007 18.6073 16.5007 18.334V16.5806C17.174 16.3673 17.6673 15.7473 17.6673 15.0007Z" fill="#5E707A"/>
</svg>
