<svg width="32" height="32" viewBox="0 0 32 32" fill="none" xmlns="http://www.w3.org/2000/svg">
<rect width="32" height="32" rx="16" fill="#FAFAFA"/>
<path opacity="0.4" d="M20.2194 11.7807L12.3927 19.6073C12.0994 19.9006 11.6061 19.8606 11.3661 19.514C10.5394 18.3073 10.0527 16.8806 10.0527 15.414V12.4873C10.0527 11.9406 10.4661 11.3207 10.9727 11.114L14.6861 9.59398C15.5261 9.24732 16.4594 9.24732 17.2994 9.59398L19.9927 10.694C20.4394 10.874 20.5527 11.4473 20.2194 11.7807Z" fill="#5E707A"/>
<path d="M20.8473 12.6931C21.2807 12.3264 21.9407 12.6397 21.9407 13.2064V15.4131C21.9407 18.6731 19.574 21.7264 16.3407 22.6197C16.1207 22.6797 15.8807 22.6797 15.654 22.6197C14.7073 22.3531 13.8273 21.9064 13.074 21.3198C12.754 21.0731 12.7207 20.6064 13.0007 20.3198C14.454 18.8331 18.7073 14.4998 20.8473 12.6931Z" fill="#5E707A"/>
</svg>
