<svg width="24" height="24" viewBox="0 0 24 24" fill="none" xmlns="http://www.w3.org/2000/svg">
<path d="M4.38479 17.3849V11.0949C4.38479 10.8789 4.42812 10.6692 4.51479 10.4659C4.60212 10.2632 4.71846 10.0892 4.86379 9.94385L8.24779 6.55985C8.40912 6.39852 8.58912 6.28085 8.78779 6.20685C8.98712 6.13218 9.18612 6.09485 9.38479 6.09485C9.58346 6.09485 9.78212 6.13218 9.98079 6.20685C10.1795 6.28152 10.3595 6.39919 10.5208 6.55985L13.9058 9.94485C14.0505 10.0895 14.1665 10.2635 14.2538 10.4669C14.3411 10.6702 14.3845 10.8795 14.3838 11.0949V17.3849C14.3838 17.8329 14.2268 18.2142 13.9128 18.5289C13.5975 18.8435 13.2161 19.0009 12.7688 19.0009H5.99979C5.55246 19.0009 5.17146 18.8435 4.85679 18.5289C4.54146 18.2142 4.38379 17.8329 4.38379 17.3849M5.99979 17.9999H8.61479V16.4619C8.61479 16.2552 8.68812 16.0752 8.83479 15.9219C8.98146 15.7685 9.16479 15.6919 9.38479 15.6919C9.59146 15.6919 9.77112 15.7685 9.92379 15.9219C10.0765 16.0752 10.1531 16.2552 10.1538 16.4619V17.9999H12.7688C12.9488 17.9999 13.0965 17.9422 13.2118 17.8269C13.3271 17.7115 13.3848 17.5642 13.3848 17.3849V11.0749C13.3848 10.9982 13.3718 10.9245 13.3458 10.8539C13.3205 10.7832 13.2758 10.7159 13.2118 10.6519L9.82679 7.26685C9.71146 7.15152 9.56412 7.09385 9.38479 7.09385C9.20479 7.09385 9.05712 7.15152 8.94179 7.26685L5.55779 10.6519C5.49379 10.7159 5.44879 10.7832 5.42279 10.8539C5.39679 10.9245 5.38379 10.9982 5.38379 11.0749V17.3849C5.38379 17.5642 5.44179 17.7115 5.55779 17.8269C5.67246 17.9422 5.81979 17.9999 5.99979 17.9999ZM15.9998 18.5199V10.0019C15.9998 9.92518 15.9868 9.85152 15.9608 9.78085C15.9348 9.71019 15.8901 9.64285 15.8268 9.57885L12.5248 6.27685C12.3621 6.11418 12.3221 5.93119 12.4048 5.72785C12.4888 5.52452 12.6468 5.42285 12.8788 5.42285C12.9481 5.42285 13.0141 5.43618 13.0768 5.46285C13.1395 5.48952 13.1935 5.52485 13.2388 5.56885L16.5208 8.85185C16.6661 8.99652 16.7821 9.17052 16.8688 9.37385C16.9555 9.57718 16.9991 9.78652 16.9998 10.0019V18.5189C16.9998 18.6615 16.9521 18.7805 16.8568 18.8759C16.7615 18.9712 16.6425 19.0189 16.4998 19.0189C16.3571 19.0189 16.2381 18.9712 16.1428 18.8759C16.0475 18.7805 15.9998 18.6615 15.9998 18.5189M18.6148 18.5189V8.90985C18.6148 8.83318 18.6021 8.75985 18.5768 8.68985C18.5515 8.61985 18.5065 8.55219 18.4418 8.48685L16.2518 6.29685C16.0891 6.13418 16.0491 5.94785 16.1318 5.73785C16.2145 5.52785 16.3725 5.42318 16.6058 5.42385C16.6751 5.42385 16.7411 5.43719 16.8038 5.46385C16.8665 5.48985 16.9205 5.52519 16.9658 5.56985L19.1558 7.75985C19.3005 7.90519 19.4131 8.07952 19.4938 8.28285C19.5745 8.48619 19.6151 8.69518 19.6158 8.90985V18.5199C19.6158 18.6625 19.5678 18.7815 19.4718 18.8769C19.3765 18.9722 19.2578 19.0199 19.1158 19.0199C18.9731 19.0199 18.8541 18.9722 18.7588 18.8769C18.6635 18.7815 18.6155 18.6625 18.6148 18.5199M5.99979 17.9999H13.3848H5.38479H5.99979ZM9.38479 12.7699C9.17812 12.7699 8.99812 12.6932 8.84479 12.5399C8.69146 12.3865 8.61479 12.2065 8.61479 11.9999C8.61479 11.7932 8.69146 11.6132 8.84479 11.4599C8.99812 11.3065 9.17812 11.2299 9.38479 11.2299C9.59146 11.2299 9.77112 11.3065 9.92379 11.4599C10.0765 11.6132 10.1531 11.7932 10.1538 11.9999C10.1545 12.2065 10.0778 12.3865 9.92379 12.5399C9.76979 12.6932 9.58979 12.7699 9.38379 12.7699" fill="#808080"/>
</svg>
