<svg width="32" height="32" viewBox="0 0 32 32" fill="none" xmlns="http://www.w3.org/2000/svg">
<rect width="32" height="32" rx="16" fill="#FAFAFA"/>
<path opacity="0.4" d="M18.794 9.33398H13.2073C10.7807 9.33398 9.33398 10.7807 9.33398 13.2073V18.7873C9.33398 21.2207 10.7807 22.6673 13.2073 22.6673H18.7873C21.214 22.6673 22.6607 21.2207 22.6607 18.794V13.2073C22.6673 10.7807 21.2207 9.33398 18.794 9.33398Z" fill="#5E707A"/>
<path d="M18.5 14.5H13.5C13.2267 14.5 13 14.2733 13 14C13 13.7267 13.2267 13.5 13.5 13.5H18.5C18.7733 13.5 19 13.7267 19 14C19 14.2733 18.7733 14.5 18.5 14.5Z" fill="#5E707A"/>
<path d="M18.5 18.5H13.5C13.2267 18.5 13 18.2733 13 18C13 17.7267 13.2267 17.5 13.5 17.5H18.5C18.7733 17.5 19 17.7267 19 18C19 18.2733 18.7733 18.5 18.5 18.5Z" fill="#5E707A"/>
</svg>
