<svg width="24" height="24" viewBox="0 0 24 24" fill="none" xmlns="http://www.w3.org/2000/svg">
<path d="M9.49975 15.75C9.49975 17.407 10.7498 18 11.9998 18C13.2498 18 14.4998 17.407 14.4998 15.75C14.4998 14.093 11.9998 12 11.9998 12C11.9998 12 9.49975 14.093 9.49975 15.75ZM9.06775 2H14.9318C15.8518 2 16.3138 2 16.5998 2.293C17.1328 2.839 17.1328 5.161 16.5998 5.707C16.3128 6 15.8528 6 14.9318 6H9.06775C8.14775 6 7.68675 6 7.39975 5.707C6.86675 5.161 6.86675 2.839 7.39975 2.293C7.68575 2 8.14675 2 9.06775 2Z" stroke="#808080" stroke-linecap="round" stroke-linejoin="round"/>
<path d="M8 6C8.11325 6.21324 8.21538 6.4322 8.306 6.656C8.45693 7.07056 8.51458 7.5133 8.47482 7.95268C8.43506 8.39206 8.29889 8.81727 8.076 9.198C7.94692 9.40174 7.8074 9.59867 7.658 9.788L7.255 10.327C6.805 10.927 6.58 11.227 6.417 11.556C6.25224 11.8881 6.13445 12.2415 6.067 12.606C6 12.965 6 13.34 6 14.092V16C6 18.828 6 20.243 6.879 21.121C7.757 22 9.172 22 12 22C14.828 22 16.243 22 17.121 21.121C18 20.243 18 18.828 18 16V14.092C18 13.342 18 12.966 17.933 12.605C17.8656 12.2405 17.7478 11.8871 17.583 11.555C17.42 11.227 17.195 10.927 16.745 10.327L16.342 9.789C16.1923 9.59969 16.0524 9.40276 15.923 9.199C15.7 8.81814 15.5637 8.39276 15.5239 7.95319C15.4842 7.51362 15.5419 7.0707 15.693 6.656C15.753 6.495 15.835 6.33 16 6" stroke="#808080" stroke-linecap="round" stroke-linejoin="round"/>
</svg>
