<svg width="25" height="24" viewBox="0 0 25 24" fill="none" xmlns="http://www.w3.org/2000/svg">
<path d="M7.433 4.99905C6.068 5.06105 5.225 5.25305 4.629 5.85005C3.75 6.73005 3.75 8.14705 3.75 10.98V15.989C3.75 18.822 3.75 20.239 4.629 21.119C5.507 21.999 6.922 21.999 9.75 21.999H15.75C18.578 21.999 19.993 21.999 20.871 21.119C21.749 20.239 21.75 18.822 21.75 15.989V10.979C21.75 8.14605 21.75 6.72905 20.871 5.84905C20.275 5.25205 19.431 5.05905 18.067 4.99805" stroke="#4D79B6" stroke-width="1.25" stroke-linecap="round" stroke-linejoin="round"/>
<path d="M10.7497 18H14.7497M12.2497 10L13.2497 7M7.77471 6.54C7.29471 4.66 7.05471 3.72 7.44471 3.03C7.54921 2.84621 7.6822 2.68014 7.83871 2.538C8.42771 2 9.41871 2 11.3997 2H14.0997C16.0807 2 17.0717 2 17.6607 2.538C17.8177 2.681 17.9507 2.848 18.0547 3.031C18.4447 3.721 18.2047 4.661 17.7247 6.541C17.3407 8.039 17.1497 8.788 16.6377 9.281C16.4977 9.41633 16.344 9.534 16.1767 9.634C15.5627 10 14.7727 10 13.1937 10H12.3057C10.7257 10 9.93571 10 9.32271 9.634C9.15675 9.53417 9.00246 9.4161 8.86271 9.282C8.34971 8.788 8.15771 8.039 7.77471 6.54Z" stroke="#BACBE3" stroke-width="1.25" stroke-linecap="round" stroke-linejoin="round"/>
</svg>
