<svg width="25" height="24" viewBox="0 0 25 24" fill="none" xmlns="http://www.w3.org/2000/svg">
<path opacity="0.58" d="M24.5 0H0.5V24H24.5V0Z" fill="white"/>
<path opacity="0.4" d="M7.4403 20.6304C8.9303 21.5004 10.6603 22.0005 12.5003 22.0005C18.1303 22.0005 22.8103 17.0305 22.4803 11.4105C22.1403 5.61045 16.8703 1.14045 10.8003 2.14045C6.62029 2.83045 3.27029 6.22045 2.62029 10.4005C2.24029 12.8205 2.74031 15.1104 3.83031 17.0005L2.9403 20.3104C2.7403 21.0604 3.43028 21.7404 4.17028 21.5304L7.4403 20.6304Z" fill="#40C97B"/>
<path d="M17.5 15.1705C17.5 15.3505 17.46 15.5405 17.37 15.7205C17.28 15.9005 17.17 16.0705 17.03 16.2305C16.78 16.5005 16.51 16.7005 16.21 16.8205C15.91 16.9505 15.58 17.0105 15.23 17.0105C14.72 17.0105 14.17 16.8905 13.6 16.6405C13.02 16.3905 12.45 16.0605 11.88 15.6505C11.3 15.2305 10.76 14.7605 10.24 14.2505C9.71999 13.7305 9.26003 13.1805 8.84003 12.6105C8.43003 12.0405 8.09999 11.4705 7.85999 10.9005C7.61999 10.3305 7.5 9.78047 7.5 9.26047C7.5 8.92047 7.55999 8.59047 7.67999 8.29047C7.79999 7.98047 7.99001 7.70046 8.26001 7.45046C8.58001 7.13046 8.92999 6.98047 9.29999 6.98047C9.43999 6.98047 9.58002 7.01047 9.71002 7.07047C9.84002 7.13047 9.95999 7.22046 10.05 7.35046L11.2 9.00047C11.29 9.13047 11.36 9.24046 11.4 9.35046C11.45 9.46046 11.47 9.56047 11.47 9.66047C11.47 9.78047 11.43 9.90046 11.36 10.0205C11.29 10.1405 11.2 10.2605 11.08 10.3805L10.7 10.7805C10.64 10.8405 10.62 10.9005 10.62 10.9805C10.62 11.0205 10.63 11.0605 10.64 11.1005C10.66 11.1405 10.67 11.1705 10.68 11.2005C10.77 11.3705 10.93 11.5805 11.15 11.8405C11.38 12.1005 11.62 12.3705 11.88 12.6305C12.15 12.9005 12.41 13.1405 12.68 13.3705C12.94 13.5905 13.16 13.7405 13.33 13.8305C13.36 13.8405 13.39 13.8605 13.42 13.8705C13.46 13.8905 13.5 13.8905 13.55 13.8905C13.64 13.8905 13.7 13.8605 13.76 13.8005L14.14 13.4205C14.27 13.2905 14.39 13.2005 14.5 13.1405C14.62 13.0705 14.73 13.0305 14.86 13.0305C14.96 13.0305 15.06 13.0505 15.17 13.1005C15.28 13.1505 15.4 13.2105 15.52 13.3005L17.18 14.4805C17.31 14.5705 17.4 14.6805 17.46 14.8005C17.47 14.9105 17.5 15.0305 17.5 15.1705Z" fill="#40C97B"/>
</svg>
