<?xml version="1.0" standalone="no"?>
<!DOCTYPE svg PUBLIC "-//W3C//DTD SVG 20010904//EN"
 "http://www.w3.org/TR/2001/REC-SVG-20010904/DTD/svg10.dtd">
<svg version="1.0" xmlns="http://www.w3.org/2000/svg"
 width="46.000000pt" height="47.000000pt" viewBox="0 0 46.000000 47.000000"
 preserveAspectRatio="xMidYMid meet">

<g transform="translate(0.000000,47.000000) scale(0.100000,-0.100000)"
fill="#000000" stroke="none">
<path d="M120 455 c-7 -8 -19 -15 -26 -15 -8 0 -14 -10 -14 -25 0 -24 2 -25
65 -25 63 0 65 1 65 25 0 14 -5 25 -11 25 -6 0 -17 7 -25 15 -9 8 -21 15 -28
15 -8 0 -19 -7 -26 -15z"/>
<path d="M360 431 c0 -6 5 -13 10 -16 6 -3 10 1 10 9 0 9 -4 16 -10 16 -5 0
-10 -4 -10 -9z"/>
<path d="M410 372 c0 -6 -18 -13 -40 -17 l-40 -7 0 -119 0 -119 40 0 40 0 0
126 c0 96 3 125 13 122 6 -3 13 -19 15 -36 5 -48 24 -38 20 11 -2 35 -7 43
-25 45 -13 2 -23 -1 -23 -6z"/>
<path d="M140 310 c0 -13 -7 -20 -20 -20 -11 0 -20 -4 -20 -10 0 -5 9 -10 20
-10 13 0 20 -7 20 -19 0 -11 5 -23 10 -26 6 -4 10 5 10 19 0 19 5 26 20 26 11
0 20 5 20 10 0 6 -9 10 -20 10 -13 0 -20 7 -20 20 0 11 -4 20 -10 20 -5 0 -10
-9 -10 -20z"/>
</g>
</svg>
