<svg width="37" height="55" viewBox="0 0 37 55" fill="none" xmlns="http://www.w3.org/2000/svg">
<path d="M26.5838 0H10.424L5.20264 11.3735H31.8112L26.5838 0Z" fill="#6A8EC2"/>
<path d="M18.0265 0H10.424L5.20264 11.3735H18.0265V0Z" fill="#2057A4"/>
<path d="M10.424 54.3901H26.5838L31.8112 43.0166H5.20264L10.424 54.3901Z" fill="#6A8EC2"/>
<path d="M18.9824 54.3901H26.5849L31.8123 43.0166H18.9824V54.3901Z" fill="#2057A4"/>
<path d="M18.5031 8.7207V45.6633H5.22603C2.35547 45.6633 0.0288086 43.3366 0.0288086 40.4661V13.9179C0.0288086 11.0474 2.35547 8.7207 5.22603 8.7207H18.5031Z" fill="#1B344F"/>
<path d="M31.7742 8.7207H5.22603C2.35568 8.7207 0.0288086 11.0476 0.0288086 13.9179V40.4661C0.0288086 43.3364 2.35568 45.6633 5.22603 45.6633H31.7742C34.6445 45.6633 36.9714 43.3364 36.9714 40.4661V13.9179C36.9714 11.0476 34.6445 8.7207 31.7742 8.7207Z" fill="#0D205B"/>
<path d="M31.2185 11.374H5.79442C4.07555 11.374 2.68213 12.7674 2.68213 14.4863V39.9104C2.68213 41.6293 4.07555 43.0227 5.79442 43.0227H31.2185C32.9374 43.0227 34.3308 41.6293 34.3308 39.9104V14.4863C34.3308 12.7674 32.9374 11.374 31.2185 11.374Z" fill="#F0F5F9"/>
<path d="M18.2798 11.374H5.79442C4.07208 11.374 2.68213 12.77 2.68213 14.4863V39.9044C2.68213 41.6267 4.07813 43.0167 5.79442 43.0167H18.2798V11.374Z" fill="#D7E3F0"/>
<path d="M21.7004 34.5307C21.7004 34.5307 21.6521 34.5307 21.6279 34.5307C21.0538 34.5065 20.534 34.1923 20.2379 33.6967L14.9924 24.8373L12.7805 28.427C12.4723 28.9286 11.9224 29.2368 11.3362 29.2368H8.03654C7.09983 29.2368 6.33838 28.4753 6.33838 27.5386C6.33838 26.6019 7.09983 25.8405 8.03654 25.8405H10.3874L13.5722 20.6614C13.8804 20.1598 14.4303 19.8516 15.0165 19.8516H15.0286C15.6209 19.8516 16.1708 20.1719 16.473 20.6855L21.8273 29.7263L24.3413 26.2091C24.6616 25.7619 25.1753 25.496 25.7252 25.496H28.9705C29.9072 25.496 30.6686 26.2574 30.6686 27.1942C30.6686 28.1309 29.9072 28.8923 28.9705 28.8923H26.5955L23.0722 33.8236C22.7519 34.2708 22.2383 34.5367 21.6883 34.5367L21.7004 34.5307Z" fill="#BACBE3"/>
<path d="M17.827 22.9639L16.4793 20.6855C16.1771 20.1719 15.6272 19.8576 15.035 19.8516H15.0229C14.4306 19.8516 13.8867 20.1598 13.5785 20.6614L10.3937 25.8405H8.04289C7.10618 25.8405 6.34473 26.6019 6.34473 27.5386C6.34473 28.4753 7.10618 29.2368 8.04289 29.2368H11.3425C11.9348 29.2368 12.4787 28.9286 12.7869 28.427L14.9987 24.8373L17.8391 29.6296V22.9639H17.827Z" fill="#FE646F"/>
</svg>
