<svg width="45" height="44" viewBox="0 0 45 44" fill="none" xmlns="http://www.w3.org/2000/svg">
<path d="M39.672 22.0938H3.89209V40.1735H39.672V22.0938Z" fill="#E5E5E5"/>
<path d="M22.5898 2.38946L22.4681 2.33594L2.68066 22.1283H42.3237L22.5898 2.38946Z" fill="#E5E5E5"/>
<path d="M22.1859 22.0938H3.89209V40.1735H22.1859V22.0938Z" fill="#D8D8D8"/>
<path d="M22.1811 2.62305L2.68066 22.1283H22.1811V2.62305Z" fill="#D8D8D8"/>
<path d="M40.9222 0H31.8921V3.29872H40.9222V0Z" fill="#23C5B3"/>
<path d="M36.4072 0H31.8921V3.29872H36.4072V0Z" fill="#23C5B3"/>
<path d="M39.4916 18.9118L33.3271 12.7522V3.29883H39.4916V18.9118Z" fill="#E5E5E5"/>
<path d="M22.4684 0.126953C21.904 0.136684 21.3591 0.360491 20.9601 0.764317L1.13858 20.5858C0.28714 21.4373 0.28714 22.8142 1.13858 23.6656C1.99002 24.5171 3.36692 24.5171 4.21836 23.6656L22.4684 5.41561V0.126953Z" fill="#23C5B3"/>
<path d="M43.8661 20.5859L24.0446 0.764335C23.6554 0.375105 23.1348 0.151297 22.5898 0.131836V5.46915L40.7863 23.6656C41.2096 24.0889 41.7691 24.303 42.3238 24.303C42.8833 24.303 43.438 24.0889 43.8613 23.6656C44.7127 22.8142 44.7127 21.4373 43.8613 20.5859H43.8661Z" fill="#81E3D8"/>
<path d="M22.4684 0.126953C21.9235 0.136684 21.3785 0.345895 20.9601 0.764317L1.13858 20.5858C0.28714 21.4373 0.28714 22.8142 1.13858 23.6656C1.56187 24.0889 2.12139 24.303 2.6809 24.303C3.24042 24.303 3.79507 24.0889 4.22323 23.6656L22.4684 5.41561L22.5851 5.46913V0.131818H22.4684V0.126953Z" fill="#23C5B3"/>
<path d="M26.108 12.874H19.17C18.2054 12.874 17.4233 13.6549 17.4233 14.6183C17.4233 15.5816 18.2054 16.3625 19.17 16.3625H26.108C27.0727 16.3625 27.8547 15.5816 27.8547 14.6183C27.8547 13.6549 27.0727 12.874 26.108 12.874Z" fill="#23C5B3"/>
<path d="M22.4687 12.874H19.1651C18.2018 12.874 17.4185 13.6573 17.4185 14.6207C17.4185 15.584 18.2018 16.3674 19.1651 16.3674H22.4687V12.8789V12.874Z" fill="#23C5B3"/>
<path d="M22.7171 20.873C27.636 20.873 31.6256 24.8675 31.6256 29.7815V40.174H13.8037V29.7815C13.8037 24.8627 17.7982 20.873 22.7122 20.873H22.7171Z" fill="white"/>
<path d="M22.6592 21.832C27.0186 21.832 30.5605 25.374 30.5605 29.7334V39.7366H14.7578V29.7334C14.7578 25.374 18.2998 21.832 22.6592 21.832Z" fill="#E5E5E5"/>
<path d="M22.6592 21.832C18.2949 21.832 14.7578 25.3692 14.7578 29.7334V39.7366H22.6592V21.832Z" fill="#D8D8D8"/>
<path d="M27.8501 30.7693C27.3684 33.1971 25.2277 35.0265 22.6588 35.0265C19.7347 35.0265 17.3652 32.6571 17.3652 29.733C17.3652 26.8089 19.7347 24.4395 22.6588 24.4395C25.2277 24.4395 27.3684 26.2688 27.8501 28.6918C27.383 26.7797 25.6607 25.3639 23.6075 25.3639C21.1943 25.3639 19.2384 27.3198 19.2384 29.733C19.2384 32.1462 21.1943 34.1021 23.6075 34.1021C25.6656 34.1021 27.3879 32.6814 27.8501 30.7693Z" fill="#23C5B3"/>
<path d="M42.0998 39.1953H2.90437C1.63607 39.1953 0.60791 40.2235 0.60791 41.4918C0.60791 42.7601 1.63607 43.7882 2.90437 43.7882H42.0998C43.3681 43.7882 44.3963 42.7601 44.3963 41.4918C44.3963 40.2235 43.3681 39.1953 42.0998 39.1953Z" fill="#23C5B3"/>
<path d="M22.1469 39.1953H2.90437C1.6345 39.1953 0.60791 40.2219 0.60791 41.4918C0.60791 42.7616 1.6345 43.7882 2.90437 43.7882H22.1469V39.1953Z" fill="#81E3D8"/>
</svg>
