<svg width="169" height="47" viewBox="0 0 169 47" fill="none" xmlns="http://www.w3.org/2000/svg">
<path d="M46.0847 19.6702C46.0847 19.6702 46.1191 19.6128 46.1191 19.5784V1.32015C46.1191 0.591197 45.5222 0 44.7932 0H26.4776L23.0567 3.41517L19.6358 0H1.32589C0.596937 0 0 0.591197 0 1.32015V19.5784C0 19.6071 0.0172193 19.6473 0.0344387 19.6702L3.33481 22.9648C3.38647 23.0108 3.38647 23.0969 3.33481 23.1428L0.0344387 26.4432C0.0344387 26.4432 0 26.5006 0 26.535V44.7932C0 45.5222 0.596937 46.1191 1.32589 46.1191H19.6415L23.0624 42.6982L26.4833 46.1191H44.799C45.5279 46.1191 46.1248 45.5222 46.1248 44.7932V26.535C46.1248 26.5063 46.1076 26.4661 46.0904 26.4432L42.7958 23.1485C42.7441 23.1026 42.7441 23.0165 42.7958 22.9706L46.0904 19.676L46.0847 19.6702ZM39.8628 39.8628H6.25062V6.25062H39.8628V39.8628Z" fill="#2057A4"/>
<line x1="71.3082" y1="0.100342" x2="71.3082" y2="46.0186" stroke="black" stroke-width="0.573978"/>
<path d="M166.595 14.4066V24.5144C166.595 25.1285 166.096 25.6279 165.482 25.6279H164.265V27.9582H165.797C167.531 27.9582 168.931 26.5577 168.931 24.8243V14.4066H166.595Z" fill="#233567"/>
<path d="M120.912 26.5749C120.16 26.5749 119.552 27.1833 119.552 27.9353C119.552 28.6872 120.16 29.2956 120.912 29.2956C121.664 29.2956 122.273 28.6872 122.273 27.9353C122.273 27.1833 121.664 26.5749 120.912 26.5749Z" fill="#233567"/>
<path d="M102.304 14.5673C103.056 14.5673 103.664 13.9589 103.664 13.207C103.664 12.4551 103.056 11.8467 102.304 11.8467C101.552 11.8467 100.944 12.4551 100.944 13.207C100.944 13.9589 101.552 14.5673 102.304 14.5673Z" fill="#233567"/>
<path d="M124.201 26.5749C123.449 26.5749 122.841 27.1833 122.841 27.9353C122.841 28.6872 123.449 29.2956 124.201 29.2956C124.953 29.2956 125.562 28.6872 125.562 27.9353C125.562 27.1833 124.953 26.5749 124.201 26.5749Z" fill="#233567"/>
<path d="M155.85 26.5749C155.099 26.5749 154.49 27.1833 154.49 27.9353C154.49 28.6872 155.099 29.2956 155.85 29.2956C156.602 29.2956 157.211 28.6872 157.211 27.9353C157.211 27.1833 156.602 26.5749 155.85 26.5749Z" fill="#233567"/>
<path d="M159.145 26.5749C158.393 26.5749 157.785 27.1833 157.785 27.9353C157.785 28.6872 158.393 29.2956 159.145 29.2956C159.897 29.2956 160.505 28.6872 160.505 27.9353C160.505 27.1833 159.897 26.5749 159.145 26.5749Z" fill="#233567"/>
<path d="M150.96 6.21594H137.409V8.54629H150.96V6.21594Z" fill="#233567"/>
<path d="M160.316 21.0303C160.316 21.6445 159.817 22.1438 159.202 22.1438H149.715V17.6037C149.715 16.5935 149.347 15.6062 148.722 14.8084C148.636 14.6993 148.544 14.596 148.452 14.4927C147.843 13.8154 146.879 13.4251 145.995 13.2701C145.846 13.2472 145.702 13.2299 145.553 13.2185C145.473 13.2185 138.637 13.2185 138.637 13.2185V22.1496H126.549C125.935 22.1496 125.441 21.6559 125.435 21.0418V14.3836H123.099V21.0303C123.099 21.6502 122.6 22.1496 121.98 22.1496H109.542C108.928 22.1496 108.423 21.6502 108.423 21.036V15.3192H106.092V20.8753C106.092 23.6763 104.795 24.8587 103.71 25.3581C102.625 25.8575 101.208 25.8575 100.152 25.2777C98.9635 24.6291 98.51 23.1885 98.3436 21.9257C98.1312 20.2554 98.3665 18.5909 98.4985 16.9264C98.4985 16.9264 96.2141 16.737 96.1739 16.737C96.1108 16.737 95.9788 19.251 95.9673 19.4404C95.8697 20.9557 95.8755 22.4538 96.3633 23.9174C96.8168 25.272 97.6663 26.5405 98.9118 27.2522C99.7039 27.7057 100.628 27.9123 101.541 27.941C104.152 28.0156 106.609 26.9078 107.585 24.3766C107.751 23.9461 107.866 23.4869 107.94 23.0277C108.497 23.9059 109.473 24.4857 110.587 24.4857H122.29C123.409 24.4857 124.385 23.8945 124.942 23.0163C125.498 23.8945 126.474 24.4799 128.299 24.4799H138.861C139.819 24.3709 140.646 23.8198 141.139 23.0392C141.633 23.8256 142.465 24.3709 143.929 24.4799H160.201C161.223 24.4799 162.629 23.0794 162.629 21.346V14.3836H160.299V21.036L160.316 21.0303ZM141.248 22.0233V15.7727H145.777C146.099 15.7727 146.345 15.8358 146.569 15.9563C146.959 16.1745 147.201 16.5992 147.201 17.0469V22.0233H141.248Z" fill="#233567"/>
<path d="M138.345 39.036C138.23 39.036 138.126 39.0762 138.04 39.1623C137.954 39.2484 137.914 39.346 137.914 39.4665C137.914 39.587 137.954 39.6904 138.04 39.7765C138.126 39.8626 138.224 39.9027 138.345 39.9027C138.465 39.9027 138.568 39.8626 138.655 39.7765C138.741 39.6904 138.787 39.587 138.787 39.4665C138.787 39.346 138.741 39.2484 138.655 39.1623C138.568 39.0762 138.465 39.036 138.345 39.036Z" fill="#2057A4"/>
<path d="M139.538 39.036C139.418 39.036 139.315 39.0762 139.229 39.1623C139.142 39.2484 139.102 39.346 139.102 39.4665C139.102 39.587 139.142 39.6904 139.229 39.7765C139.315 39.8626 139.418 39.9027 139.538 39.9027C139.659 39.9027 139.762 39.8626 139.848 39.7765C139.935 39.6904 139.975 39.587 139.975 39.4665C139.975 39.346 139.935 39.2484 139.848 39.1623C139.762 39.0762 139.659 39.036 139.538 39.036Z" fill="#2057A4"/>
<path d="M143.017 37.515C142.902 37.515 142.799 37.5552 142.713 37.6413C142.626 37.7274 142.581 37.8249 142.581 37.9455C142.581 38.066 142.621 38.1693 142.707 38.2554C142.793 38.3415 142.896 38.3817 143.017 38.3817C143.137 38.3817 143.241 38.3415 143.327 38.2554C143.413 38.1693 143.453 38.066 143.453 37.9455C143.453 37.8249 143.413 37.7274 143.327 37.6413C143.241 37.5552 143.137 37.515 143.017 37.515Z" fill="#2057A4"/>
<path d="M148.923 33.7956C148.653 33.6464 148.361 33.5718 148.045 33.5718C147.861 33.5718 147.677 33.6005 147.5 33.6579L145.697 34.2031V32.045H144.991V36.1719H143.952C143.809 36.1719 143.683 36.1202 143.579 36.0226C143.47 35.9251 143.413 35.7988 143.401 35.6553V34.2376H142.678V35.6438C142.678 35.7873 142.626 35.9079 142.529 36.0112C142.431 36.1145 142.305 36.1661 142.167 36.1661H141.915C141.381 36.1661 140.864 36.08 140.365 35.9021C140.354 35.9021 140.187 35.8275 139.866 35.6955C139.757 35.6496 139.648 35.5979 139.527 35.552L139.217 36.2121L140.25 36.6311C140.388 36.677 140.503 36.7573 140.589 36.8721C140.675 36.9869 140.715 37.1189 140.715 37.2624C140.715 37.4232 140.658 37.5666 140.537 37.6872C140.417 37.8077 140.273 37.8651 140.112 37.8651H137.977C137.776 37.8651 137.581 37.8135 137.409 37.7101C137.231 37.6068 137.093 37.4691 136.99 37.2911C136.887 37.1132 136.835 36.9238 136.835 36.7229V35.5061H136.112V36.7229C136.112 37.0558 136.198 37.3658 136.364 37.647C136.531 37.934 136.755 38.1578 137.042 38.3243C137.329 38.4908 137.633 38.5768 137.966 38.5768H140.101C140.336 38.5768 140.554 38.5195 140.761 38.3989C140.962 38.2784 141.128 38.1234 141.249 37.9225C141.369 37.7216 141.427 37.4978 141.427 37.2624C141.427 37.0845 141.375 36.941 141.266 36.8205C141.479 36.8664 141.691 36.8894 141.903 36.8894H142.236C142.403 36.8894 142.558 36.8549 142.701 36.7803C142.845 36.7114 142.965 36.6081 143.068 36.4876C143.177 36.6138 143.304 36.7114 143.459 36.7803C143.614 36.8492 143.774 36.8894 143.947 36.8894H149.187C149.353 36.8894 149.497 36.832 149.618 36.7114C149.732 36.5909 149.795 36.4417 149.795 36.2695V35.3167C149.795 34.9837 149.715 34.6853 149.554 34.4098C149.399 34.1515 149.187 33.9506 148.917 33.8014L148.923 33.7956ZM149.084 36.0112C149.084 36.0571 149.072 36.0915 149.044 36.126C149.015 36.1547 148.98 36.1719 148.94 36.1719H145.697V34.9436L147.706 34.3294C147.815 34.3007 147.924 34.2892 148.039 34.2892C148.228 34.2892 148.401 34.3294 148.567 34.4155C148.728 34.4959 148.854 34.6107 148.94 34.7599C149.038 34.9206 149.084 35.0985 149.084 35.3109V36.0112Z" fill="#2057A4"/>
<path d="M162.991 37.4863C162.871 37.4863 162.767 37.5265 162.681 37.6126C162.595 37.6987 162.555 37.7962 162.555 37.9168C162.555 38.0373 162.595 38.1406 162.681 38.2267C162.767 38.3128 162.871 38.353 162.991 38.353C163.112 38.353 163.215 38.3128 163.301 38.2267C163.387 38.1406 163.427 38.0373 163.427 37.9168C163.427 37.7962 163.387 37.6987 163.301 37.6126C163.215 37.5265 163.112 37.4863 162.991 37.4863Z" fill="#2057A4"/>
<path d="M168.806 34.3639C168.662 34.117 168.473 33.9276 168.232 33.7841C167.991 33.6406 167.721 33.566 167.422 33.566H165.809V35.684C165.809 35.8275 165.769 35.9423 165.683 36.0341C165.597 36.126 165.477 36.1719 165.327 36.1719H164.719C164.61 36.1719 164.529 36.1374 164.461 36.0628C164.397 35.994 164.363 35.8964 164.363 35.7758V35.552C164.363 35.1846 164.3 34.869 164.168 34.6107C164.036 34.3524 163.869 34.1457 163.668 34.0022C163.278 33.721 162.813 33.5775 162.268 33.5775C161.872 33.5775 161.505 33.6521 161.149 33.8014L161.401 34.4442C161.705 34.3409 162.01 34.2892 162.302 34.2892C162.693 34.2892 163.003 34.3811 163.238 34.5647C163.519 34.7829 163.663 35.1215 163.663 35.5864V35.7816C163.663 35.8677 163.68 35.9423 163.72 36.0054C163.76 36.0743 163.812 36.126 163.875 36.1661H160.672C160.558 36.1661 160.466 36.126 160.385 36.0456C160.305 35.9653 160.271 35.8677 160.271 35.7529V35.0928C160.265 34.8173 160.19 34.559 160.041 34.3237C159.897 34.0883 159.702 33.9047 159.461 33.7669C159.22 33.6292 158.962 33.5603 158.686 33.5603H157.051V35.6783C157.051 35.8218 157.005 35.9366 156.913 36.0284C156.821 36.1202 156.706 36.1661 156.563 36.1661H155.392C155.598 36.0226 155.753 35.839 155.857 35.5979C155.954 35.3626 156.006 35.1272 156.006 34.9091C156.006 34.5877 155.903 34.3007 155.69 34.0482C155.478 33.7899 155.214 33.6349 154.887 33.566C154.76 33.5373 154.628 33.5258 154.485 33.5258C153.985 33.5258 153.475 33.6808 152.952 33.985L152.751 34.5647L153.44 36.1719H153.222C153.027 36.1891 152.838 36.2522 152.66 36.367C152.487 36.4761 152.344 36.6368 152.235 36.8377C152.126 37.0443 152.074 37.2854 152.074 37.5494C152.074 37.8135 152.132 38.0373 152.258 38.2497C152.384 38.4621 152.551 38.6285 152.763 38.7548C152.975 38.8753 153.205 38.9385 153.457 38.9385H155.162V38.2267H153.457C153.274 38.2267 153.119 38.1578 152.987 38.0258C152.855 37.8881 152.786 37.7331 152.786 37.5494C152.786 37.3658 152.855 37.2108 152.987 37.0788C153.119 36.9468 153.274 36.8779 153.457 36.8779H156.563C156.764 36.8779 156.947 36.8262 157.114 36.7286C157.28 36.6311 157.418 36.4991 157.515 36.3326C157.653 36.5048 157.82 36.6425 158.021 36.7344C158.216 36.832 158.44 36.8779 158.686 36.8779C158.91 36.8779 159.117 36.832 159.312 36.7344C159.507 36.6425 159.668 36.5105 159.794 36.3441C159.869 36.4991 159.989 36.6311 160.144 36.7286C160.305 36.8262 160.483 36.8779 160.672 36.8779H165.316C165.517 36.8779 165.7 36.8262 165.873 36.7286C166.039 36.6311 166.177 36.4933 166.274 36.3211C166.401 36.4876 166.567 36.6253 166.768 36.7286C166.963 36.8262 167.175 36.8779 167.405 36.8779C167.686 36.8779 167.95 36.809 168.191 36.6712C168.432 36.5392 168.628 36.3498 168.777 36.1202C168.92 35.8849 168.995 35.6266 169.001 35.3511V35.1789C169.001 34.8747 168.932 34.6049 168.794 34.3581L168.806 34.3639ZM155.202 35.3167C155.139 35.4946 155.03 35.661 154.875 35.816C154.72 35.9767 154.508 36.08 154.238 36.126L153.544 34.6336L153.589 34.4786C153.75 34.4098 153.905 34.3581 154.043 34.3179C154.186 34.272 154.341 34.2548 154.508 34.2548C154.605 34.2548 154.691 34.2605 154.76 34.2835C154.915 34.3122 155.042 34.3811 155.139 34.5016C155.242 34.6221 155.288 34.7599 155.288 34.9149C155.288 35.0124 155.26 35.1445 155.202 35.3167ZM159.553 35.2994C159.553 35.5462 159.467 35.7529 159.295 35.9136C159.123 36.08 158.904 36.1661 158.635 36.1719C158.485 36.1719 158.342 36.1317 158.21 36.0571C158.078 35.9767 157.975 35.8792 157.894 35.7471C157.814 35.6209 157.774 35.4831 157.774 35.3281V34.2892H158.635C158.899 34.2892 159.117 34.3639 159.283 34.5188C159.455 34.6738 159.542 34.8747 159.553 35.1158V35.2994ZM168.306 35.3224C168.3 35.552 168.209 35.7529 168.042 35.9136C167.87 36.08 167.663 36.1661 167.422 36.1719C167.175 36.1719 166.969 36.0915 166.797 35.9366C166.624 35.7816 166.538 35.5864 166.533 35.3511V34.2835H167.399C167.658 34.2835 167.87 34.3639 168.042 34.5303C168.214 34.6968 168.306 34.9034 168.306 35.1559V35.3224Z" fill="#2057A4"/>
</svg>
