<svg width="63" height="60" viewBox="0 0 63 60" fill="none" xmlns="http://www.w3.org/2000/svg">
<circle cx="33.8705" cy="34.5482" r="24.3871" fill="#D9D9D9"/>
<mask id="mask0_2345_2905" style="mask-type:alpha" maskUnits="userSpaceOnUse" x="9" y="10" width="50" height="49">
<circle cx="33.8724" cy="34.5492" r="24.3871" fill="#D9D9D9"/>
</mask>
<g mask="url(#mask0_2345_2905)">
<path d="M34.2109 52.8398C38.8174 56.0914 38.7271 60.5172 38.2755 61.985L54.8722 54.8721L48.4367 44.3721C46.54 55.7527 38.84 53.9688 34.2109 52.8398Z" fill="#F49A62" stroke="#F49A62" stroke-width="0.677419"/>
</g>
<path d="M24.8487 25.6807L15.369 16.201C14.4667 15.2988 13.004 15.2988 12.1017 16.201C11.1995 17.1032 11.1995 18.566 12.1017 19.4682L21.5815 28.948C22.4837 29.8502 23.9465 29.8502 24.8487 28.948C25.7509 28.0457 25.7509 26.583 24.8487 25.6807Z" fill="#FED2A4"/>
<path d="M12.0756 16.2334C11.2049 17.1382 11.2106 18.5778 12.104 19.4712L21.5841 28.9513C22.4775 29.8447 23.9171 29.8503 24.8219 28.9797L12.0756 16.2334Z" fill="#FFBD86"/>
<path d="M39.8327 2.84375H20.6848C19.1637 2.84375 17.9307 4.07681 17.9307 5.59787V46.3804C17.9307 47.9015 19.1637 49.1345 20.6848 49.1345H39.8327C41.3538 49.1345 42.5868 47.9015 42.5868 46.3804V5.59787C42.5868 4.07681 41.3538 2.84375 39.8327 2.84375Z" fill="#2A428C"/>
<path d="M29.8805 2.84375H20.6906C19.1713 2.84375 17.9365 4.07855 17.9365 5.59787V46.3804C17.9365 47.8997 19.1713 49.1345 20.6906 49.1345H29.8805V2.84375Z" fill="#132766"/>
<path d="M39.6168 3.46973H20.9014C19.594 3.46973 18.5342 4.52955 18.5342 5.8369V46.1415C18.5342 47.4488 19.594 48.5086 20.9014 48.5086H39.6168C40.9242 48.5086 41.984 47.4488 41.984 46.1415V5.8369C41.984 4.52955 40.9242 3.46973 39.6168 3.46973Z" fill="#F0F5F9"/>
<path d="M30.1644 3.46973H20.9062C19.5975 3.46973 18.5391 4.52813 18.5391 5.8369V46.1358C18.5391 47.4445 19.5975 48.5029 20.9062 48.5029H30.1644V3.46973Z" fill="#D7E3F0"/>
<path d="M33.0558 4.12988H27.4679C26.8897 4.12988 26.4209 4.59865 26.4209 5.1769C26.4209 5.75515 26.8897 6.22392 27.4679 6.22392H33.0558C33.6341 6.22392 34.1028 5.75515 34.1028 5.1769C34.1028 4.59865 33.6341 4.12988 33.0558 4.12988Z" fill="#2A428C"/>
<path d="M30.1253 4.12988H27.4679C26.8875 4.12988 26.4209 4.59649 26.4209 5.1769C26.4209 5.75732 26.8875 6.22392 27.4679 6.22392H30.1253V4.12988Z" fill="#132766"/>
<path d="M23.2166 34.8299H37.2489C39.8608 34.8299 41.9833 36.9524 41.9833 39.5643V46.3187C41.9833 47.525 41.0045 48.5038 39.7982 48.5038H21.6631C19.9048 48.5038 18.4766 47.0755 18.4766 45.3172V39.5586C18.4766 36.9467 20.5991 34.8242 23.2109 34.8242L23.2166 34.8299Z" fill="#2A428C"/>
<path d="M30.0395 34.8299H23.2168C20.5992 34.8299 18.4824 36.9524 18.4824 39.5643V46.0683C18.4824 47.4169 19.575 48.5038 20.9179 48.5038H30.0395V34.8242V34.8299Z" fill="#1C2E7A"/>
<path d="M37.4021 19.3065V26.5275C37.4021 30.488 34.1928 33.6973 30.2323 33.6973C26.2718 33.6973 23.0625 30.488 23.0625 26.5275V19.3065C23.0625 16.0346 25.2533 13.2748 28.2521 12.4155C28.8837 12.2335 29.5438 12.1367 30.2323 12.1367C32.2125 12.1367 34.005 12.9391 35.3024 14.2364C35.7633 14.6974 36.1673 15.2266 36.4917 15.8013C37.0721 16.8369 37.4021 18.0319 37.4021 19.3065Z" fill="#2A428C"/>
<path d="M30.0788 12.1426C26.1923 12.2279 23.0684 15.5625 23.0684 19.6595V26.1749C23.0684 30.2719 26.1923 33.6065 30.0788 33.6918V12.1426Z" fill="#1C2E7A"/>
<path d="M36.4875 34.8747C35.7079 37.7199 33.1074 39.8082 30.0119 39.8082C26.9164 39.8082 24.3329 37.7313 23.542 34.8975C26.0059 33.9017 27.7415 31.489 27.7415 28.6723C27.7415 28.0463 27.6561 27.4432 27.4968 26.8684C28.2707 26.5555 29.1185 26.3848 30.0062 26.3848C30.8939 26.3848 31.7873 26.5669 32.5782 26.8969C32.4246 27.4602 32.3392 28.0577 32.3392 28.6723C32.3392 31.4662 34.0463 33.8675 36.4818 34.8747H36.4875Z" fill="#2A428C"/>
<path d="M30.1135 26.3848C30.0794 26.3848 30.0452 26.3848 30.0111 26.3848C29.1234 26.3848 28.2755 26.5555 27.5016 26.8684C27.661 27.4432 27.7463 28.0463 27.7463 28.6723C27.7463 31.4947 26.0051 33.9074 23.5469 34.8975C24.3321 37.7313 26.9326 39.8082 30.0168 39.8082C30.0509 39.8082 30.0851 39.8082 30.1192 39.8082V26.3905L30.1135 26.3848Z" fill="#1C2E7A"/>
<path d="M36.1847 20.336V26.0604C36.1847 29.2925 33.5671 31.9101 30.335 31.9101C27.1029 31.9101 24.4854 29.2925 24.4854 26.0604V20.336C24.4854 17.7867 26.1128 15.6244 28.3832 14.8221C28.9921 14.6058 29.6522 14.4863 30.335 14.4863C31.9511 14.4863 33.4135 15.1407 34.4719 16.1991C35.5303 17.2575 36.1847 18.7199 36.1847 20.336Z" fill="#FED2A4"/>
<path d="M30.3122 14.4863V31.9101C27.0915 31.8987 24.4854 29.2812 24.4854 26.0604V20.336C24.4854 20.188 24.4854 20.0458 24.5024 19.9035C24.7243 16.882 27.2395 14.5034 30.3122 14.492V14.4863Z" fill="#FFBD86"/>
<path d="M30.3127 14.4863V14.9416C29.482 17.525 27.2457 19.4767 24.5029 19.8978C24.7249 16.8763 27.24 14.4977 30.3127 14.4863Z" fill="#6C3326"/>
<path d="M36.1842 20.336V21.5822C32.275 21.4399 29.06 18.572 28.3828 14.8221C28.9917 14.6058 29.6518 14.4863 30.3346 14.4863C31.9506 14.4863 33.4131 15.1407 34.4715 16.1991C35.5299 17.2575 36.1842 18.7199 36.1842 20.336Z" fill="#883F2E"/>
<path d="M21.8855 29.8L17.2542 25.1688C16.352 24.2665 14.8892 24.2665 13.987 25.1688C13.0848 26.071 13.0848 27.5338 13.987 28.436L18.6182 33.0672C19.5205 33.9694 20.9832 33.9694 21.8855 33.0672C22.7877 32.165 22.7877 30.7022 21.8855 29.8Z" fill="#FED2A4"/>
<path d="M13.9438 25.2127C13.0845 26.1175 13.1016 27.5458 13.9836 28.4334L18.6155 33.0654C19.5032 33.9531 20.9315 33.9644 21.8362 33.1052L13.9381 25.207L13.9438 25.2127Z" fill="#FFBD86"/>
<path d="M20.7282 35.6555L16.097 31.0242C15.1948 30.122 13.732 30.122 12.8298 31.0242C11.9276 31.9264 11.9276 33.3892 12.8298 34.2914L17.461 38.9227C18.3632 39.8249 19.826 39.8249 20.7282 38.9227C21.6304 38.0205 21.6304 36.5577 20.7282 35.6555Z" fill="#FED2A4"/>
<path d="M12.7875 31.0682C11.9283 31.973 11.9454 33.4012 12.8274 34.2889L17.4593 38.9208C18.347 39.8085 19.7752 39.8199 20.68 38.9607L12.7818 31.0625L12.7875 31.0682Z" fill="#FFBD86"/>
<path d="M21.1076 43.0197L16.4764 38.3885C15.5742 37.4863 14.1114 37.4863 13.2092 38.3885C12.3069 39.2907 12.3069 40.7535 13.2092 41.6557L17.8404 46.2869C18.7426 47.1892 20.2054 47.1892 21.1076 46.2869C22.0098 45.3847 22.0098 43.9219 21.1076 43.0197Z" fill="#FED2A4"/>
<path d="M13.1689 38.4373C12.3096 39.3421 12.3267 40.7704 13.2087 41.6581L17.8406 46.29C18.7283 47.1777 20.1566 47.189 21.0613 46.3298L13.1632 38.4316L13.1689 38.4373Z" fill="#FFBD86"/>
<path opacity="0.2" d="M28.0653 38.5566H24.1902C23.5699 38.5566 23.0635 39.0631 23.0635 39.6833V42.6992C23.0635 43.3194 23.5699 43.8259 24.1902 43.8259H28.0653V38.5566Z" fill="#D7E3F0"/>
<path opacity="0.2" d="M36.2775 38.5566H32.4365V43.8259H36.2775C36.8977 43.8259 37.4042 43.3194 37.4042 42.6992V39.6833C37.4042 39.0631 36.8977 38.5566 36.2775 38.5566Z" fill="#F0F5F9"/>
<path d="M30.2345 37.7254C30.2345 37.7254 30.1947 37.7254 30.1776 37.7254C30.1435 37.7254 30.1094 37.7254 30.0752 37.7254C30.0468 37.7254 30.0183 37.7254 29.9899 37.7254C29.9614 37.7254 29.9273 37.7254 29.8988 37.7311C29.7736 37.7425 29.6541 37.7596 29.5346 37.7823C29.4777 37.7937 29.4151 37.8051 29.3582 37.8222C29.2672 37.8449 29.1818 37.8677 29.0965 37.8961C29.068 37.9075 29.0396 37.9132 29.0111 37.9246C28.9827 37.936 28.9542 37.9416 28.9258 37.953C28.8973 37.9644 28.8689 37.9758 28.8404 37.9872C28.812 37.9986 28.7835 38.0099 28.7608 38.0213C28.7323 38.0327 28.7095 38.0441 28.6811 38.0555C28.6526 38.0668 28.6242 38.0782 28.6014 38.0953C28.573 38.1067 28.5502 38.1237 28.5218 38.1351C28.4933 38.1522 28.4592 38.1693 28.4307 38.1863C28.3852 38.2091 28.3397 38.2375 28.2941 38.266C28.2714 38.2831 28.2429 38.2944 28.2202 38.3115C28.1974 38.3286 28.169 38.3457 28.1462 38.3627C28.095 38.3969 28.0495 38.431 28.0039 38.4652C27.9812 38.4822 27.9527 38.505 27.93 38.5221C27.9072 38.5391 27.8901 38.5562 27.8674 38.5733C27.8446 38.5903 27.8218 38.6131 27.7991 38.6302C27.7763 38.6472 27.7536 38.67 27.7365 38.6871C27.7137 38.7098 27.6853 38.7326 27.6625 38.7611C27.6454 38.7781 27.6284 38.7952 27.6113 38.8123C27.5885 38.835 27.5658 38.8578 27.543 38.8862C27.5146 38.9204 27.4804 38.9545 27.452 38.9887C27.3894 39.0626 27.3268 39.1366 27.2699 39.2106C27.2528 39.2334 27.2357 39.2561 27.2187 39.2846C27.2016 39.3073 27.1845 39.3301 27.1675 39.3585C27.139 39.4041 27.1106 39.4496 27.0821 39.4894C27.0081 39.6146 26.9342 39.7455 26.8773 39.882C26.8716 39.8991 26.8602 39.9162 26.8545 39.9276C26.8488 39.9446 26.8431 39.956 26.8374 39.9731C26.8033 40.0528 26.7748 40.1324 26.7464 40.2121C26.7464 40.2292 26.735 40.2405 26.7293 40.2576C26.7293 40.2747 26.7179 40.2917 26.7122 40.3088C26.6553 40.4852 26.6155 40.6673 26.587 40.8551C26.5814 40.8949 26.5757 40.9404 26.57 40.9803C26.57 40.9917 26.57 41.003 26.57 41.0201C26.57 41.077 26.5586 41.1339 26.5586 41.1908C26.5586 41.2022 26.5586 41.2079 26.5586 41.2193C26.5586 41.2762 26.5586 41.3388 26.5586 41.3957C26.5586 41.4526 26.5586 41.5152 26.5586 41.5721C26.5586 41.5835 26.5586 41.5891 26.5586 41.6005C26.5586 41.6574 26.5643 41.7143 26.57 41.7712C26.57 41.7826 26.57 41.794 26.57 41.8111C26.57 41.8509 26.5814 41.8964 26.587 41.9363C26.6155 42.124 26.6553 42.3061 26.7122 42.4825C26.7179 42.4996 26.7236 42.5224 26.7293 42.5451C26.7407 42.5793 26.7521 42.6191 26.7691 42.6532C26.7805 42.6817 26.7919 42.7101 26.8033 42.7386C26.8147 42.767 26.826 42.7955 26.8374 42.8239C26.8431 42.841 26.8545 42.8638 26.8602 42.8808C26.8773 42.915 26.8943 42.9491 26.9114 42.989C26.9228 43.0174 26.9342 43.0402 26.9512 43.0686C26.9626 43.0971 26.9797 43.1198 26.9911 43.1483C27.0024 43.1767 27.0195 43.1995 27.0309 43.228C27.048 43.2564 27.0593 43.2792 27.0764 43.3019C27.1049 43.3531 27.139 43.4044 27.1731 43.4499C27.1902 43.4726 27.2073 43.5011 27.2244 43.5239C27.2585 43.5694 27.2926 43.6206 27.3268 43.6661C27.3439 43.6889 27.3609 43.7116 27.3837 43.7344C27.4008 43.7572 27.4235 43.7799 27.4406 43.8027C27.4804 43.8482 27.5203 43.888 27.5601 43.9336C27.5999 43.9791 27.6398 44.0189 27.6853 44.0587C27.7706 44.1384 27.856 44.2181 27.947 44.292C28.1064 44.4229 28.2771 44.5367 28.4592 44.6335C28.9087 44.8838 29.4151 45.0432 29.95 45.083C29.95 45.083 29.9557 45.083 29.9614 45.083C30.0297 45.083 30.1037 45.0887 30.1776 45.0944C30.1833 45.0944 30.189 45.0944 30.1947 45.0944C30.1947 45.0944 30.2345 45.0944 30.2516 45.0944C32.2887 45.0944 33.9389 43.4442 33.9389 41.4071C33.9389 39.3699 32.2887 37.7197 30.2516 37.7197L30.2345 37.7254ZM31.6059 41.8338L30.2914 42.5906L30.1435 42.676C29.8192 42.8638 29.4208 42.6305 29.4208 42.2549V40.5706C29.4208 40.2007 29.8248 39.9674 30.1435 40.1495L30.2914 40.2348L31.6059 40.9917C31.9303 41.1794 31.9303 41.6404 31.6059 41.8281V41.8338Z" fill="#F0F5F9"/>
<path d="M30.0411 42.7222C29.7452 42.8132 29.4208 42.5913 29.4208 42.2613V40.5769C29.4208 40.2469 29.7395 40.025 30.0411 40.116V37.7432C30.0411 37.7432 30.0069 37.7432 29.9899 37.7432C29.9614 37.7432 29.9273 37.7432 29.8988 37.7489C29.7736 37.7602 29.6541 37.7773 29.5346 37.8001C29.4777 37.8114 29.4151 37.8228 29.3582 37.8399C29.2672 37.8627 29.1818 37.8854 29.0965 37.9139C29.068 37.9253 29.0396 37.9309 29.0111 37.9423C28.9827 37.9537 28.9542 37.9594 28.9258 37.9708C28.8973 37.9822 28.8689 37.9935 28.8404 38.0049C28.812 38.0163 28.7835 38.0277 28.7608 38.0391C28.7323 38.0504 28.7095 38.0618 28.6811 38.0732C28.6526 38.0846 28.6242 38.096 28.6014 38.113C28.573 38.1244 28.5502 38.1415 28.5218 38.1529C28.4933 38.1699 28.4592 38.187 28.4307 38.2041C28.3852 38.2268 28.3397 38.2553 28.2941 38.2837C28.2714 38.3008 28.2429 38.3122 28.2202 38.3293C28.1974 38.3463 28.169 38.3634 28.1462 38.3805C28.095 38.4146 28.0495 38.4488 28.0039 38.4829C27.9812 38.5 27.9527 38.5227 27.93 38.5398C27.9072 38.5569 27.8901 38.5739 27.8674 38.591C27.8446 38.6081 27.8218 38.6309 27.7991 38.6479C27.7763 38.665 27.7536 38.6878 27.7365 38.7048C27.7137 38.7276 27.6853 38.7504 27.6625 38.7788C27.6454 38.7959 27.6284 38.8129 27.6113 38.83C27.5885 38.8528 27.5658 38.8755 27.543 38.904C27.5146 38.9381 27.4804 38.9723 27.452 39.0064C27.3894 39.0804 27.3268 39.1544 27.2699 39.2283C27.2528 39.2511 27.2357 39.2739 27.2187 39.3023C27.2016 39.3251 27.1845 39.3478 27.1675 39.3763C27.139 39.4218 27.1106 39.4673 27.0821 39.5072C27.0081 39.6324 26.9342 39.7632 26.8773 39.8998C26.8716 39.9169 26.8602 39.9339 26.8545 39.9453C26.8488 39.9624 26.8431 39.9738 26.8374 39.9908C26.8033 40.0705 26.7748 40.1502 26.7464 40.2298C26.7464 40.2469 26.735 40.2583 26.7293 40.2754C26.7293 40.2924 26.7179 40.3095 26.7122 40.3266C26.6553 40.503 26.6155 40.6851 26.587 40.8728C26.5814 40.9127 26.5757 40.9582 26.57 40.998C26.57 41.0094 26.57 41.0208 26.57 41.0379C26.57 41.0948 26.5586 41.1517 26.5586 41.2086C26.5586 41.2199 26.5586 41.2256 26.5586 41.237C26.5586 41.2939 26.5586 41.3565 26.5586 41.4134C26.5586 41.4703 26.5586 41.5329 26.5586 41.5898C26.5586 41.6012 26.5586 41.6069 26.5586 41.6183C26.5586 41.6752 26.5643 41.7321 26.57 41.789C26.57 41.8004 26.57 41.8117 26.57 41.8288C26.57 41.8686 26.5814 41.9142 26.587 41.954C26.6155 42.1418 26.6553 42.3239 26.7122 42.5003C26.7179 42.5173 26.7236 42.5401 26.7293 42.5629C26.7407 42.597 26.7521 42.6368 26.7691 42.671C26.7805 42.6994 26.7919 42.7279 26.8033 42.7563C26.8147 42.7848 26.826 42.8132 26.8374 42.8417C26.8431 42.8588 26.8545 42.8815 26.8602 42.8986C26.8773 42.9327 26.8943 42.9669 26.9114 43.0067C26.9228 43.0352 26.9342 43.0579 26.9512 43.0864C26.9626 43.1148 26.9797 43.1376 26.9911 43.166C27.0024 43.1945 27.0195 43.2173 27.0309 43.2457C27.048 43.2742 27.0593 43.2969 27.0764 43.3197C27.1049 43.3709 27.139 43.4221 27.1731 43.4676C27.1902 43.4904 27.2073 43.5188 27.2244 43.5416C27.2585 43.5871 27.2926 43.6383 27.3268 43.6839C27.3439 43.7066 27.3609 43.7294 27.3837 43.7521C27.4008 43.7749 27.4235 43.7977 27.4406 43.8204C27.4804 43.866 27.5203 43.9058 27.5601 43.9513C27.5999 43.9968 27.6398 44.0367 27.6853 44.0765C27.7706 44.1562 27.856 44.2358 27.947 44.3098C28.1064 44.4407 28.2771 44.5545 28.4592 44.6512C28.9087 44.9016 29.4151 45.0609 29.95 45.1008C29.95 45.1008 29.9557 45.1008 29.9614 45.1008C29.9956 45.1008 30.024 45.1008 30.0581 45.1008V42.7279L30.0411 42.7222Z" fill="#D7E3F0"/>
<path d="M46.5312 20.6316V24.6034C46.5312 27.477 47.1799 30.3222 48.4943 32.8714C49.2568 34.3452 50.1909 36.0441 50.4689 38.2726C50.7921 40.8643 49.5357 44.8951 49.5357 44.8951C49.5357 49.9538 45.4329 54.0565 40.3742 54.0565C37.3982 54.0565 34.4506 53.442 31.7249 52.247L24.8169 49.2197L39.9702 49.1458C41.4156 49.1401 42.5764 47.9679 42.5764 46.5225L42.5366 29.793V21.5818C42.5366 20.2958 43.5836 19.2602 44.8696 19.2716H45.1882C45.928 19.283 46.5255 19.8861 46.5255 20.6259L46.5312 20.6316Z" fill="#FED2A4"/>
<path d="M40.8069 50.1308C42.1953 50.1308 42.5823 46.3809 42.5823 46.3809C42.5823 47.8262 41.2735 49.1407 39.8338 49.1464L24.8228 49.2203L26.9054 50.1308H40.8069Z" fill="#FFBD86"/>
</svg>
