<svg width="44" height="44" viewBox="0 0 44 44" fill="none" xmlns="http://www.w3.org/2000/svg">
<path d="M30.0547 30.0496L40.6636 19.4407C45.1125 14.9918 45.1125 7.78067 40.6636 3.33667C36.2147 -1.11222 29.0036 -1.11222 24.5596 3.33667L13.9507 13.9456L30.0547 30.0496Z" fill="#D9D9D9"/>
<path d="M13.9504 13.9453L3.34155 24.5542C-1.10734 29.0031 -1.10734 36.2142 3.34155 40.6582C7.79044 45.1071 15.0015 45.1071 19.4455 40.6582L30.0544 30.0493L13.9504 13.9453Z" fill="#7BBBCF"/>
<path d="M40.6782 3.34644L40.6685 3.33667C36.2196 -1.11222 29.0085 -1.11222 24.5645 3.33667L13.9556 13.9456L22.0222 22.0122L40.6782 3.34644Z" fill="#E5E5E5"/>
<path d="M22.0122 22.0071L13.9456 13.9404L3.33667 24.5493C-1.11222 28.9982 -1.11222 36.2093 3.33667 40.6533L3.34644 40.6631L22.0122 21.9973V22.0071Z" fill="#A5D1DE"/>
<path d="M30.0546 39.8319C35.4575 39.8319 39.8373 35.4521 39.8373 30.0493C39.8373 24.6465 35.4575 20.2666 30.0546 20.2666C24.6518 20.2666 20.272 24.6465 20.272 30.0493C20.272 35.4521 24.6518 39.8319 30.0546 39.8319Z" fill="#FFC100"/>
<path d="M30.0546 39.8319C24.6524 39.8319 20.272 35.4515 20.272 30.0493C20.272 24.647 24.6524 20.2666 30.0546 20.2666V39.827V39.8319Z" fill="#FFD554"/>
</svg>
