<svg width="122" height="122" viewBox="0 0 122 122" fill="none" xmlns="http://www.w3.org/2000/svg">
<path opacity="0.5" d="M111.834 50.8327H10.167V96.5827C10.167 100.627 11.7737 104.506 14.6336 107.366C17.4935 110.226 21.3724 111.833 25.417 111.833H96.5837C100.628 111.833 104.507 110.226 107.367 107.366C110.227 104.506 111.834 100.627 111.834 96.5827V50.8327ZM35.5837 40.666C34.2355 40.666 32.9425 40.1305 31.9892 39.1771C31.0359 38.2238 30.5003 36.9309 30.5003 35.5827V15.2493C30.5003 13.9012 31.0359 12.6082 31.9892 11.6549C32.9425 10.7016 34.2355 10.166 35.5837 10.166C36.9318 10.166 38.2248 10.7016 39.1781 11.6549C40.1314 12.6082 40.667 13.9012 40.667 15.2493V35.5827C40.667 36.9309 40.1314 38.2238 39.1781 39.1771C38.2248 40.1305 36.9318 40.666 35.5837 40.666ZM86.417 40.666C85.0688 40.666 83.7758 40.1305 82.8225 39.1771C81.8692 38.2238 81.3337 36.9309 81.3337 35.5827V15.2493C81.3337 13.9012 81.8692 12.6082 82.8225 11.6549C83.7758 10.7016 85.0688 10.166 86.417 10.166C87.7652 10.166 89.0582 10.7016 90.0115 11.6549C90.9648 12.6082 91.5003 13.9012 91.5003 15.2493V35.5827C91.5003 36.9309 90.9648 38.2238 90.0115 39.1771C89.0582 40.1305 87.7652 40.666 86.417 40.666Z" fill="#BACBE3"/>
<path d="M96.5837 20.334H91.5003V35.584C91.5003 36.9322 90.9648 38.2251 90.0115 39.1784C89.0581 40.1318 87.7652 40.6673 86.417 40.6673C85.0688 40.6673 83.7758 40.1318 82.8225 39.1784C81.8692 38.2251 81.3337 36.9322 81.3337 35.584V20.334H40.667V35.584C40.667 36.9322 40.1314 38.2251 39.1781 39.1784C38.2248 40.1318 36.9318 40.6673 35.5837 40.6673C34.2355 40.6673 32.9425 40.1318 31.9892 39.1784C31.0359 38.2251 30.5003 36.9322 30.5003 35.584V20.334H25.417C21.3724 20.334 17.4935 21.9407 14.6336 24.8006C11.7737 27.6605 10.167 31.5394 10.167 35.584V50.834H111.834V35.584C111.834 31.5394 110.227 27.6605 107.367 24.8006C104.507 21.9407 100.628 20.334 96.5837 20.334Z" fill="#6A8EC2"/>
<path d="M69.3276 94.5881C69.2252 94.6051 69.1204 94.601 69.0197 94.576C68.9189 94.551 68.8243 94.5057 68.7417 94.4429L67.4961 93.4984C65.4986 91.9884 63.0604 91.1765 60.5564 91.1874C58.0524 91.1984 55.6214 92.0317 53.6372 93.5592L52.3999 94.5145C52.3204 94.5759 52.2296 94.6211 52.1326 94.6474C52.0356 94.6736 51.9344 94.6806 51.8348 94.6678C51.7351 94.655 51.639 94.6226 51.5518 94.5727C51.4646 94.5227 51.3882 94.456 51.3268 94.3765C51.2654 94.297 51.2202 94.2062 51.1939 94.1092C51.1676 94.0122 51.1607 93.911 51.1735 93.8114C51.1863 93.7117 51.2186 93.6156 51.2686 93.5284C51.3186 93.4412 51.3852 93.3648 51.4648 93.3034L52.7021 92.3481C54.9524 90.6156 57.7096 89.6705 60.5495 89.658C63.3895 89.6455 66.1549 90.5665 68.4203 92.2791L69.6659 93.2236C69.7851 93.314 69.8752 93.4373 69.925 93.5784C69.9748 93.7195 69.9822 93.872 69.9462 94.0172C69.9102 94.1624 69.8324 94.2939 69.7224 94.3953C69.6125 94.4968 69.4752 94.5638 69.3276 94.588L69.3276 94.5881Z" fill="#4D79B6"/>
<path d="M77.442 68.974C77.4382 66.1574 76.2628 63.8757 74.8166 63.8776C73.3705 63.8796 72.2012 66.1645 72.205 68.9811C72.2088 71.7977 73.3842 74.0795 74.8304 74.0775C76.2765 74.0756 77.4458 71.7907 77.442 68.974Z" fill="#4D79B6"/>
<path d="M47.2789 68.9647C47.2752 66.1758 46.0998 63.9165 44.6537 63.9185C43.2075 63.9204 42.0383 66.1829 42.042 68.9718C42.0458 71.7606 43.2212 74.0199 44.6673 74.0179C46.1134 74.016 47.2827 71.7536 47.2789 68.9647Z" fill="#4D79B6"/>
</svg>
