<svg width="177" height="177" viewBox="0 0 177 177" fill="none" xmlns="http://www.w3.org/2000/svg">
<g opacity="0.08">
<path opacity="0.5" d="M162.25 73.75H14.75V140.125C14.75 145.993 17.081 151.62 21.2303 155.77C25.3795 159.919 31.0071 162.25 36.875 162.25H140.125C145.993 162.25 151.62 159.919 155.77 155.77C159.919 151.62 162.25 145.993 162.25 140.125V73.75ZM51.625 59C49.669 59 47.7932 58.223 46.4101 56.8399C45.027 55.4568 44.25 53.581 44.25 51.625V22.125C44.25 20.169 45.027 18.2932 46.4101 16.9101C47.7932 15.527 49.669 14.75 51.625 14.75C53.581 14.75 55.4568 15.527 56.8399 16.9101C58.223 18.2932 59 20.169 59 22.125V51.625C59 53.581 58.223 55.4568 56.8399 56.8399C55.4568 58.223 53.581 59 51.625 59ZM125.375 59C123.419 59 121.543 58.223 120.16 56.8399C118.777 55.4568 118 53.581 118 51.625V22.125C118 20.169 118.777 18.2932 120.16 16.9101C121.543 15.527 123.419 14.75 125.375 14.75C127.331 14.75 129.207 15.527 130.59 16.9101C131.973 18.2932 132.75 20.169 132.75 22.125V51.625C132.75 53.581 131.973 55.4568 130.59 56.8399C129.207 58.223 127.331 59 125.375 59Z" fill="#BACBE3"/>
<path d="M140.125 29.5H132.75V51.625C132.75 53.581 131.973 55.4568 130.59 56.8399C129.207 58.223 127.331 59 125.375 59C123.419 59 121.543 58.223 120.16 56.8399C118.777 55.4568 118 53.581 118 51.625V29.5H59V51.625C59 53.581 58.223 55.4568 56.8399 56.8399C55.4568 58.223 53.581 59 51.625 59C49.669 59 47.7932 58.223 46.4101 56.8399C45.027 55.4568 44.25 53.581 44.25 51.625V29.5H36.875C31.0071 29.5 25.3795 31.831 21.2303 35.9803C17.081 40.1295 14.75 45.7571 14.75 51.625V73.75H162.25V51.625C162.25 45.7571 159.919 40.1295 155.77 35.9803C151.62 31.831 145.993 29.5 140.125 29.5Z" fill="#6A8EC2"/>
</g>
</svg>
