<svg width="45" height="45" viewBox="0 0 45 45" fill="none" xmlns="http://www.w3.org/2000/svg">
<path d="M32.3917 37.4489H3.85205V14.2674C3.85205 6.386 10.2429 0 18.1194 0C26.0008 0 32.3868 6.39087 32.3868 14.2674V37.4489H32.3917Z" fill="#404040"/>
<path d="M17.7979 0.00488281C10.0675 0.175371 3.85205 6.49805 3.85205 14.2723V37.4538H17.7979V0.00488281Z" fill="#191919"/>
<path d="M35.1436 44.2538H0.500488C0.500488 38.6277 5.05981 34.0684 10.6859 34.0684H24.963C30.5891 34.0684 35.1484 38.6277 35.1484 44.2538H35.1436Z" fill="#A654BF"/>
<path d="M17.6515 34.0684H10.6859C5.05981 34.0684 0.500488 38.6277 0.500488 44.2538H17.6467V34.0684H17.6515Z" fill="#742E89"/>
<path d="M14.0083 30.3125H21.5487V34.0827C21.5487 36.1627 19.8585 37.8529 17.7785 37.8529C15.6986 37.8529 14.0083 36.1627 14.0083 34.0827V30.3125Z" fill="#FED2A4"/>
<path d="M17.9782 30.3125H14.0083V34.0827C14.0083 36.1676 15.6986 37.8529 17.7785 37.8529C17.8467 37.8529 17.9149 37.8529 17.9782 37.8481V30.3125Z" fill="#FFBD86"/>
<path d="M18.0126 5.7041H17.7301C12.1532 5.7041 7.63232 10.225 7.63232 15.8019V22.5678C7.63232 28.1447 12.1532 32.6656 17.7301 32.6656H18.0126C23.5894 32.6656 28.1103 28.1447 28.1103 22.5678V15.8019C28.1103 10.225 23.5894 5.7041 18.0126 5.7041Z" fill="#FED2A4"/>
<path d="M17.9736 5.7041H17.7252C12.1478 5.7041 7.62744 10.2245 7.62744 15.8019V22.5629C7.62744 28.1403 12.1478 32.6607 17.7252 32.6607H17.9736V5.7041Z" fill="#FFBD86"/>
<path d="M28.1093 15.8019V18.7684C28.1093 13.191 23.589 8.6706 18.0116 8.6706H17.7291C12.1517 8.6706 7.63135 13.191 7.63135 18.7684V15.8019C7.63135 10.2245 12.1517 5.7041 17.7291 5.7041H18.0116C23.589 5.7041 28.1093 10.2245 28.1093 15.8019Z" fill="#A654BF"/>
<path d="M17.7096 5.7041C12.142 5.71384 7.63135 10.2342 7.63135 15.8019V18.7684C7.63135 13.1958 12.142 8.68034 17.7096 8.6706V5.7041Z" fill="#A654BF"/>
<path d="M29.4349 18.2768C29.4349 17.7038 28.9704 17.2393 28.3974 17.2393C27.8244 17.2393 27.3599 17.7038 27.3599 18.2768V21.2628C27.3599 21.8358 27.8244 22.3003 28.3974 22.3003C28.9704 22.3003 29.4349 21.8358 29.4349 21.2628V18.2768Z" fill="#FED2A4"/>
<path d="M8.38172 18.2768C8.38172 17.7038 7.9172 17.2393 7.34418 17.2393C6.77116 17.2393 6.30664 17.7038 6.30664 18.2768V21.2628C6.30664 21.8358 6.77116 22.3003 7.34418 22.3003C7.9172 22.3003 8.38172 21.8358 8.38172 21.2628V18.2768Z" fill="#FFBD86"/>
<path d="M32.8027 37.4209L37.1633 33.0603L38.4274 34.3244C38.9613 34.8583 38.9613 35.7263 38.4274 36.2601L36.0026 38.685C35.4687 39.2189 34.6007 39.2189 34.0668 38.685L32.8027 37.4209Z" fill="#592B67"/>
<path d="M35.8579 38.8242L38.5617 36.1204L43.8385 41.3972C44.2036 41.7623 44.2036 42.3547 43.8385 42.7198L42.4608 44.0976C42.0957 44.4627 41.5032 44.4627 41.1381 44.0976L35.8614 38.8208L35.8579 38.8242Z" fill="#6C2D7F"/>
<path d="M28.1187 38.3605C33.4857 38.3605 37.8365 34.0096 37.8365 28.6426C37.8365 23.2756 33.4857 18.9248 28.1187 18.9248C22.7517 18.9248 18.4009 23.2756 18.4009 28.6426C18.4009 34.0096 22.7517 38.3605 28.1187 38.3605Z" fill="#FFBD86"/>
<path d="M29.0442 35.9976C33.8005 35.9976 37.6562 32.1419 37.6562 27.3855C37.6562 22.6292 33.8005 18.7734 29.0442 18.7734C24.2879 18.7734 20.4321 22.6292 20.4321 27.3855C20.4321 32.1419 24.2879 35.9976 29.0442 35.9976Z" fill="#FECE9E"/>
<path d="M28.1187 38.3605C33.4857 38.3605 37.8365 34.0096 37.8365 28.6426C37.8365 23.2756 33.4857 18.9248 28.1187 18.9248C22.7517 18.9248 18.4009 23.2756 18.4009 28.6426C18.4009 34.0096 22.7517 38.3605 28.1187 38.3605Z" stroke="#6C2D7F" stroke-width="1.69027" stroke-miterlimit="10"/>
<path d="M31.1876 26.9036C31.8252 26.9036 32.3421 26.3868 32.3421 25.7492C32.3421 25.1116 31.8252 24.5947 31.1876 24.5947C30.5501 24.5947 30.0332 25.1116 30.0332 25.7492C30.0332 26.3868 30.5501 26.9036 31.1876 26.9036Z" fill="#FFBD86"/>
<path d="M25.215 25.262C25.8526 25.262 26.3694 24.7452 26.3694 24.1076C26.3694 23.47 25.8526 22.9531 25.215 22.9531C24.5774 22.9531 24.0605 23.47 24.0605 24.1076C24.0605 24.7452 24.5774 25.262 25.215 25.262Z" fill="#FFBD86"/>
<path d="M23.2477 31.472C23.8853 31.472 24.4022 30.9551 24.4022 30.3175C24.4022 29.68 23.8853 29.1631 23.2477 29.1631C22.6101 29.1631 22.0933 29.68 22.0933 30.3175C22.0933 30.9551 22.6101 31.472 23.2477 31.472Z" fill="#FFBD86"/>
<path d="M27.6266 29.3099C28.2642 29.3099 28.7811 28.793 28.7811 28.1554C28.7811 27.5178 28.2642 27.001 27.6266 27.001C26.989 27.001 26.4722 27.5178 26.4722 28.1554C26.4722 28.793 26.989 29.3099 27.6266 29.3099Z" fill="#FFBD86"/>
<path d="M31.046 32.3489C31.6836 32.3489 32.2005 31.8321 32.2005 31.1945C32.2005 30.5569 31.6836 30.04 31.046 30.04C30.4085 30.04 29.8916 30.5569 29.8916 31.1945C29.8916 31.8321 30.4085 32.3489 31.046 32.3489Z" fill="#FFBD86"/>
</svg>
